<svg width="617" height="208" viewBox="0 0 617 208" fill="none" xmlns="http://www.w3.org/2000/svg">
<rect width="617" height="207.296" transform="translate(0 0.111328)" fill="#F2F2F2"/>
<path d="M31.8809 61.7744L31.5938 64.1943H32.8174V65.0488H31.498L31.1084 68.1113H30.2881L30.6709 65.0488H29.2354L28.873 68.1113H28.0732L28.4355 65.0488H27.2666V64.1943H28.5381L28.8252 61.7744H27.5879V60.9404H28.9346L29.2695 58.1172H30.0898L29.7412 60.9404H31.1699L31.5254 58.1172H32.3184L31.9697 60.9404H33.1387V61.7744H31.8809ZM29.3447 64.1943H30.7734L31.0742 61.7744H29.6387L29.3447 64.1943ZM38.7441 63.1143C38.7441 63.9163 38.6986 64.6341 38.6074 65.2676C38.5208 65.901 38.3818 66.4388 38.1904 66.8809C37.999 67.3229 37.7507 67.6602 37.4453 67.8926C37.1445 68.125 36.7822 68.2412 36.3584 68.2412C35.8525 68.2412 35.4219 68.0863 35.0664 67.7764C34.7109 67.4619 34.4375 66.9333 34.2461 66.1904C34.0592 65.443 33.9658 64.4176 33.9658 63.1143C33.9658 61.9749 34.0524 61.0247 34.2256 60.2637C34.4033 59.5026 34.6676 58.9307 35.0186 58.5479C35.374 58.165 35.8206 57.9736 36.3584 57.9736C36.9053 57.9736 37.3542 58.1673 37.7051 58.5547C38.056 58.9375 38.3158 59.5094 38.4844 60.2705C38.6576 61.0316 38.7441 61.9795 38.7441 63.1143ZM35.0664 63.1143C35.0664 64.0303 35.1097 64.7959 35.1963 65.4111C35.2829 66.0218 35.4219 66.4821 35.6133 66.792C35.8047 67.1019 36.0531 67.2568 36.3584 67.2568C36.6637 67.2568 36.9121 67.1019 37.1035 66.792C37.2949 66.4775 37.4339 66.0127 37.5205 65.3975C37.6117 64.7822 37.6572 64.0212 37.6572 63.1143C37.6572 62.2074 37.6117 61.4463 37.5205 60.8311C37.4294 60.2158 37.2881 59.751 37.0967 59.4365C36.9098 59.1221 36.6637 58.9648 36.3584 58.9648C36.0531 58.9648 35.8047 59.1198 35.6133 59.4297C35.4219 59.7396 35.2829 60.2021 35.1963 60.8174C35.1097 61.4281 35.0664 62.1937 35.0664 63.1143ZM40.3779 58.1172H42.5586C43.429 58.1172 44.0876 58.3154 44.5342 58.7119C44.9808 59.1084 45.2041 59.7077 45.2041 60.5098C45.2041 60.9382 45.1494 61.3141 45.04 61.6377C44.9307 61.9567 44.7689 62.2165 44.5547 62.417C44.3451 62.6175 44.083 62.752 43.7686 62.8203V62.875C44.1423 62.9616 44.4499 63.1074 44.6914 63.3125C44.9329 63.5176 45.113 63.7819 45.2314 64.1055C45.3499 64.4245 45.4092 64.8073 45.4092 65.2539C45.4092 65.8281 45.3112 66.3294 45.1152 66.7578C44.9193 67.1862 44.6322 67.5189 44.2539 67.7559C43.8802 67.9928 43.4222 68.1113 42.8799 68.1113H40.3779V58.1172ZM41.4648 62.4238H42.5449C43.0872 62.4238 43.4814 62.2734 43.7275 61.9727C43.9736 61.6673 44.0967 61.2116 44.0967 60.6055C44.0967 60.0996 43.9668 59.7145 43.707 59.4502C43.4473 59.1813 43.0531 59.0469 42.5244 59.0469H41.4648V62.4238ZM41.4648 63.3535V67.1611H42.7568C43.2581 67.1611 43.6364 66.9993 43.8916 66.6758C44.1514 66.3477 44.2812 65.8555 44.2812 65.1992C44.2812 64.7891 44.2152 64.4473 44.083 64.1738C43.9508 63.9004 43.7617 63.6953 43.5156 63.5586C43.2695 63.4219 42.9733 63.3535 42.627 63.3535H41.4648ZM51.0762 60.4072C51.0762 60.8083 51.0124 61.1706 50.8848 61.4941C50.7572 61.8177 50.5703 62.0957 50.3242 62.3281C50.0827 62.556 49.7842 62.7337 49.4287 62.8613V62.916C50.012 63.0436 50.4587 63.3216 50.7686 63.75C51.083 64.1738 51.2402 64.7207 51.2402 65.3906C51.2402 65.9557 51.1331 66.4548 50.9189 66.8877C50.7093 67.3161 50.4017 67.651 49.9961 67.8926C49.5951 68.1296 49.1051 68.248 48.5264 68.248C48.1253 68.248 47.7607 68.2161 47.4326 68.1523C47.109 68.0885 46.7992 67.986 46.5029 67.8447V66.7646C46.7946 66.9378 47.1045 67.0723 47.4326 67.168C47.7607 67.2591 48.0911 67.3047 48.4238 67.3047C48.998 67.3047 49.4219 67.1224 49.6953 66.7578C49.9733 66.3932 50.1123 65.9193 50.1123 65.3359C50.1123 64.9167 50.0348 64.5658 49.8799 64.2832C49.7249 63.9961 49.4948 63.7819 49.1895 63.6406C48.8841 63.4948 48.5059 63.4219 48.0547 63.4219H47.542V62.4785H48.0957C48.4876 62.4785 48.8249 62.3965 49.1074 62.2324C49.3945 62.0684 49.6156 61.8405 49.7705 61.5488C49.9255 61.2526 50.0029 60.9085 50.0029 60.5166C50.0029 60.0107 49.8822 59.6188 49.6406 59.3408C49.3991 59.0628 49.0573 58.9238 48.6152 58.9238C48.3965 58.9238 48.196 58.9512 48.0137 59.0059C47.8314 59.0605 47.6559 59.1403 47.4873 59.2451C47.3232 59.3499 47.1546 59.4798 46.9814 59.6348L46.4551 58.8828C46.806 58.5592 47.1637 58.3268 47.5283 58.1855C47.8929 58.0443 48.3008 57.9736 48.752 57.9736C49.472 57.9736 50.0394 58.1924 50.4541 58.6299C50.8688 59.0628 51.0762 59.6553 51.0762 60.4072ZM52.9561 58.1172H55.1367C56.0072 58.1172 56.6657 58.3154 57.1123 58.7119C57.5589 59.1084 57.7822 59.7077 57.7822 60.5098C57.7822 60.9382 57.7275 61.3141 57.6182 61.6377C57.5088 61.9567 57.347 62.2165 57.1328 62.417C56.9232 62.6175 56.6611 62.752 56.3467 62.8203V62.875C56.7204 62.9616 57.028 63.1074 57.2695 63.3125C57.5111 63.5176 57.6911 63.7819 57.8096 64.1055C57.9281 64.4245 57.9873 64.8073 57.9873 65.2539C57.9873 65.8281 57.8893 66.3294 57.6934 66.7578C57.4974 67.1862 57.2103 67.5189 56.832 67.7559C56.4583 67.9928 56.0003 68.1113 55.458 68.1113H52.9561V58.1172ZM54.043 62.4238H55.123C55.6654 62.4238 56.0596 62.2734 56.3057 61.9727C56.5518 61.6673 56.6748 61.2116 56.6748 60.6055C56.6748 60.0996 56.5449 59.7145 56.2852 59.4502C56.0254 59.1813 55.6312 59.0469 55.1025 59.0469H54.043V62.4238ZM54.043 63.3535V67.1611H55.335C55.8363 67.1611 56.2145 66.9993 56.4697 66.6758C56.7295 66.3477 56.8594 65.8555 56.8594 65.1992C56.8594 64.7891 56.7933 64.4473 56.6611 64.1738C56.529 63.9004 56.3398 63.6953 56.0938 63.5586C55.8477 63.4219 55.5514 63.3535 55.2051 63.3535H54.043ZM63.832 68.1113H59.0195V67.3115L60.9951 64.3994C61.3825 63.8298 61.6878 63.3376 61.9111 62.9229C62.139 62.5081 62.3008 62.1162 62.3965 61.7471C62.4967 61.3734 62.5469 60.9678 62.5469 60.5303C62.5469 60.0426 62.4284 59.6576 62.1914 59.375C61.959 59.0924 61.624 58.9512 61.1865 58.9512C60.8949 58.9512 60.6283 59.0036 60.3867 59.1084C60.1497 59.2132 59.9059 59.3864 59.6553 59.6279L59.1016 58.876C59.3294 58.6618 59.555 58.4886 59.7783 58.3564C60.0016 58.2243 60.234 58.1286 60.4756 58.0693C60.7217 58.0055 60.9883 57.9736 61.2754 57.9736C61.7676 57.9736 62.1891 58.0785 62.54 58.2881C62.8955 58.4977 63.1667 58.7917 63.3535 59.1699C63.5404 59.5482 63.6338 59.988 63.6338 60.4893C63.6338 61.0225 63.5723 61.5124 63.4492 61.959C63.3262 62.4056 63.1393 62.8499 62.8887 63.292C62.6426 63.7295 62.3304 64.208 61.9521 64.7275L60.291 67.0859V67.1338H63.832V68.1113ZM67.4961 57.9736C67.9701 57.9736 68.3757 58.0693 68.7129 58.2607C69.0501 58.4521 69.3076 58.721 69.4854 59.0674C69.6676 59.4137 69.7588 59.8239 69.7588 60.2979C69.7588 60.6715 69.6995 61.0156 69.5811 61.3301C69.4671 61.64 69.2939 61.9248 69.0615 62.1846C68.8291 62.4398 68.5374 62.6722 68.1865 62.8818C68.542 63.1188 68.8542 63.3672 69.123 63.627C69.3919 63.8867 69.6016 64.1761 69.752 64.4951C69.9069 64.8141 69.9844 65.1787 69.9844 65.5889C69.9844 66.113 69.8841 66.5755 69.6836 66.9766C69.4831 67.373 69.1982 67.6852 68.8291 67.9131C68.4645 68.1364 68.0339 68.248 67.5371 68.248C66.9993 68.248 66.5391 68.141 66.1562 67.9268C65.7734 67.7126 65.4818 67.4118 65.2812 67.0244C65.0807 66.6325 64.9805 66.1768 64.9805 65.6572C64.9805 65.2562 65.042 64.8916 65.165 64.5635C65.2881 64.2308 65.4727 63.9277 65.7188 63.6543C65.9694 63.3809 66.2793 63.1257 66.6484 62.8887C66.3294 62.6471 66.0628 62.3919 65.8486 62.123C65.639 61.8542 65.4818 61.5693 65.377 61.2686C65.2721 60.9678 65.2197 60.6488 65.2197 60.3115C65.2197 59.8421 65.3132 59.432 65.5 59.0811C65.6868 58.7301 65.9512 58.459 66.293 58.2676C66.6348 58.0716 67.0358 57.9736 67.4961 57.9736ZM66.0469 65.6641C66.0469 66.1517 66.1722 66.5527 66.4229 66.8672C66.6735 67.1816 67.0267 67.3389 67.4824 67.3389C67.9518 67.3389 68.3073 67.1771 68.5488 66.8535C68.7904 66.5254 68.9111 66.1061 68.9111 65.5957C68.9111 65.3496 68.8678 65.1126 68.7812 64.8848C68.6947 64.6523 68.5579 64.429 68.3711 64.2148C68.1888 63.9961 67.9495 63.7842 67.6533 63.5791L67.3799 63.3877C67.0654 63.5928 66.8102 63.807 66.6143 64.0303C66.4183 64.249 66.2747 64.4906 66.1836 64.7549C66.0924 65.0192 66.0469 65.3223 66.0469 65.6641ZM67.4756 58.8896C67.1064 58.8896 66.8125 59.0218 66.5938 59.2861C66.375 59.5505 66.2656 59.915 66.2656 60.3799C66.2656 60.667 66.3112 60.9268 66.4023 61.1592C66.4935 61.387 66.6279 61.599 66.8057 61.7949C66.9834 61.9863 67.2044 62.1732 67.4688 62.3555C67.7559 62.1732 67.9883 61.984 68.166 61.7881C68.3483 61.5876 68.4827 61.3734 68.5693 61.1455C68.6559 60.9131 68.6992 60.6579 68.6992 60.3799C68.6992 59.915 68.5921 59.5505 68.3779 59.2861C68.1637 59.0218 67.863 58.8896 67.4756 58.8896Z" fill="#27302B"/>
<path d="M241.881 61.7744L241.594 64.1943H242.817V65.0488H241.498L241.108 68.1113H240.288L240.671 65.0488H239.235L238.873 68.1113H238.073L238.436 65.0488H237.267V64.1943H238.538L238.825 61.7744H237.588V60.9404H238.935L239.27 58.1172H240.09L239.741 60.9404H241.17L241.525 58.1172H242.318L241.97 60.9404H243.139V61.7744H241.881ZM239.345 64.1943H240.773L241.074 61.7744H239.639L239.345 64.1943ZM249.845 62.9912C249.845 64.1169 249.715 65.0602 249.455 65.8213C249.195 66.5778 248.808 67.1497 248.293 67.5371C247.783 67.9199 247.145 68.1113 246.379 68.1113H244.417V58.1172H246.461C247.204 58.1172 247.826 58.3018 248.327 58.6709C248.828 59.04 249.207 59.5869 249.462 60.3115C249.717 61.0361 249.845 61.9294 249.845 62.9912ZM248.71 63.0459C248.71 62.1755 248.626 61.4463 248.457 60.8584C248.288 60.2705 248.035 59.8285 247.698 59.5322C247.361 59.236 246.935 59.0879 246.42 59.0879H245.504V67.1338H246.338C247.163 67.1338 247.764 66.792 248.143 66.1084C248.521 65.4202 248.71 64.3994 248.71 63.0459ZM255.662 60.4072C255.662 60.8083 255.598 61.1706 255.471 61.4941C255.343 61.8177 255.156 62.0957 254.91 62.3281C254.669 62.556 254.37 62.7337 254.015 62.8613V62.916C254.598 63.0436 255.045 63.3216 255.354 63.75C255.669 64.1738 255.826 64.7207 255.826 65.3906C255.826 65.9557 255.719 66.4548 255.505 66.8877C255.295 67.3161 254.988 67.651 254.582 67.8926C254.181 68.1296 253.691 68.248 253.112 68.248C252.711 68.248 252.347 68.2161 252.019 68.1523C251.695 68.0885 251.385 67.986 251.089 67.8447V66.7646C251.381 66.9378 251.69 67.0723 252.019 67.168C252.347 67.2591 252.677 67.3047 253.01 67.3047C253.584 67.3047 254.008 67.1224 254.281 66.7578C254.559 66.3932 254.698 65.9193 254.698 65.3359C254.698 64.9167 254.621 64.5658 254.466 64.2832C254.311 63.9961 254.081 63.7819 253.775 63.6406C253.47 63.4948 253.092 63.4219 252.641 63.4219H252.128V62.4785H252.682C253.074 62.4785 253.411 62.3965 253.693 62.2324C253.98 62.0684 254.201 61.8405 254.356 61.5488C254.511 61.2526 254.589 60.9085 254.589 60.5166C254.589 60.0107 254.468 59.6188 254.227 59.3408C253.985 59.0628 253.643 58.9238 253.201 58.9238C252.982 58.9238 252.782 58.9512 252.6 59.0059C252.417 59.0605 252.242 59.1403 252.073 59.2451C251.909 59.3499 251.741 59.4798 251.567 59.6348L251.041 58.8828C251.392 58.5592 251.75 58.3268 252.114 58.1855C252.479 58.0443 252.887 57.9736 253.338 57.9736C254.058 57.9736 254.625 58.1924 255.04 58.6299C255.455 59.0628 255.662 59.6553 255.662 60.4072ZM260.584 58.9512C260.188 58.9512 259.846 59.0628 259.559 59.2861C259.276 59.5094 259.044 59.8171 258.861 60.209C258.684 60.5964 258.551 61.0407 258.465 61.542C258.383 62.0387 258.342 62.5628 258.342 63.1143C258.342 63.971 258.435 64.7093 258.622 65.3291C258.813 65.9489 259.082 66.4274 259.429 66.7646C259.775 67.0973 260.183 67.2637 260.652 67.2637C260.935 67.2637 261.201 67.2272 261.452 67.1543C261.703 67.0814 261.933 66.9925 262.143 66.8877V67.8721C261.924 67.9997 261.68 68.0931 261.411 68.1523C261.142 68.2161 260.848 68.248 260.529 68.248C259.85 68.248 259.262 68.043 258.766 67.6328C258.269 67.2227 257.886 66.6348 257.617 65.8691C257.348 65.099 257.214 64.1761 257.214 63.1006C257.214 62.3942 257.28 61.7311 257.412 61.1113C257.549 60.4915 257.754 59.9447 258.027 59.4707C258.305 58.9967 258.654 58.6276 259.073 58.3633C259.493 58.0944 259.985 57.96 260.55 57.96C260.878 57.96 261.192 58.0033 261.493 58.0898C261.799 58.1719 262.09 58.2926 262.368 58.4521L261.979 59.375C261.769 59.2428 261.548 59.1403 261.315 59.0674C261.083 58.9899 260.839 58.9512 260.584 58.9512ZM267.666 68.1113H263.735V58.1172H267.666V59.0879H264.822V62.4033H267.495V63.3809H264.822V67.1201H267.666V68.1113ZM272.369 58.9512C271.973 58.9512 271.631 59.0628 271.344 59.2861C271.061 59.5094 270.829 59.8171 270.646 60.209C270.469 60.5964 270.337 61.0407 270.25 61.542C270.168 62.0387 270.127 62.5628 270.127 63.1143C270.127 63.971 270.22 64.7093 270.407 65.3291C270.599 65.9489 270.868 66.4274 271.214 66.7646C271.56 67.0973 271.968 67.2637 272.438 67.2637C272.72 67.2637 272.987 67.2272 273.237 67.1543C273.488 67.0814 273.718 66.9925 273.928 66.8877V67.8721C273.709 67.9997 273.465 68.0931 273.196 68.1523C272.927 68.2161 272.633 68.248 272.314 68.248C271.635 68.248 271.048 68.043 270.551 67.6328C270.054 67.2227 269.671 66.6348 269.402 65.8691C269.133 65.099 268.999 64.1761 268.999 63.1006C268.999 62.3942 269.065 61.7311 269.197 61.1113C269.334 60.4915 269.539 59.9447 269.812 59.4707C270.09 58.9967 270.439 58.6276 270.858 58.3633C271.278 58.0944 271.77 57.96 272.335 57.96C272.663 57.96 272.978 58.0033 273.278 58.0898C273.584 58.1719 273.875 58.2926 274.153 58.4521L273.764 59.375C273.554 59.2428 273.333 59.1403 273.101 59.0674C272.868 58.9899 272.624 58.9512 272.369 58.9512ZM280.251 65.9102H279.191V68.1113H278.125V65.9102H274.721V65.0215L278.036 58.0352H279.191V64.9873H280.251V65.9102ZM278.125 64.9873V60.9541C278.125 60.8493 278.127 60.7308 278.132 60.5986C278.136 60.4665 278.141 60.332 278.146 60.1953C278.15 60.054 278.155 59.9196 278.159 59.792C278.164 59.6644 278.168 59.5527 278.173 59.457H278.125C278.052 59.6758 277.972 59.8877 277.886 60.0928C277.804 60.2979 277.722 60.4961 277.64 60.6875L275.685 64.9873H278.125Z" fill="#27302B"/>
<path d="M31.8809 142.774L31.5938 145.194H32.8174V146.049H31.498L31.1084 149.111H30.2881L30.6709 146.049H29.2354L28.873 149.111H28.0732L28.4355 146.049H27.2666V145.194H28.5381L28.8252 142.774H27.5879V141.94H28.9346L29.2695 139.117H30.0898L29.7412 141.94H31.1699L31.5254 139.117H32.3184L31.9697 141.94H33.1387V142.774H31.8809ZM29.3447 145.194H30.7734L31.0742 142.774H29.6387L29.3447 145.194ZM38.6758 149.111H33.8633V148.312L35.8389 145.399C36.2262 144.83 36.5316 144.338 36.7549 143.923C36.9827 143.508 37.1445 143.116 37.2402 142.747C37.3405 142.373 37.3906 141.968 37.3906 141.53C37.3906 141.043 37.2721 140.658 37.0352 140.375C36.8027 140.092 36.4678 139.951 36.0303 139.951C35.7386 139.951 35.472 140.004 35.2305 140.108C34.9935 140.213 34.7497 140.386 34.499 140.628L33.9453 139.876C34.1732 139.662 34.3988 139.489 34.6221 139.356C34.8454 139.224 35.0778 139.129 35.3193 139.069C35.5654 139.006 35.832 138.974 36.1191 138.974C36.6113 138.974 37.0329 139.078 37.3838 139.288C37.7393 139.498 38.0104 139.792 38.1973 140.17C38.3841 140.548 38.4775 140.988 38.4775 141.489C38.4775 142.022 38.416 142.512 38.293 142.959C38.1699 143.406 37.9831 143.85 37.7324 144.292C37.4863 144.729 37.1742 145.208 36.7959 145.728L35.1348 148.086V148.134H38.6758V149.111ZM40.6582 149.111L43.6797 140.108H39.7969V139.117H44.7734V139.924L41.793 149.111H40.6582ZM50.4199 141.407C50.4199 141.808 50.3561 142.171 50.2285 142.494C50.1009 142.818 49.9141 143.096 49.668 143.328C49.4264 143.556 49.1279 143.734 48.7725 143.861V143.916C49.3558 144.044 49.8024 144.322 50.1123 144.75C50.4268 145.174 50.584 145.721 50.584 146.391C50.584 146.956 50.4769 147.455 50.2627 147.888C50.0531 148.316 49.7454 148.651 49.3398 148.893C48.9388 149.13 48.4489 149.248 47.8701 149.248C47.4691 149.248 47.1045 149.216 46.7764 149.152C46.4528 149.089 46.1429 148.986 45.8467 148.845V147.765C46.1383 147.938 46.4482 148.072 46.7764 148.168C47.1045 148.259 47.4349 148.305 47.7676 148.305C48.3418 148.305 48.7656 148.122 49.0391 147.758C49.3171 147.393 49.4561 146.919 49.4561 146.336C49.4561 145.917 49.3786 145.566 49.2236 145.283C49.0687 144.996 48.8385 144.782 48.5332 144.641C48.2279 144.495 47.8496 144.422 47.3984 144.422H46.8857V143.479H47.4395C47.8314 143.479 48.1686 143.396 48.4512 143.232C48.7383 143.068 48.9593 142.84 49.1143 142.549C49.2692 142.253 49.3467 141.909 49.3467 141.517C49.3467 141.011 49.2259 140.619 48.9844 140.341C48.7428 140.063 48.401 139.924 47.959 139.924C47.7402 139.924 47.5397 139.951 47.3574 140.006C47.1751 140.061 46.9997 140.14 46.8311 140.245C46.667 140.35 46.4984 140.48 46.3252 140.635L45.7988 139.883C46.1497 139.559 46.5075 139.327 46.8721 139.186C47.2367 139.044 47.6445 138.974 48.0957 138.974C48.8158 138.974 49.3831 139.192 49.7979 139.63C50.2126 140.063 50.4199 140.655 50.4199 141.407ZM56.627 144.114C56.627 144.916 56.5814 145.634 56.4902 146.268C56.4036 146.901 56.2646 147.439 56.0732 147.881C55.8818 148.323 55.6335 148.66 55.3281 148.893C55.0273 149.125 54.665 149.241 54.2412 149.241C53.7354 149.241 53.3047 149.086 52.9492 148.776C52.5938 148.462 52.3203 147.933 52.1289 147.19C51.9421 146.443 51.8486 145.418 51.8486 144.114C51.8486 142.975 51.9352 142.025 52.1084 141.264C52.2861 140.503 52.5505 139.931 52.9014 139.548C53.2568 139.165 53.7035 138.974 54.2412 138.974C54.7881 138.974 55.237 139.167 55.5879 139.555C55.9388 139.938 56.1986 140.509 56.3672 141.271C56.5404 142.032 56.627 142.979 56.627 144.114ZM52.9492 144.114C52.9492 145.03 52.9925 145.796 53.0791 146.411C53.1657 147.022 53.3047 147.482 53.4961 147.792C53.6875 148.102 53.9359 148.257 54.2412 148.257C54.5465 148.257 54.7949 148.102 54.9863 147.792C55.1777 147.478 55.3167 147.013 55.4033 146.397C55.4945 145.782 55.54 145.021 55.54 144.114C55.54 143.207 55.4945 142.446 55.4033 141.831C55.3122 141.216 55.1709 140.751 54.9795 140.437C54.7926 140.122 54.5465 139.965 54.2412 139.965C53.9359 139.965 53.6875 140.12 53.4961 140.43C53.3047 140.74 53.1657 141.202 53.0791 141.817C52.9925 142.428 52.9492 143.194 52.9492 144.114ZM62.5195 149.111H57.707V148.312L59.6826 145.399C60.07 144.83 60.3753 144.338 60.5986 143.923C60.8265 143.508 60.9883 143.116 61.084 142.747C61.1842 142.373 61.2344 141.968 61.2344 141.53C61.2344 141.043 61.1159 140.658 60.8789 140.375C60.6465 140.092 60.3115 139.951 59.874 139.951C59.5824 139.951 59.3158 140.004 59.0742 140.108C58.8372 140.213 58.5934 140.386 58.3428 140.628L57.7891 139.876C58.0169 139.662 58.2425 139.489 58.4658 139.356C58.6891 139.224 58.9215 139.129 59.1631 139.069C59.4092 139.006 59.6758 138.974 59.9629 138.974C60.4551 138.974 60.8766 139.078 61.2275 139.288C61.583 139.498 61.8542 139.792 62.041 140.17C62.2279 140.548 62.3213 140.988 62.3213 141.489C62.3213 142.022 62.2598 142.512 62.1367 142.959C62.0137 143.406 61.8268 143.85 61.5762 144.292C61.3301 144.729 61.0179 145.208 60.6396 145.728L58.9785 148.086V148.134H62.5195V149.111ZM64.2217 139.117H66.4023C67.2728 139.117 67.9313 139.315 68.3779 139.712C68.8245 140.108 69.0479 140.708 69.0479 141.51C69.0479 141.938 68.9932 142.314 68.8838 142.638C68.7744 142.957 68.6126 143.216 68.3984 143.417C68.1888 143.618 67.9268 143.752 67.6123 143.82V143.875C67.986 143.962 68.2936 144.107 68.5352 144.312C68.7767 144.518 68.9567 144.782 69.0752 145.105C69.1937 145.424 69.2529 145.807 69.2529 146.254C69.2529 146.828 69.1549 147.329 68.959 147.758C68.763 148.186 68.4759 148.519 68.0977 148.756C67.724 148.993 67.266 149.111 66.7236 149.111H64.2217V139.117ZM65.3086 143.424H66.3887C66.931 143.424 67.3252 143.273 67.5713 142.973C67.8174 142.667 67.9404 142.212 67.9404 141.605C67.9404 141.1 67.8105 140.715 67.5508 140.45C67.291 140.181 66.8968 140.047 66.3682 140.047H65.3086V143.424ZM65.3086 144.354V148.161H66.6006C67.1019 148.161 67.4801 147.999 67.7354 147.676C67.9951 147.348 68.125 146.855 68.125 146.199C68.125 145.789 68.0589 145.447 67.9268 145.174C67.7946 144.9 67.6055 144.695 67.3594 144.559C67.1133 144.422 66.8171 144.354 66.4707 144.354H65.3086Z" fill="#27302B"/>
<path d="M241.881 142.774L241.594 145.194H242.817V146.049H241.498L241.108 149.111H240.288L240.671 146.049H239.235L238.873 149.111H238.073L238.436 146.049H237.267V145.194H238.538L238.825 142.774H237.588V141.94H238.935L239.27 139.117H240.09L239.741 141.94H241.17L241.525 139.117H242.318L241.97 141.94H243.139V142.774H241.881ZM239.345 145.194H240.773L241.074 142.774H239.639L239.345 145.194ZM248.498 141.407C248.498 141.808 248.434 142.171 248.307 142.494C248.179 142.818 247.992 143.096 247.746 143.328C247.505 143.556 247.206 143.734 246.851 143.861V143.916C247.434 144.044 247.881 144.322 248.19 144.75C248.505 145.174 248.662 145.721 248.662 146.391C248.662 146.956 248.555 147.455 248.341 147.888C248.131 148.316 247.824 148.651 247.418 148.893C247.017 149.13 246.527 149.248 245.948 149.248C245.547 149.248 245.183 149.216 244.854 149.152C244.531 149.089 244.221 148.986 243.925 148.845V147.765C244.216 147.938 244.526 148.072 244.854 148.168C245.183 148.259 245.513 148.305 245.846 148.305C246.42 148.305 246.844 148.122 247.117 147.758C247.395 147.393 247.534 146.919 247.534 146.336C247.534 145.917 247.457 145.566 247.302 145.283C247.147 144.996 246.917 144.782 246.611 144.641C246.306 144.495 245.928 144.422 245.477 144.422H244.964V143.479H245.518C245.91 143.479 246.247 143.396 246.529 143.232C246.816 143.068 247.037 142.84 247.192 142.549C247.347 142.253 247.425 141.909 247.425 141.517C247.425 141.011 247.304 140.619 247.062 140.341C246.821 140.063 246.479 139.924 246.037 139.924C245.818 139.924 245.618 139.951 245.436 140.006C245.253 140.061 245.078 140.14 244.909 140.245C244.745 140.35 244.576 140.48 244.403 140.635L243.877 139.883C244.228 139.559 244.586 139.327 244.95 139.186C245.315 139.044 245.723 138.974 246.174 138.974C246.894 138.974 247.461 139.192 247.876 139.63C248.291 140.063 248.498 140.655 248.498 141.407ZM254.459 141.407C254.459 141.808 254.395 142.171 254.268 142.494C254.14 142.818 253.953 143.096 253.707 143.328C253.465 143.556 253.167 143.734 252.812 143.861V143.916C253.395 144.044 253.841 144.322 254.151 144.75C254.466 145.174 254.623 145.721 254.623 146.391C254.623 146.956 254.516 147.455 254.302 147.888C254.092 148.316 253.785 148.651 253.379 148.893C252.978 149.13 252.488 149.248 251.909 149.248C251.508 149.248 251.144 149.216 250.815 149.152C250.492 149.089 250.182 148.986 249.886 148.845V147.765C250.177 147.938 250.487 148.072 250.815 148.168C251.144 148.259 251.474 148.305 251.807 148.305C252.381 148.305 252.805 148.122 253.078 147.758C253.356 147.393 253.495 146.919 253.495 146.336C253.495 145.917 253.418 145.566 253.263 145.283C253.108 144.996 252.878 144.782 252.572 144.641C252.267 144.495 251.889 144.422 251.438 144.422H250.925V143.479H251.479C251.87 143.479 252.208 143.396 252.49 143.232C252.777 143.068 252.998 142.84 253.153 142.549C253.308 142.253 253.386 141.909 253.386 141.517C253.386 141.011 253.265 140.619 253.023 140.341C252.782 140.063 252.44 139.924 251.998 139.924C251.779 139.924 251.579 139.951 251.396 140.006C251.214 140.061 251.039 140.14 250.87 140.245C250.706 140.35 250.537 140.48 250.364 140.635L249.838 139.883C250.189 139.559 250.547 139.327 250.911 139.186C251.276 139.044 251.684 138.974 252.135 138.974C252.855 138.974 253.422 139.192 253.837 139.63C254.252 140.063 254.459 140.655 254.459 141.407ZM256.619 149.111L259.641 140.108H255.758V139.117H260.734V139.924L257.754 149.111H256.619ZM262.58 149.111L265.602 140.108H261.719V139.117H266.695V139.924L263.715 149.111H262.58ZM270.141 142.986C270.651 142.986 271.086 143.109 271.446 143.355C271.806 143.602 272.082 143.943 272.273 144.381C272.465 144.818 272.561 145.326 272.561 145.905C272.561 146.566 272.451 147.147 272.232 147.648C272.018 148.15 271.701 148.542 271.282 148.824C270.863 149.107 270.343 149.248 269.724 149.248C269.345 149.248 269.006 149.212 268.705 149.139C268.404 149.07 268.14 148.968 267.912 148.831V147.751C268.167 147.92 268.443 148.054 268.739 148.154C269.04 148.255 269.341 148.305 269.642 148.305C270.056 148.305 270.396 148.198 270.66 147.983C270.929 147.765 271.13 147.478 271.262 147.122C271.394 146.762 271.46 146.368 271.46 145.939C271.46 145.279 271.314 144.775 271.022 144.429C270.735 144.082 270.321 143.909 269.778 143.909C269.55 143.909 269.325 143.932 269.102 143.978C268.878 144.019 268.655 144.073 268.432 144.142L268.001 143.725L268.302 139.117H272.027V140.102H269.204L268.999 143.123C269.19 143.077 269.382 143.043 269.573 143.021C269.769 142.998 269.958 142.986 270.141 142.986ZM277.264 139.951C276.867 139.951 276.525 140.063 276.238 140.286C275.956 140.509 275.723 140.817 275.541 141.209C275.363 141.596 275.231 142.041 275.145 142.542C275.062 143.039 275.021 143.563 275.021 144.114C275.021 144.971 275.115 145.709 275.302 146.329C275.493 146.949 275.762 147.427 276.108 147.765C276.455 148.097 276.863 148.264 277.332 148.264C277.615 148.264 277.881 148.227 278.132 148.154C278.382 148.081 278.613 147.993 278.822 147.888V148.872C278.604 149 278.36 149.093 278.091 149.152C277.822 149.216 277.528 149.248 277.209 149.248C276.53 149.248 275.942 149.043 275.445 148.633C274.949 148.223 274.566 147.635 274.297 146.869C274.028 146.099 273.894 145.176 273.894 144.101C273.894 143.394 273.96 142.731 274.092 142.111C274.229 141.492 274.434 140.945 274.707 140.471C274.985 139.997 275.334 139.628 275.753 139.363C276.172 139.094 276.664 138.96 277.229 138.96C277.558 138.96 277.872 139.003 278.173 139.09C278.478 139.172 278.77 139.293 279.048 139.452L278.658 140.375C278.449 140.243 278.228 140.14 277.995 140.067C277.763 139.99 277.519 139.951 277.264 139.951Z" fill="#27302B"/>
<path d="M452.881 142.774L452.594 145.194H453.817V146.049H452.498L452.108 149.111H451.288L451.671 146.049H450.235L449.873 149.111H449.073L449.436 146.049H448.267V145.194H449.538L449.825 142.774H448.588V141.94H449.935L450.27 139.117H451.09L450.741 141.94H452.17L452.525 139.117H453.318L452.97 141.94H454.139V142.774H452.881ZM450.345 145.194H451.773L452.074 142.774H450.639L450.345 145.194ZM455.007 144.859C455.007 144.103 455.046 143.415 455.123 142.795C455.205 142.175 455.326 141.628 455.485 141.154C455.649 140.68 455.859 140.282 456.114 139.958C456.369 139.634 456.67 139.391 457.017 139.227C457.368 139.062 457.769 138.98 458.22 138.98C458.416 138.98 458.6 138.994 458.773 139.021C458.951 139.044 459.111 139.081 459.252 139.131V140.095C459.106 140.045 458.949 140.008 458.78 139.985C458.616 139.958 458.441 139.944 458.254 139.944C457.798 139.944 457.409 140.095 457.085 140.396C456.766 140.696 456.52 141.145 456.347 141.742C456.174 142.335 456.073 143.075 456.046 143.964H456.101C456.196 143.736 456.319 143.535 456.47 143.362C456.62 143.189 456.798 143.055 457.003 142.959C457.213 142.859 457.445 142.809 457.7 142.809C458.165 142.809 458.548 142.95 458.849 143.232C459.154 143.51 459.382 143.886 459.532 144.36C459.683 144.834 459.758 145.368 459.758 145.96C459.758 146.589 459.671 147.152 459.498 147.648C459.329 148.145 459.074 148.537 458.732 148.824C458.391 149.111 457.965 149.255 457.454 149.255C457.058 149.255 456.707 149.159 456.401 148.968C456.096 148.776 455.839 148.496 455.629 148.127C455.424 147.753 455.269 147.293 455.164 146.746C455.059 146.199 455.007 145.57 455.007 144.859ZM457.44 148.284C457.832 148.284 458.138 148.093 458.356 147.71C458.575 147.327 458.685 146.751 458.685 145.98C458.685 145.26 458.582 144.714 458.377 144.34C458.172 143.962 457.862 143.772 457.447 143.772C457.156 143.772 456.91 143.857 456.709 144.025C456.513 144.189 456.365 144.408 456.265 144.682C456.164 144.951 456.114 145.247 456.114 145.57C456.114 145.853 456.137 146.151 456.183 146.466C456.228 146.78 456.301 147.076 456.401 147.354C456.502 147.628 456.636 147.851 456.805 148.024C456.978 148.198 457.19 148.284 457.44 148.284ZM466.108 146.91H465.049V149.111H463.982V146.91H460.578V146.021L463.894 139.035H465.049V145.987H466.108V146.91ZM463.982 145.987V141.954C463.982 141.849 463.985 141.731 463.989 141.599C463.994 141.466 463.998 141.332 464.003 141.195C464.007 141.054 464.012 140.92 464.017 140.792C464.021 140.664 464.026 140.553 464.03 140.457H463.982C463.91 140.676 463.83 140.888 463.743 141.093C463.661 141.298 463.579 141.496 463.497 141.688L461.542 145.987H463.982ZM467.339 139.117H469.52C470.39 139.117 471.049 139.315 471.495 139.712C471.942 140.108 472.165 140.708 472.165 141.51C472.165 141.938 472.11 142.314 472.001 142.638C471.892 142.957 471.73 143.216 471.516 143.417C471.306 143.618 471.044 143.752 470.729 143.82V143.875C471.103 143.962 471.411 144.107 471.652 144.312C471.894 144.518 472.074 144.782 472.192 145.105C472.311 145.424 472.37 145.807 472.37 146.254C472.37 146.828 472.272 147.329 472.076 147.758C471.88 148.186 471.593 148.519 471.215 148.756C470.841 148.993 470.383 149.111 469.841 149.111H467.339V139.117ZM468.426 143.424H469.506C470.048 143.424 470.442 143.273 470.688 142.973C470.935 142.667 471.058 142.212 471.058 141.605C471.058 141.1 470.928 140.715 470.668 140.45C470.408 140.181 470.014 140.047 469.485 140.047H468.426V143.424ZM468.426 144.354V148.161H469.718C470.219 148.161 470.597 147.999 470.853 147.676C471.112 147.348 471.242 146.855 471.242 146.199C471.242 145.789 471.176 145.447 471.044 145.174C470.912 144.9 470.723 144.695 470.477 144.559C470.23 144.422 469.934 144.354 469.588 144.354H468.426ZM478.215 149.111H473.402V148.312L475.378 145.399C475.765 144.83 476.071 144.338 476.294 143.923C476.522 143.508 476.684 143.116 476.779 142.747C476.88 142.373 476.93 141.968 476.93 141.53C476.93 141.043 476.811 140.658 476.574 140.375C476.342 140.092 476.007 139.951 475.569 139.951C475.278 139.951 475.011 140.004 474.77 140.108C474.533 140.213 474.289 140.386 474.038 140.628L473.484 139.876C473.712 139.662 473.938 139.489 474.161 139.356C474.384 139.224 474.617 139.129 474.858 139.069C475.104 139.006 475.371 138.974 475.658 138.974C476.15 138.974 476.572 139.078 476.923 139.288C477.278 139.498 477.549 139.792 477.736 140.17C477.923 140.548 478.017 140.988 478.017 141.489C478.017 142.022 477.955 142.512 477.832 142.959C477.709 143.406 477.522 143.85 477.271 144.292C477.025 144.729 476.713 145.208 476.335 145.728L474.674 148.086V148.134H478.215V149.111ZM484.155 143.294C484.155 144.06 484.114 144.757 484.032 145.386C483.95 146.01 483.825 146.564 483.656 147.047C483.488 147.525 483.273 147.929 483.014 148.257C482.758 148.58 482.455 148.826 482.104 148.995C481.758 149.164 481.364 149.248 480.922 149.248C480.753 149.248 480.564 149.232 480.354 149.2C480.149 149.173 479.981 149.141 479.849 149.104V148.12C479.994 148.175 480.154 148.218 480.327 148.25C480.5 148.277 480.692 148.291 480.901 148.291C481.425 148.291 481.845 148.106 482.159 147.737C482.478 147.364 482.713 146.871 482.863 146.261C483.014 145.65 483.098 144.987 483.116 144.271H483.068C482.973 144.495 482.85 144.693 482.699 144.866C482.549 145.039 482.371 145.176 482.166 145.276C481.961 145.372 481.731 145.42 481.476 145.42C481.006 145.42 480.619 145.281 480.313 145.003C480.008 144.725 479.78 144.349 479.63 143.875C479.484 143.396 479.411 142.863 479.411 142.275C479.411 141.646 479.498 141.084 479.671 140.587C479.844 140.086 480.104 139.691 480.45 139.404C480.801 139.117 481.243 138.974 481.776 138.974C482.164 138.974 482.506 139.069 482.802 139.261C483.098 139.448 483.346 139.726 483.547 140.095C483.747 140.459 483.898 140.91 483.998 141.448C484.103 141.981 484.155 142.597 484.155 143.294ZM481.77 139.951C481.35 139.951 481.034 140.143 480.819 140.525C480.605 140.904 480.498 141.478 480.498 142.248C480.498 142.964 480.601 143.513 480.806 143.896C481.011 144.274 481.321 144.463 481.735 144.463C482.036 144.463 482.285 144.374 482.48 144.196C482.676 144.014 482.822 143.779 482.918 143.492C483.014 143.205 483.062 142.897 483.062 142.569C483.062 142.328 483.043 142.059 483.007 141.763C482.97 141.462 482.907 141.175 482.815 140.901C482.724 140.623 482.594 140.396 482.426 140.218C482.257 140.04 482.038 139.951 481.77 139.951ZM490.608 146.91H489.549V149.111H488.482V146.91H485.078V146.021L488.394 139.035H489.549V145.987H490.608V146.91ZM488.482 145.987V141.954C488.482 141.849 488.485 141.731 488.489 141.599C488.494 141.466 488.498 141.332 488.503 141.195C488.507 141.054 488.512 140.92 488.517 140.792C488.521 140.664 488.526 140.553 488.53 140.457H488.482C488.41 140.676 488.33 140.888 488.243 141.093C488.161 141.298 488.079 141.496 487.997 141.688L486.042 145.987H488.482Z" fill="#27302B"/>
<path d="M452.881 61.7744L452.594 64.1943H453.817V65.0488H452.498L452.108 68.1113H451.288L451.671 65.0488H450.235L449.873 68.1113H449.073L449.436 65.0488H448.267V64.1943H449.538L449.825 61.7744H448.588V60.9404H449.935L450.27 58.1172H451.09L450.741 60.9404H452.17L452.525 58.1172H453.318L452.97 60.9404H454.139V61.7744H452.881ZM450.345 64.1943H451.773L452.074 61.7744H450.639L450.345 64.1943ZM456.504 68.1113H455.417V58.1172H459.348V59.0879H456.504V62.8203H459.184V63.8047H456.504V68.1113ZM461.781 68.1113H460.694V58.1172H464.625V59.0879H461.781V62.8203H464.461V63.8047H461.781V68.1113ZM467.059 68.1113H465.972V58.1172H469.902V59.0879H467.059V62.8203H469.738V63.8047H467.059V68.1113ZM472.336 68.1113H471.249V58.1172H475.18V59.0879H472.336V62.8203H475.016V63.8047H472.336V68.1113ZM477.613 68.1113H476.526V58.1172H480.457V59.0879H477.613V62.8203H480.293V63.8047H477.613V68.1113ZM482.891 68.1113H481.804V58.1172H485.734V59.0879H482.891V62.8203H485.57V63.8047H482.891V68.1113Z" fill="#27302B"/>
<path d="M30.4248 80.4756C30.5296 80.4756 30.6344 80.4847 30.7393 80.5029C30.8441 80.5166 30.9535 80.5417 31.0674 80.5781L30.9033 81.6582C30.8213 81.6217 30.7347 81.5967 30.6436 81.583C30.5524 81.5693 30.4544 81.5625 30.3496 81.5625C30.1445 81.5625 29.9554 81.6309 29.7822 81.7676C29.6136 81.8997 29.4678 82.0866 29.3447 82.3281C29.2217 82.5697 29.126 82.8499 29.0576 83.1689C28.9938 83.488 28.9642 83.832 28.9688 84.2012V88.1113H27.916V80.6055H28.7363L28.8799 81.9385H28.9482C29.0531 81.6514 29.1761 81.3984 29.3174 81.1797C29.4587 80.9609 29.6204 80.79 29.8027 80.667C29.9896 80.5394 30.1969 80.4756 30.4248 80.4756ZM33.5967 91.4746C32.8812 91.4746 32.3184 91.2923 31.9082 90.9277C31.498 90.5632 31.293 90.0527 31.293 89.3965C31.293 88.8815 31.416 88.46 31.6621 88.1318C31.9082 87.8037 32.2249 87.585 32.6123 87.4756C32.4209 87.3844 32.2637 87.2477 32.1406 87.0654C32.0221 86.8831 31.9629 86.6667 31.9629 86.416C31.9629 86.1608 32.0221 85.9284 32.1406 85.7188C32.2637 85.5091 32.4346 85.3086 32.6533 85.1172C32.3617 84.944 32.1315 84.666 31.9629 84.2832C31.7943 83.9004 31.71 83.4606 31.71 82.9639C31.71 82.4535 31.792 82.0137 31.9561 81.6445C32.1247 81.2708 32.3662 80.9814 32.6807 80.7764C32.9951 80.5713 33.3711 80.4688 33.8086 80.4688C33.9453 80.4688 34.0661 80.4756 34.1709 80.4893C34.2757 80.5029 34.3691 80.5212 34.4512 80.5439C34.5332 80.5667 34.6061 80.5941 34.6699 80.626H36.5293V81.3027L35.5244 81.4258C35.652 81.6309 35.7454 81.8656 35.8047 82.1299C35.8639 82.3896 35.8936 82.654 35.8936 82.9229C35.8936 83.693 35.7113 84.2992 35.3467 84.7412C34.9821 85.1787 34.4671 85.3975 33.8018 85.3975C33.5967 85.3975 33.4326 85.377 33.3096 85.3359C33.1865 85.4499 33.0771 85.5798 32.9814 85.7256C32.8903 85.8714 32.8447 86.0514 32.8447 86.2656C32.8447 86.3978 32.8743 86.514 32.9336 86.6143C32.9974 86.7145 33.0885 86.792 33.207 86.8467C33.3255 86.9014 33.4714 86.9287 33.6445 86.9287H34.7246C35.2852 86.9287 35.7158 87.0905 36.0166 87.4141C36.3219 87.7376 36.4746 88.2298 36.4746 88.8906C36.4746 89.7109 36.2262 90.3467 35.7295 90.7979C35.2373 91.249 34.5264 91.4746 33.5967 91.4746ZM33.6787 90.6406C34.0752 90.6406 34.4056 90.5791 34.6699 90.4561C34.9388 90.3376 35.1393 90.1553 35.2715 89.9092C35.4082 89.6631 35.4766 89.3577 35.4766 88.9932C35.4766 88.6969 35.4287 88.4691 35.333 88.3096C35.2419 88.1501 35.1097 88.0407 34.9365 87.9814C34.7633 87.9222 34.556 87.8926 34.3145 87.8926H33.4189C33.2093 87.8926 33.0179 87.9404 32.8447 88.0361C32.6761 88.1273 32.5417 88.2754 32.4414 88.4805C32.3411 88.6855 32.291 88.959 32.291 89.3008C32.291 89.7428 32.4141 90.0755 32.6602 90.2988C32.9108 90.5267 33.2503 90.6406 33.6787 90.6406ZM33.8086 84.6182C34.1367 84.6182 34.3896 84.4769 34.5674 84.1943C34.7497 83.9118 34.8408 83.4971 34.8408 82.9502C34.8408 82.376 34.7474 81.9476 34.5605 81.665C34.3783 81.3825 34.123 81.2412 33.7949 81.2412C33.4759 81.2412 33.2253 81.3939 33.043 81.6992C32.8607 82 32.7695 82.4238 32.7695 82.9707C32.7695 83.4948 32.8561 83.9004 33.0293 84.1875C33.2025 84.4746 33.4622 84.6182 33.8086 84.6182ZM38.5664 77.4746V80.6055C38.5664 80.7513 38.5618 80.9154 38.5527 81.0977C38.5482 81.2754 38.5413 81.4645 38.5322 81.665H38.5801C38.7669 81.2731 38.9993 80.9792 39.2773 80.7832C39.5599 80.5827 39.8812 80.4824 40.2412 80.4824C40.9567 80.4824 41.499 80.8105 41.8682 81.4668C42.2419 82.1185 42.4287 83.0778 42.4287 84.3447C42.4287 85.1833 42.3444 85.8942 42.1758 86.4775C42.0117 87.0563 41.7679 87.4961 41.4443 87.7969C41.1253 88.0977 40.7334 88.248 40.2686 88.248C39.8994 88.248 39.5758 88.1569 39.2979 87.9746C39.0199 87.7878 38.7806 87.5007 38.5801 87.1133H38.5186L38.3682 88.1113H37.5137V77.4746H38.5664ZM40.0156 81.4053C39.6328 81.4053 39.3366 81.5283 39.127 81.7744C38.9173 82.016 38.7715 82.3486 38.6895 82.7725C38.6074 83.1963 38.5664 83.6794 38.5664 84.2217V84.543C38.5664 85.4909 38.6872 86.195 38.9287 86.6553C39.1748 87.111 39.5394 87.3389 40.0225 87.3389C40.4691 87.3389 40.8018 87.0951 41.0205 86.6074C41.2393 86.1198 41.3486 85.361 41.3486 84.3311C41.3486 83.3649 41.2415 82.6357 41.0273 82.1436C40.8177 81.6514 40.4805 81.4053 40.0156 81.4053ZM49.6406 88.1113H48.5605V81.248C48.5605 81.0475 48.5628 80.847 48.5674 80.6465C48.5719 80.4414 48.5788 80.234 48.5879 80.0244C48.597 79.8148 48.6061 79.6051 48.6152 79.3955C48.556 79.4821 48.4762 79.5801 48.376 79.6895C48.2757 79.7988 48.1504 79.9264 48 80.0723L47.1113 80.9336L46.4961 80.2637L48.7109 78.1172H49.6406V88.1113ZM55.6016 88.1113H54.5215V81.248C54.5215 81.0475 54.5238 80.847 54.5283 80.6465C54.5329 80.4414 54.5397 80.234 54.5488 80.0244C54.5579 79.8148 54.5671 79.6051 54.5762 79.3955C54.5169 79.4821 54.4372 79.5801 54.3369 79.6895C54.2367 79.7988 54.1113 79.9264 53.9609 80.0723L53.0723 80.9336L52.457 80.2637L54.6719 78.1172H55.6016V88.1113ZM58.377 87.373C58.377 87.0996 58.4362 86.89 58.5547 86.7441C58.6732 86.5983 58.8509 86.5254 59.0879 86.5254C59.3112 86.5254 59.4844 86.5938 59.6074 86.7305C59.735 86.8626 59.7988 87.0768 59.7988 87.373C59.7988 87.6647 59.7327 87.8812 59.6006 88.0225C59.473 88.1592 59.3021 88.2275 59.0879 88.2275C58.8509 88.2275 58.6732 88.1546 58.5547 88.0088C58.4362 87.863 58.377 87.651 58.377 87.373ZM58.377 81.4189C58.377 81.1364 58.4362 80.9245 58.5547 80.7832C58.6732 80.6374 58.8509 80.5645 59.0879 80.5645C59.3203 80.5645 59.4958 80.6351 59.6143 80.7764C59.7373 80.9176 59.7988 81.1296 59.7988 81.4121C59.7988 81.7038 59.7327 81.9225 59.6006 82.0684C59.4684 82.2096 59.2975 82.2803 59.0879 82.2803C58.8555 82.2803 58.6777 82.2074 58.5547 82.0615C58.4362 81.9111 58.377 81.6969 58.377 81.4189ZM63.5586 81.9863C64.069 81.9863 64.5042 82.1094 64.8643 82.3555C65.2243 82.6016 65.5 82.9434 65.6914 83.3809C65.8828 83.8184 65.9785 84.3265 65.9785 84.9053C65.9785 85.5661 65.8691 86.1471 65.6504 86.6484C65.4362 87.1497 65.1195 87.5417 64.7002 87.8242C64.2809 88.1068 63.7614 88.248 63.1416 88.248C62.7633 88.248 62.4238 88.2116 62.123 88.1387C61.8223 88.0703 61.5579 87.9678 61.3301 87.8311V86.751C61.5853 86.9196 61.861 87.054 62.1572 87.1543C62.458 87.2546 62.7588 87.3047 63.0596 87.3047C63.4743 87.3047 63.8138 87.1976 64.0781 86.9834C64.347 86.7646 64.5475 86.4775 64.6797 86.1221C64.8118 85.762 64.8779 85.3678 64.8779 84.9395C64.8779 84.2786 64.7321 83.7751 64.4404 83.4287C64.1533 83.0824 63.7386 82.9092 63.1963 82.9092C62.9684 82.9092 62.7428 82.932 62.5195 82.9775C62.2962 83.0186 62.0729 83.0732 61.8496 83.1416L61.4189 82.7246L61.7197 78.1172H65.4453V79.1016H62.6221L62.417 82.123C62.6084 82.0775 62.7998 82.0433 62.9912 82.0205C63.1872 81.9977 63.3763 81.9863 63.5586 81.9863ZM71.8779 82.2939C71.8779 83.0596 71.8369 83.7568 71.7549 84.3857C71.6729 85.0101 71.5475 85.5638 71.3789 86.0469C71.2103 86.5254 70.9961 86.9287 70.7363 87.2568C70.4811 87.5804 70.1781 87.8265 69.8271 87.9951C69.4808 88.1637 69.0866 88.248 68.6445 88.248C68.4759 88.248 68.2868 88.2321 68.0771 88.2002C67.8721 88.1729 67.7035 88.141 67.5713 88.1045V87.1201C67.7171 87.1748 67.8766 87.2181 68.0498 87.25C68.223 87.2773 68.4144 87.291 68.624 87.291C69.1481 87.291 69.5674 87.1064 69.8818 86.7373C70.2008 86.3636 70.4355 85.8714 70.5859 85.2607C70.7363 84.6501 70.8206 83.987 70.8389 83.2715H70.791C70.6953 83.4948 70.5723 83.693 70.4219 83.8662C70.2715 84.0394 70.0938 84.1761 69.8887 84.2764C69.6836 84.3721 69.4535 84.4199 69.1982 84.4199C68.7288 84.4199 68.3415 84.2809 68.0361 84.0029C67.7308 83.7249 67.5029 83.349 67.3525 82.875C67.2067 82.3965 67.1338 81.8633 67.1338 81.2754C67.1338 80.6465 67.2204 80.0837 67.3936 79.5869C67.5667 79.0856 67.8265 78.6914 68.1729 78.4043C68.5238 78.1172 68.9658 77.9736 69.499 77.9736C69.8864 77.9736 70.2282 78.0693 70.5244 78.2607C70.8206 78.4476 71.069 78.7256 71.2695 79.0947C71.4701 79.4593 71.6204 79.9105 71.7207 80.4482C71.8255 80.9814 71.8779 81.5967 71.8779 82.2939ZM69.4922 78.9512C69.0729 78.9512 68.7562 79.1426 68.542 79.5254C68.3278 79.9036 68.2207 80.4779 68.2207 81.248C68.2207 81.9635 68.3232 82.5127 68.5283 82.8955C68.7334 83.2738 69.0433 83.4629 69.458 83.4629C69.7588 83.4629 70.0072 83.374 70.2031 83.1963C70.3991 83.014 70.5449 82.7793 70.6406 82.4922C70.7363 82.2051 70.7842 81.8975 70.7842 81.5693C70.7842 81.3278 70.766 81.0589 70.7295 80.7627C70.693 80.4619 70.6292 80.1748 70.5381 79.9014C70.4469 79.6234 70.3171 79.3955 70.1484 79.2178C69.9798 79.04 69.7611 78.9512 69.4922 78.9512ZM73.416 87.373C73.416 87.0996 73.4753 86.89 73.5938 86.7441C73.7122 86.5983 73.89 86.5254 74.127 86.5254C74.3503 86.5254 74.5234 86.5938 74.6465 86.7305C74.7741 86.8626 74.8379 87.0768 74.8379 87.373C74.8379 87.6647 74.7718 87.8812 74.6396 88.0225C74.512 88.1592 74.3411 88.2275 74.127 88.2275C73.89 88.2275 73.7122 88.1546 73.5938 88.0088C73.4753 87.863 73.416 87.651 73.416 87.373ZM73.416 81.4189C73.416 81.1364 73.4753 80.9245 73.5938 80.7832C73.7122 80.6374 73.89 80.5645 74.127 80.5645C74.3594 80.5645 74.5348 80.6351 74.6533 80.7764C74.7764 80.9176 74.8379 81.1296 74.8379 81.4121C74.8379 81.7038 74.7718 81.9225 74.6396 82.0684C74.5075 82.2096 74.3366 82.2803 74.127 82.2803C73.8945 82.2803 73.7168 82.2074 73.5938 82.0615C73.4753 81.9111 73.416 81.6969 73.416 81.4189ZM81.4482 85.9102H80.3887V88.1113H79.3223V85.9102H75.918V85.0215L79.2334 78.0352H80.3887V84.9873H81.4482V85.9102ZM79.3223 84.9873V80.9541C79.3223 80.8493 79.3245 80.7308 79.3291 80.5986C79.3337 80.4665 79.3382 80.332 79.3428 80.1953C79.3473 80.054 79.3519 79.9196 79.3564 79.792C79.361 79.6644 79.3656 79.5527 79.3701 79.457H79.3223C79.2493 79.6758 79.1696 79.8877 79.083 80.0928C79.001 80.2979 78.9189 80.4961 78.8369 80.6875L76.8818 84.9873H79.3223ZM87.0059 83.1143C87.0059 83.9163 86.9603 84.6341 86.8691 85.2676C86.7826 85.901 86.6436 86.4388 86.4521 86.8809C86.2607 87.3229 86.0124 87.6602 85.707 87.8926C85.4062 88.125 85.0439 88.2412 84.6201 88.2412C84.1143 88.2412 83.6836 88.0863 83.3281 87.7764C82.9727 87.4619 82.6992 86.9333 82.5078 86.1904C82.321 85.443 82.2275 84.4176 82.2275 83.1143C82.2275 81.9749 82.3141 81.0247 82.4873 80.2637C82.665 79.5026 82.9294 78.9307 83.2803 78.5479C83.6357 78.165 84.0824 77.9736 84.6201 77.9736C85.167 77.9736 85.6159 78.1673 85.9668 78.5547C86.3177 78.9375 86.5775 79.5094 86.7461 80.2705C86.9193 81.0316 87.0059 81.9795 87.0059 83.1143ZM83.3281 83.1143C83.3281 84.0303 83.3714 84.7959 83.458 85.4111C83.5446 86.0218 83.6836 86.4821 83.875 86.792C84.0664 87.1019 84.3148 87.2568 84.6201 87.2568C84.9255 87.2568 85.1738 87.1019 85.3652 86.792C85.5566 86.4775 85.6956 86.0127 85.7822 85.3975C85.8734 84.7822 85.9189 84.0212 85.9189 83.1143C85.9189 82.2074 85.8734 81.4463 85.7822 80.8311C85.6911 80.2158 85.5498 79.751 85.3584 79.4365C85.1715 79.1221 84.9255 78.9648 84.6201 78.9648C84.3148 78.9648 84.0664 79.1198 83.875 79.4297C83.6836 79.7396 83.5446 80.2021 83.458 80.8174C83.3714 81.4281 83.3281 82.1937 83.3281 83.1143Z" fill="#27302B"/>
<path d="M239.741 78.1172C240.416 78.1172 240.972 78.2197 241.409 78.4248C241.847 78.6253 242.173 78.9329 242.387 79.3477C242.601 79.7578 242.708 80.2773 242.708 80.9062C242.708 81.3529 242.653 81.7516 242.544 82.1025C242.435 82.4535 242.266 82.7542 242.038 83.0049C241.81 83.2555 241.514 83.4606 241.149 83.6201L243.18 88.1113H241.97L240.165 83.8936H239.119V88.1113H238.032V78.1172H239.741ZM239.748 79.1016H239.119V82.9775H239.898C240.441 82.9775 240.858 82.8112 241.149 82.4785C241.446 82.1413 241.594 81.6354 241.594 80.9609C241.594 80.3047 241.446 79.8307 241.149 79.5391C240.853 79.2474 240.386 79.1016 239.748 79.1016ZM247.671 82.875H250.207V87.7627C249.801 87.9222 249.382 88.043 248.949 88.125C248.516 88.207 248.079 88.248 247.637 88.248C246.821 88.248 246.149 88.0247 245.62 87.5781C245.096 87.127 244.706 86.514 244.451 85.7393C244.201 84.96 244.075 84.0781 244.075 83.0938C244.075 82.0957 244.212 81.2116 244.485 80.4414C244.763 79.6712 245.18 79.0674 245.736 78.6299C246.297 78.1924 246.999 77.9736 247.842 77.9736C248.252 77.9736 248.646 78.0283 249.024 78.1377C249.403 78.2425 249.758 78.402 250.091 78.6162L249.701 79.5391C249.391 79.3385 249.084 79.1904 248.778 79.0947C248.478 78.999 248.172 78.9512 247.862 78.9512C247.284 78.9512 246.798 79.113 246.406 79.4365C246.014 79.7601 245.718 80.2318 245.518 80.8516C245.317 81.4714 245.217 82.2279 245.217 83.1211C245.217 83.9049 245.301 84.6113 245.47 85.2402C245.643 85.8646 245.914 86.359 246.283 86.7236C246.652 87.0837 247.133 87.2637 247.726 87.2637C247.99 87.2637 248.241 87.2454 248.478 87.209C248.719 87.168 248.942 87.111 249.147 87.0381V83.8525H247.671V82.875ZM251.991 78.1172H254.172C255.042 78.1172 255.701 78.3154 256.147 78.7119C256.594 79.1084 256.817 79.7077 256.817 80.5098C256.817 80.9382 256.763 81.3141 256.653 81.6377C256.544 81.9567 256.382 82.2165 256.168 82.417C255.958 82.6175 255.696 82.752 255.382 82.8203V82.875C255.756 82.9616 256.063 83.1074 256.305 83.3125C256.546 83.5176 256.726 83.7819 256.845 84.1055C256.963 84.4245 257.022 84.8073 257.022 85.2539C257.022 85.8281 256.924 86.3294 256.729 86.7578C256.533 87.1862 256.245 87.5189 255.867 87.7559C255.493 87.9928 255.035 88.1113 254.493 88.1113H251.991V78.1172ZM253.078 82.4238H254.158C254.701 82.4238 255.095 82.2734 255.341 81.9727C255.587 81.6673 255.71 81.2116 255.71 80.6055C255.71 80.0996 255.58 79.7145 255.32 79.4502C255.061 79.1813 254.666 79.0469 254.138 79.0469H253.078V82.4238ZM253.078 83.3535V87.1611H254.37C254.871 87.1611 255.25 86.9993 255.505 86.6758C255.765 86.3477 255.895 85.8555 255.895 85.1992C255.895 84.7891 255.828 84.4473 255.696 84.1738C255.564 83.9004 255.375 83.6953 255.129 83.5586C254.883 83.4219 254.587 83.3535 254.24 83.3535H253.078ZM265.465 88.1113H260.652V87.3115L262.628 84.3994C263.015 83.8298 263.321 83.3376 263.544 82.9229C263.772 82.5081 263.934 82.1162 264.029 81.7471C264.13 81.3734 264.18 80.9678 264.18 80.5303C264.18 80.0426 264.061 79.6576 263.824 79.375C263.592 79.0924 263.257 78.9512 262.819 78.9512C262.528 78.9512 262.261 79.0036 262.02 79.1084C261.783 79.2132 261.539 79.3864 261.288 79.6279L260.734 78.876C260.962 78.6618 261.188 78.4886 261.411 78.3564C261.634 78.2243 261.867 78.1286 262.108 78.0693C262.354 78.0055 262.621 77.9736 262.908 77.9736C263.4 77.9736 263.822 78.0785 264.173 78.2881C264.528 78.4977 264.799 78.7917 264.986 79.1699C265.173 79.5482 265.267 79.988 265.267 80.4893C265.267 81.0225 265.205 81.5124 265.082 81.959C264.959 82.4056 264.772 82.8499 264.521 83.292C264.275 83.7295 263.963 84.208 263.585 84.7275L261.924 87.0859V87.1338H265.465V88.1113ZM270.168 88.1113H269.088V81.248C269.088 81.0475 269.09 80.847 269.095 80.6465C269.099 80.4414 269.106 80.234 269.115 80.0244C269.124 79.8148 269.133 79.6051 269.143 79.3955C269.083 79.4821 269.004 79.5801 268.903 79.6895C268.803 79.7988 268.678 79.9264 268.527 80.0723L267.639 80.9336L267.023 80.2637L269.238 78.1172H270.168V88.1113ZM276.129 88.1113H275.049V81.248C275.049 81.0475 275.051 80.847 275.056 80.6465C275.06 80.4414 275.067 80.234 275.076 80.0244C275.085 79.8148 275.094 79.6051 275.104 79.3955C275.044 79.4821 274.965 79.5801 274.864 79.6895C274.764 79.7988 274.639 79.9264 274.488 80.0723L273.6 80.9336L272.984 80.2637L275.199 78.1172H276.129V88.1113ZM278.904 87.373C278.904 87.0996 278.964 86.89 279.082 86.7441C279.201 86.5983 279.378 86.5254 279.615 86.5254C279.839 86.5254 280.012 86.5938 280.135 86.7305C280.262 86.8626 280.326 87.0768 280.326 87.373C280.326 87.6647 280.26 87.8812 280.128 88.0225C280 88.1592 279.829 88.2275 279.615 88.2275C279.378 88.2275 279.201 88.1546 279.082 88.0088C278.964 87.863 278.904 87.651 278.904 87.373ZM278.904 81.4189C278.904 81.1364 278.964 80.9245 279.082 80.7832C279.201 80.6374 279.378 80.5645 279.615 80.5645C279.848 80.5645 280.023 80.6351 280.142 80.7764C280.265 80.9176 280.326 81.1296 280.326 81.4121C280.326 81.7038 280.26 81.9225 280.128 82.0684C279.996 82.2096 279.825 82.2803 279.615 82.2803C279.383 82.2803 279.205 82.2074 279.082 82.0615C278.964 81.9111 278.904 81.6969 278.904 81.4189ZM286.465 88.1113H281.652V87.3115L283.628 84.3994C284.015 83.8298 284.321 83.3376 284.544 82.9229C284.772 82.5081 284.934 82.1162 285.029 81.7471C285.13 81.3734 285.18 80.9678 285.18 80.5303C285.18 80.0426 285.061 79.6576 284.824 79.375C284.592 79.0924 284.257 78.9512 283.819 78.9512C283.528 78.9512 283.261 79.0036 283.02 79.1084C282.783 79.2132 282.539 79.3864 282.288 79.6279L281.734 78.876C281.962 78.6618 282.188 78.4886 282.411 78.3564C282.634 78.2243 282.867 78.1286 283.108 78.0693C283.354 78.0055 283.621 77.9736 283.908 77.9736C284.4 77.9736 284.822 78.0785 285.173 78.2881C285.528 78.4977 285.799 78.7917 285.986 79.1699C286.173 79.5482 286.267 79.988 286.267 80.4893C286.267 81.0225 286.205 81.5124 286.082 81.959C285.959 82.4056 285.772 82.8499 285.521 83.292C285.275 83.7295 284.963 84.208 284.585 84.7275L282.924 87.0859V87.1338H286.465V88.1113ZM292.494 83.1143C292.494 83.9163 292.449 84.6341 292.357 85.2676C292.271 85.901 292.132 86.4388 291.94 86.8809C291.749 87.3229 291.501 87.6602 291.195 87.8926C290.895 88.125 290.532 88.2412 290.108 88.2412C289.603 88.2412 289.172 88.0863 288.816 87.7764C288.461 87.4619 288.188 86.9333 287.996 86.1904C287.809 85.443 287.716 84.4176 287.716 83.1143C287.716 81.9749 287.802 81.0247 287.976 80.2637C288.153 79.5026 288.418 78.9307 288.769 78.5479C289.124 78.165 289.571 77.9736 290.108 77.9736C290.655 77.9736 291.104 78.1673 291.455 78.5547C291.806 78.9375 292.066 79.5094 292.234 80.2705C292.408 81.0316 292.494 81.9795 292.494 83.1143ZM288.816 83.1143C288.816 84.0303 288.86 84.7959 288.946 85.4111C289.033 86.0218 289.172 86.4821 289.363 86.792C289.555 87.1019 289.803 87.2568 290.108 87.2568C290.414 87.2568 290.662 87.1019 290.854 86.792C291.045 86.4775 291.184 86.0127 291.271 85.3975C291.362 84.7822 291.407 84.0212 291.407 83.1143C291.407 82.2074 291.362 81.4463 291.271 80.8311C291.179 80.2158 291.038 79.751 290.847 79.4365C290.66 79.1221 290.414 78.9648 290.108 78.9648C289.803 78.9648 289.555 79.1198 289.363 79.4297C289.172 79.7396 289.033 80.2021 288.946 80.8174C288.86 81.4281 288.816 82.1937 288.816 83.1143ZM293.718 83.8594C293.718 83.1029 293.757 82.4147 293.834 81.7949C293.916 81.1751 294.037 80.6283 294.196 80.1543C294.36 79.6803 294.57 79.2816 294.825 78.958C295.08 78.6344 295.381 78.3906 295.728 78.2266C296.078 78.0625 296.479 77.9805 296.931 77.9805C297.127 77.9805 297.311 77.9941 297.484 78.0215C297.662 78.0443 297.822 78.0807 297.963 78.1309V79.0947C297.817 79.0446 297.66 79.0081 297.491 78.9854C297.327 78.958 297.152 78.9443 296.965 78.9443C296.509 78.9443 296.119 79.0947 295.796 79.3955C295.477 79.6963 295.231 80.1452 295.058 80.7422C294.884 81.3346 294.784 82.0752 294.757 82.9639H294.812C294.907 82.736 295.03 82.5355 295.181 82.3623C295.331 82.1891 295.509 82.0547 295.714 81.959C295.924 81.8587 296.156 81.8086 296.411 81.8086C296.876 81.8086 297.259 81.9499 297.56 82.2324C297.865 82.5104 298.093 82.8864 298.243 83.3604C298.394 83.8343 298.469 84.3675 298.469 84.96C298.469 85.5889 298.382 86.1517 298.209 86.6484C298.04 87.1452 297.785 87.5371 297.443 87.8242C297.102 88.1113 296.675 88.2549 296.165 88.2549C295.769 88.2549 295.418 88.1592 295.112 87.9678C294.807 87.7764 294.549 87.4961 294.34 87.127C294.135 86.7533 293.98 86.293 293.875 85.7461C293.77 85.1992 293.718 84.5703 293.718 83.8594ZM296.151 87.2842C296.543 87.2842 296.849 87.0928 297.067 86.71C297.286 86.3271 297.396 85.7507 297.396 84.9805C297.396 84.2604 297.293 83.7135 297.088 83.3398C296.883 82.9616 296.573 82.7725 296.158 82.7725C295.867 82.7725 295.62 82.8568 295.42 83.0254C295.224 83.1895 295.076 83.4082 294.976 83.6816C294.875 83.9505 294.825 84.2467 294.825 84.5703C294.825 84.8529 294.848 85.1514 294.894 85.4658C294.939 85.7803 295.012 86.0765 295.112 86.3545C295.213 86.6279 295.347 86.8512 295.516 87.0244C295.689 87.1976 295.901 87.2842 296.151 87.2842ZM299.904 87.373C299.904 87.0996 299.964 86.89 300.082 86.7441C300.201 86.5983 300.378 86.5254 300.615 86.5254C300.839 86.5254 301.012 86.5938 301.135 86.7305C301.262 86.8626 301.326 87.0768 301.326 87.373C301.326 87.6647 301.26 87.8812 301.128 88.0225C301 88.1592 300.829 88.2275 300.615 88.2275C300.378 88.2275 300.201 88.1546 300.082 88.0088C299.964 87.863 299.904 87.651 299.904 87.373ZM299.904 81.4189C299.904 81.1364 299.964 80.9245 300.082 80.7832C300.201 80.6374 300.378 80.5645 300.615 80.5645C300.848 80.5645 301.023 80.6351 301.142 80.7764C301.265 80.9176 301.326 81.1296 301.326 81.4121C301.326 81.7038 301.26 81.9225 301.128 82.0684C300.996 82.2096 300.825 82.2803 300.615 82.2803C300.383 82.2803 300.205 82.2074 300.082 82.0615C299.964 81.9111 299.904 81.6969 299.904 81.4189ZM306.207 88.1113H305.127V81.248C305.127 81.0475 305.129 80.847 305.134 80.6465C305.138 80.4414 305.145 80.234 305.154 80.0244C305.163 79.8148 305.173 79.6051 305.182 79.3955C305.122 79.4821 305.043 79.5801 304.942 79.6895C304.842 79.7988 304.717 79.9264 304.566 80.0723L303.678 80.9336L303.062 80.2637L305.277 78.1172H306.207V88.1113ZM313.405 82.2939C313.405 83.0596 313.364 83.7568 313.282 84.3857C313.2 85.0101 313.075 85.5638 312.906 86.0469C312.738 86.5254 312.523 86.9287 312.264 87.2568C312.008 87.5804 311.705 87.8265 311.354 87.9951C311.008 88.1637 310.614 88.248 310.172 88.248C310.003 88.248 309.814 88.2321 309.604 88.2002C309.399 88.1729 309.231 88.141 309.099 88.1045V87.1201C309.244 87.1748 309.404 87.2181 309.577 87.25C309.75 87.2773 309.942 87.291 310.151 87.291C310.675 87.291 311.095 87.1064 311.409 86.7373C311.728 86.3636 311.963 85.8714 312.113 85.2607C312.264 84.6501 312.348 83.987 312.366 83.2715H312.318C312.223 83.4948 312.1 83.693 311.949 83.8662C311.799 84.0394 311.621 84.1761 311.416 84.2764C311.211 84.3721 310.981 84.4199 310.726 84.4199C310.256 84.4199 309.869 84.2809 309.563 84.0029C309.258 83.7249 309.03 83.349 308.88 82.875C308.734 82.3965 308.661 81.8633 308.661 81.2754C308.661 80.6465 308.748 80.0837 308.921 79.5869C309.094 79.0856 309.354 78.6914 309.7 78.4043C310.051 78.1172 310.493 77.9736 311.026 77.9736C311.414 77.9736 311.756 78.0693 312.052 78.2607C312.348 78.4476 312.596 78.7256 312.797 79.0947C312.997 79.4593 313.148 79.9105 313.248 80.4482C313.353 80.9814 313.405 81.5967 313.405 82.2939ZM311.02 78.9512C310.6 78.9512 310.284 79.1426 310.069 79.5254C309.855 79.9036 309.748 80.4779 309.748 81.248C309.748 81.9635 309.851 82.5127 310.056 82.8955C310.261 83.2738 310.571 83.4629 310.985 83.4629C311.286 83.4629 311.535 83.374 311.73 83.1963C311.926 83.014 312.072 82.7793 312.168 82.4922C312.264 82.2051 312.312 81.8975 312.312 81.5693C312.312 81.3278 312.293 81.0589 312.257 80.7627C312.22 80.4619 312.157 80.1748 312.065 79.9014C311.974 79.6234 311.844 79.3955 311.676 79.2178C311.507 79.04 311.288 78.9512 311.02 78.9512ZM314.718 83.8594C314.718 83.1029 314.757 82.4147 314.834 81.7949C314.916 81.1751 315.037 80.6283 315.196 80.1543C315.36 79.6803 315.57 79.2816 315.825 78.958C316.08 78.6344 316.381 78.3906 316.728 78.2266C317.078 78.0625 317.479 77.9805 317.931 77.9805C318.127 77.9805 318.311 77.9941 318.484 78.0215C318.662 78.0443 318.822 78.0807 318.963 78.1309V79.0947C318.817 79.0446 318.66 79.0081 318.491 78.9854C318.327 78.958 318.152 78.9443 317.965 78.9443C317.509 78.9443 317.119 79.0947 316.796 79.3955C316.477 79.6963 316.231 80.1452 316.058 80.7422C315.884 81.3346 315.784 82.0752 315.757 82.9639H315.812C315.907 82.736 316.03 82.5355 316.181 82.3623C316.331 82.1891 316.509 82.0547 316.714 81.959C316.924 81.8587 317.156 81.8086 317.411 81.8086C317.876 81.8086 318.259 81.9499 318.56 82.2324C318.865 82.5104 319.093 82.8864 319.243 83.3604C319.394 83.8343 319.469 84.3675 319.469 84.96C319.469 85.5889 319.382 86.1517 319.209 86.6484C319.04 87.1452 318.785 87.5371 318.443 87.8242C318.102 88.1113 317.675 88.2549 317.165 88.2549C316.769 88.2549 316.418 88.1592 316.112 87.9678C315.807 87.7764 315.549 87.4961 315.34 87.127C315.135 86.7533 314.98 86.293 314.875 85.7461C314.77 85.1992 314.718 84.5703 314.718 83.8594ZM317.151 87.2842C317.543 87.2842 317.849 87.0928 318.067 86.71C318.286 86.3271 318.396 85.7507 318.396 84.9805C318.396 84.2604 318.293 83.7135 318.088 83.3398C317.883 82.9616 317.573 82.7725 317.158 82.7725C316.867 82.7725 316.62 82.8568 316.42 83.0254C316.224 83.1895 316.076 83.4082 315.976 83.6816C315.875 83.9505 315.825 84.2467 315.825 84.5703C315.825 84.8529 315.848 85.1514 315.894 85.4658C315.939 85.7803 316.012 86.0765 316.112 86.3545C316.213 86.6279 316.347 86.8512 316.516 87.0244C316.689 87.1976 316.901 87.2842 317.151 87.2842Z" fill="#1D2621"/>
<path d="M31.8809 162.774L31.5938 165.194H32.8174V166.049H31.498L31.1084 169.111H30.2881L30.6709 166.049H29.2354L28.873 169.111H28.0732L28.4355 166.049H27.2666V165.194H28.5381L28.8252 162.774H27.5879V161.94H28.9346L29.2695 159.117H30.0898L29.7412 161.94H31.1699L31.5254 159.117H32.3184L31.9697 161.94H33.1387V162.774H31.8809ZM29.3447 165.194H30.7734L31.0742 162.774H29.6387L29.3447 165.194ZM38.498 161.407C38.498 161.808 38.4342 162.171 38.3066 162.494C38.179 162.818 37.9922 163.096 37.7461 163.328C37.5046 163.556 37.2061 163.734 36.8506 163.861V163.916C37.4339 164.044 37.8805 164.322 38.1904 164.75C38.5049 165.174 38.6621 165.721 38.6621 166.391C38.6621 166.956 38.555 167.455 38.3408 167.888C38.1312 168.316 37.8236 168.651 37.418 168.893C37.0169 169.13 36.527 169.248 35.9482 169.248C35.5472 169.248 35.1826 169.216 34.8545 169.152C34.5309 169.089 34.221 168.986 33.9248 168.845V167.765C34.2165 167.938 34.5264 168.072 34.8545 168.168C35.1826 168.259 35.513 168.305 35.8457 168.305C36.4199 168.305 36.8438 168.122 37.1172 167.758C37.3952 167.393 37.5342 166.919 37.5342 166.336C37.5342 165.917 37.4567 165.566 37.3018 165.283C37.1468 164.996 36.9167 164.782 36.6113 164.641C36.306 164.495 35.9277 164.422 35.4766 164.422H34.9639V163.479H35.5176C35.9095 163.479 36.2467 163.396 36.5293 163.232C36.8164 163.068 37.0374 162.84 37.1924 162.549C37.3473 162.253 37.4248 161.909 37.4248 161.517C37.4248 161.011 37.304 160.619 37.0625 160.341C36.821 160.063 36.4792 159.924 36.0371 159.924C35.8184 159.924 35.6178 159.951 35.4355 160.006C35.2533 160.061 35.0778 160.14 34.9092 160.245C34.7451 160.35 34.5765 160.48 34.4033 160.635L33.877 159.883C34.2279 159.559 34.5856 159.327 34.9502 159.186C35.3148 159.044 35.7227 158.974 36.1738 158.974C36.8939 158.974 37.4613 159.192 37.876 159.63C38.2907 160.063 38.498 160.655 38.498 161.407ZM44.6162 163.294C44.6162 164.06 44.5752 164.757 44.4932 165.386C44.4111 166.01 44.2858 166.564 44.1172 167.047C43.9486 167.525 43.7344 167.929 43.4746 168.257C43.2194 168.58 42.9163 168.826 42.5654 168.995C42.2191 169.164 41.8249 169.248 41.3828 169.248C41.2142 169.248 41.0251 169.232 40.8154 169.2C40.6104 169.173 40.4417 169.141 40.3096 169.104V168.12C40.4554 168.175 40.6149 168.218 40.7881 168.25C40.9613 168.277 41.1527 168.291 41.3623 168.291C41.8864 168.291 42.3057 168.106 42.6201 167.737C42.9391 167.364 43.1738 166.871 43.3242 166.261C43.4746 165.65 43.5589 164.987 43.5771 164.271H43.5293C43.4336 164.495 43.3105 164.693 43.1602 164.866C43.0098 165.039 42.832 165.176 42.627 165.276C42.4219 165.372 42.1917 165.42 41.9365 165.42C41.4671 165.42 41.0798 165.281 40.7744 165.003C40.4691 164.725 40.2412 164.349 40.0908 163.875C39.945 163.396 39.8721 162.863 39.8721 162.275C39.8721 161.646 39.9587 161.084 40.1318 160.587C40.305 160.086 40.5648 159.691 40.9111 159.404C41.262 159.117 41.7041 158.974 42.2373 158.974C42.6247 158.974 42.9665 159.069 43.2627 159.261C43.5589 159.448 43.8073 159.726 44.0078 160.095C44.2083 160.459 44.3587 160.91 44.459 161.448C44.5638 161.981 44.6162 162.597 44.6162 163.294ZM42.2305 159.951C41.8112 159.951 41.4945 160.143 41.2803 160.525C41.0661 160.904 40.959 161.478 40.959 162.248C40.959 162.964 41.0615 163.513 41.2666 163.896C41.4717 164.274 41.7816 164.463 42.1963 164.463C42.4971 164.463 42.7454 164.374 42.9414 164.196C43.1374 164.014 43.2832 163.779 43.3789 163.492C43.4746 163.205 43.5225 162.897 43.5225 162.569C43.5225 162.328 43.5042 162.059 43.4678 161.763C43.4313 161.462 43.3675 161.175 43.2764 160.901C43.1852 160.623 43.0553 160.396 42.8867 160.218C42.7181 160.04 42.4993 159.951 42.2305 159.951ZM46.1543 168.373C46.1543 168.1 46.2135 167.89 46.332 167.744C46.4505 167.598 46.6283 167.525 46.8652 167.525C47.0885 167.525 47.2617 167.594 47.3848 167.73C47.5124 167.863 47.5762 168.077 47.5762 168.373C47.5762 168.665 47.5101 168.881 47.3779 169.022C47.2503 169.159 47.0794 169.228 46.8652 169.228C46.6283 169.228 46.4505 169.155 46.332 169.009C46.2135 168.863 46.1543 168.651 46.1543 168.373ZM46.1543 162.419C46.1543 162.136 46.2135 161.924 46.332 161.783C46.4505 161.637 46.6283 161.564 46.8652 161.564C47.0977 161.564 47.2731 161.635 47.3916 161.776C47.5146 161.918 47.5762 162.13 47.5762 162.412C47.5762 162.704 47.5101 162.923 47.3779 163.068C47.2458 163.21 47.0749 163.28 46.8652 163.28C46.6328 163.28 46.4551 163.207 46.332 163.062C46.2135 162.911 46.1543 162.697 46.1543 162.419ZM54.1865 166.91H53.127V169.111H52.0605V166.91H48.6562V166.021L51.9717 159.035H53.127V165.987H54.1865V166.91ZM52.0605 165.987V161.954C52.0605 161.849 52.0628 161.731 52.0674 161.599C52.0719 161.466 52.0765 161.332 52.0811 161.195C52.0856 161.054 52.0902 160.92 52.0947 160.792C52.0993 160.664 52.1038 160.553 52.1084 160.457H52.0605C51.9876 160.676 51.9079 160.888 51.8213 161.093C51.7393 161.298 51.6572 161.496 51.5752 161.688L49.6201 165.987H52.0605ZM57.3789 158.974C57.8529 158.974 58.2585 159.069 58.5957 159.261C58.9329 159.452 59.1904 159.721 59.3682 160.067C59.5505 160.414 59.6416 160.824 59.6416 161.298C59.6416 161.672 59.5824 162.016 59.4639 162.33C59.3499 162.64 59.1768 162.925 58.9443 163.185C58.7119 163.44 58.4202 163.672 58.0693 163.882C58.4248 164.119 58.737 164.367 59.0059 164.627C59.2747 164.887 59.4844 165.176 59.6348 165.495C59.7897 165.814 59.8672 166.179 59.8672 166.589C59.8672 167.113 59.7669 167.576 59.5664 167.977C59.3659 168.373 59.0811 168.685 58.7119 168.913C58.3473 169.136 57.9167 169.248 57.4199 169.248C56.8822 169.248 56.4219 169.141 56.0391 168.927C55.6562 168.713 55.3646 168.412 55.1641 168.024C54.9635 167.632 54.8633 167.177 54.8633 166.657C54.8633 166.256 54.9248 165.892 55.0479 165.563C55.1709 165.231 55.3555 164.928 55.6016 164.654C55.8522 164.381 56.1621 164.126 56.5312 163.889C56.2122 163.647 55.9456 163.392 55.7314 163.123C55.5218 162.854 55.3646 162.569 55.2598 162.269C55.1549 161.968 55.1025 161.649 55.1025 161.312C55.1025 160.842 55.196 160.432 55.3828 160.081C55.5697 159.73 55.834 159.459 56.1758 159.268C56.5176 159.072 56.9186 158.974 57.3789 158.974ZM55.9297 166.664C55.9297 167.152 56.055 167.553 56.3057 167.867C56.5563 168.182 56.9095 168.339 57.3652 168.339C57.8346 168.339 58.1901 168.177 58.4316 167.854C58.6732 167.525 58.7939 167.106 58.7939 166.596C58.7939 166.35 58.7507 166.113 58.6641 165.885C58.5775 165.652 58.4408 165.429 58.2539 165.215C58.0716 164.996 57.8324 164.784 57.5361 164.579L57.2627 164.388C56.9482 164.593 56.693 164.807 56.4971 165.03C56.3011 165.249 56.1576 165.491 56.0664 165.755C55.9753 166.019 55.9297 166.322 55.9297 166.664ZM57.3584 159.89C56.9893 159.89 56.6953 160.022 56.4766 160.286C56.2578 160.55 56.1484 160.915 56.1484 161.38C56.1484 161.667 56.194 161.927 56.2852 162.159C56.3763 162.387 56.5107 162.599 56.6885 162.795C56.8662 162.986 57.0872 163.173 57.3516 163.355C57.6387 163.173 57.8711 162.984 58.0488 162.788C58.2311 162.588 58.3656 162.373 58.4521 162.146C58.5387 161.913 58.582 161.658 58.582 161.38C58.582 160.915 58.4749 160.55 58.2607 160.286C58.0465 160.022 57.7458 159.89 57.3584 159.89ZM61.1934 168.373C61.1934 168.1 61.2526 167.89 61.3711 167.744C61.4896 167.598 61.6673 167.525 61.9043 167.525C62.1276 167.525 62.3008 167.594 62.4238 167.73C62.5514 167.863 62.6152 168.077 62.6152 168.373C62.6152 168.665 62.5492 168.881 62.417 169.022C62.2894 169.159 62.1185 169.228 61.9043 169.228C61.6673 169.228 61.4896 169.155 61.3711 169.009C61.2526 168.863 61.1934 168.651 61.1934 168.373ZM61.1934 162.419C61.1934 162.136 61.2526 161.924 61.3711 161.783C61.4896 161.637 61.6673 161.564 61.9043 161.564C62.1367 161.564 62.3122 161.635 62.4307 161.776C62.5537 161.918 62.6152 162.13 62.6152 162.412C62.6152 162.704 62.5492 162.923 62.417 163.068C62.2848 163.21 62.1139 163.28 61.9043 163.28C61.6719 163.28 61.4941 163.207 61.3711 163.062C61.2526 162.911 61.1934 162.697 61.1934 162.419ZM69.2256 166.91H68.166V169.111H67.0996V166.91H63.6953V166.021L67.0107 159.035H68.166V165.987H69.2256V166.91ZM67.0996 165.987V161.954C67.0996 161.849 67.1019 161.731 67.1064 161.599C67.111 161.466 67.1156 161.332 67.1201 161.195C67.1247 161.054 67.1292 160.92 67.1338 160.792C67.1383 160.664 67.1429 160.553 67.1475 160.457H67.0996C67.0267 160.676 66.9469 160.888 66.8604 161.093C66.7783 161.298 66.6963 161.496 66.6143 161.688L64.6592 165.987H67.0996ZM74.5371 161.407C74.5371 161.808 74.4733 162.171 74.3457 162.494C74.2181 162.818 74.0312 163.096 73.7852 163.328C73.5436 163.556 73.2451 163.734 72.8896 163.861V163.916C73.473 164.044 73.9196 164.322 74.2295 164.75C74.5439 165.174 74.7012 165.721 74.7012 166.391C74.7012 166.956 74.5941 167.455 74.3799 167.888C74.1702 168.316 73.8626 168.651 73.457 168.893C73.056 169.13 72.5661 169.248 71.9873 169.248C71.5863 169.248 71.2217 169.216 70.8936 169.152C70.57 169.089 70.2601 168.986 69.9639 168.845V167.765C70.2555 167.938 70.5654 168.072 70.8936 168.168C71.2217 168.259 71.5521 168.305 71.8848 168.305C72.459 168.305 72.8828 168.122 73.1562 167.758C73.4342 167.393 73.5732 166.919 73.5732 166.336C73.5732 165.917 73.4958 165.566 73.3408 165.283C73.1859 164.996 72.9557 164.782 72.6504 164.641C72.3451 164.495 71.9668 164.422 71.5156 164.422H71.0029V163.479H71.5566C71.9486 163.479 72.2858 163.396 72.5684 163.232C72.8555 163.068 73.0765 162.84 73.2314 162.549C73.3864 162.253 73.4639 161.909 73.4639 161.517C73.4639 161.011 73.3431 160.619 73.1016 160.341C72.86 160.063 72.5182 159.924 72.0762 159.924C71.8574 159.924 71.6569 159.951 71.4746 160.006C71.2923 160.061 71.1169 160.14 70.9482 160.245C70.7842 160.35 70.6156 160.48 70.4424 160.635L69.916 159.883C70.2669 159.559 70.6247 159.327 70.9893 159.186C71.3538 159.044 71.7617 158.974 72.2129 158.974C72.9329 158.974 73.5003 159.192 73.915 159.63C74.3298 160.063 74.5371 160.655 74.5371 161.407Z" fill="#27302B"/>
<path d="M241.881 162.774L241.594 165.194H242.817V166.049H241.498L241.108 169.111H240.288L240.671 166.049H239.235L238.873 169.111H238.073L238.436 166.049H237.267V165.194H238.538L238.825 162.774H237.588V161.94H238.935L239.27 159.117H240.09L239.741 161.94H241.17L241.525 159.117H242.318L241.97 161.94H243.139V162.774H241.881ZM239.345 165.194H240.773L241.074 162.774H239.639L239.345 165.194ZM246.297 162.986C246.807 162.986 247.243 163.109 247.603 163.355C247.963 163.602 248.238 163.943 248.43 164.381C248.621 164.818 248.717 165.326 248.717 165.905C248.717 166.566 248.607 167.147 248.389 167.648C248.174 168.15 247.858 168.542 247.438 168.824C247.019 169.107 246.5 169.248 245.88 169.248C245.502 169.248 245.162 169.212 244.861 169.139C244.561 169.07 244.296 168.968 244.068 168.831V167.751C244.324 167.92 244.599 168.054 244.896 168.154C245.196 168.255 245.497 168.305 245.798 168.305C246.213 168.305 246.552 168.198 246.816 167.983C247.085 167.765 247.286 167.478 247.418 167.122C247.55 166.762 247.616 166.368 247.616 165.939C247.616 165.279 247.47 164.775 247.179 164.429C246.892 164.082 246.477 163.909 245.935 163.909C245.707 163.909 245.481 163.932 245.258 163.978C245.035 164.019 244.811 164.073 244.588 164.142L244.157 163.725L244.458 159.117H248.184V160.102H245.36L245.155 163.123C245.347 163.077 245.538 163.043 245.729 163.021C245.925 162.998 246.115 162.986 246.297 162.986ZM254.616 163.294C254.616 164.06 254.575 164.757 254.493 165.386C254.411 166.01 254.286 166.564 254.117 167.047C253.949 167.525 253.734 167.929 253.475 168.257C253.219 168.58 252.916 168.826 252.565 168.995C252.219 169.164 251.825 169.248 251.383 169.248C251.214 169.248 251.025 169.232 250.815 169.2C250.61 169.173 250.442 169.141 250.31 169.104V168.12C250.455 168.175 250.615 168.218 250.788 168.25C250.961 168.277 251.153 168.291 251.362 168.291C251.886 168.291 252.306 168.106 252.62 167.737C252.939 167.364 253.174 166.871 253.324 166.261C253.475 165.65 253.559 164.987 253.577 164.271H253.529C253.434 164.495 253.311 164.693 253.16 164.866C253.01 165.039 252.832 165.176 252.627 165.276C252.422 165.372 252.192 165.42 251.937 165.42C251.467 165.42 251.08 165.281 250.774 165.003C250.469 164.725 250.241 164.349 250.091 163.875C249.945 163.396 249.872 162.863 249.872 162.275C249.872 161.646 249.959 161.084 250.132 160.587C250.305 160.086 250.565 159.691 250.911 159.404C251.262 159.117 251.704 158.974 252.237 158.974C252.625 158.974 252.966 159.069 253.263 159.261C253.559 159.448 253.807 159.726 254.008 160.095C254.208 160.459 254.359 160.91 254.459 161.448C254.564 161.981 254.616 162.597 254.616 163.294ZM252.23 159.951C251.811 159.951 251.494 160.143 251.28 160.525C251.066 160.904 250.959 161.478 250.959 162.248C250.959 162.964 251.062 163.513 251.267 163.896C251.472 164.274 251.782 164.463 252.196 164.463C252.497 164.463 252.745 164.374 252.941 164.196C253.137 164.014 253.283 163.779 253.379 163.492C253.475 163.205 253.522 162.897 253.522 162.569C253.522 162.328 253.504 162.059 253.468 161.763C253.431 161.462 253.368 161.175 253.276 160.901C253.185 160.623 253.055 160.396 252.887 160.218C252.718 160.04 252.499 159.951 252.23 159.951ZM256.154 168.373C256.154 168.1 256.214 167.89 256.332 167.744C256.451 167.598 256.628 167.525 256.865 167.525C257.089 167.525 257.262 167.594 257.385 167.73C257.512 167.863 257.576 168.077 257.576 168.373C257.576 168.665 257.51 168.881 257.378 169.022C257.25 169.159 257.079 169.228 256.865 169.228C256.628 169.228 256.451 169.155 256.332 169.009C256.214 168.863 256.154 168.651 256.154 168.373ZM256.154 162.419C256.154 162.136 256.214 161.924 256.332 161.783C256.451 161.637 256.628 161.564 256.865 161.564C257.098 161.564 257.273 161.635 257.392 161.776C257.515 161.918 257.576 162.13 257.576 162.412C257.576 162.704 257.51 162.923 257.378 163.068C257.246 163.21 257.075 163.28 256.865 163.28C256.633 163.28 256.455 163.207 256.332 163.062C256.214 162.911 256.154 162.697 256.154 162.419ZM262.457 169.111H261.377V162.248C261.377 162.048 261.379 161.847 261.384 161.646C261.388 161.441 261.395 161.234 261.404 161.024C261.413 160.815 261.423 160.605 261.432 160.396C261.372 160.482 261.293 160.58 261.192 160.689C261.092 160.799 260.967 160.926 260.816 161.072L259.928 161.934L259.312 161.264L261.527 159.117H262.457V169.111ZM268.418 169.111H267.338V162.248C267.338 162.048 267.34 161.847 267.345 161.646C267.349 161.441 267.356 161.234 267.365 161.024C267.374 160.815 267.383 160.605 267.393 160.396C267.333 160.482 267.254 160.58 267.153 160.689C267.053 160.799 266.928 160.926 266.777 161.072L265.889 161.934L265.273 161.264L267.488 159.117H268.418V169.111ZM275.616 163.294C275.616 164.06 275.575 164.757 275.493 165.386C275.411 166.01 275.286 166.564 275.117 167.047C274.949 167.525 274.734 167.929 274.475 168.257C274.219 168.58 273.916 168.826 273.565 168.995C273.219 169.164 272.825 169.248 272.383 169.248C272.214 169.248 272.025 169.232 271.815 169.2C271.61 169.173 271.442 169.141 271.31 169.104V168.12C271.455 168.175 271.615 168.218 271.788 168.25C271.961 168.277 272.153 168.291 272.362 168.291C272.886 168.291 273.306 168.106 273.62 167.737C273.939 167.364 274.174 166.871 274.324 166.261C274.475 165.65 274.559 164.987 274.577 164.271H274.529C274.434 164.495 274.311 164.693 274.16 164.866C274.01 165.039 273.832 165.176 273.627 165.276C273.422 165.372 273.192 165.42 272.937 165.42C272.467 165.42 272.08 165.281 271.774 165.003C271.469 164.725 271.241 164.349 271.091 163.875C270.945 163.396 270.872 162.863 270.872 162.275C270.872 161.646 270.959 161.084 271.132 160.587C271.305 160.086 271.565 159.691 271.911 159.404C272.262 159.117 272.704 158.974 273.237 158.974C273.625 158.974 273.966 159.069 274.263 159.261C274.559 159.448 274.807 159.726 275.008 160.095C275.208 160.459 275.359 160.91 275.459 161.448C275.564 161.981 275.616 162.597 275.616 163.294ZM273.23 159.951C272.811 159.951 272.494 160.143 272.28 160.525C272.066 160.904 271.959 161.478 271.959 162.248C271.959 162.964 272.062 163.513 272.267 163.896C272.472 164.274 272.782 164.463 273.196 164.463C273.497 164.463 273.745 164.374 273.941 164.196C274.137 164.014 274.283 163.779 274.379 163.492C274.475 163.205 274.522 162.897 274.522 162.569C274.522 162.328 274.504 162.059 274.468 161.763C274.431 161.462 274.368 161.175 274.276 160.901C274.185 160.623 274.055 160.396 273.887 160.218C273.718 160.04 273.499 159.951 273.23 159.951ZM277.154 168.373C277.154 168.1 277.214 167.89 277.332 167.744C277.451 167.598 277.628 167.525 277.865 167.525C278.089 167.525 278.262 167.594 278.385 167.73C278.512 167.863 278.576 168.077 278.576 168.373C278.576 168.665 278.51 168.881 278.378 169.022C278.25 169.159 278.079 169.228 277.865 169.228C277.628 169.228 277.451 169.155 277.332 169.009C277.214 168.863 277.154 168.651 277.154 168.373ZM277.154 162.419C277.154 162.136 277.214 161.924 277.332 161.783C277.451 161.637 277.628 161.564 277.865 161.564C278.098 161.564 278.273 161.635 278.392 161.776C278.515 161.918 278.576 162.13 278.576 162.412C278.576 162.704 278.51 162.923 278.378 163.068C278.246 163.21 278.075 163.28 277.865 163.28C277.633 163.28 277.455 163.207 277.332 163.062C277.214 162.911 277.154 162.697 277.154 162.419ZM284.694 163.294C284.694 164.06 284.653 164.757 284.571 165.386C284.489 166.01 284.364 166.564 284.195 167.047C284.027 167.525 283.812 167.929 283.553 168.257C283.298 168.58 282.994 168.826 282.644 168.995C282.297 169.164 281.903 169.248 281.461 169.248C281.292 169.248 281.103 169.232 280.894 169.2C280.688 169.173 280.52 169.141 280.388 169.104V168.12C280.534 168.175 280.693 168.218 280.866 168.25C281.039 168.277 281.231 168.291 281.44 168.291C281.965 168.291 282.384 168.106 282.698 167.737C283.017 167.364 283.252 166.871 283.402 166.261C283.553 165.65 283.637 164.987 283.655 164.271H283.607C283.512 164.495 283.389 164.693 283.238 164.866C283.088 165.039 282.91 165.176 282.705 165.276C282.5 165.372 282.27 165.42 282.015 165.42C281.545 165.42 281.158 165.281 280.853 165.003C280.547 164.725 280.319 164.349 280.169 163.875C280.023 163.396 279.95 162.863 279.95 162.275C279.95 161.646 280.037 161.084 280.21 160.587C280.383 160.086 280.643 159.691 280.989 159.404C281.34 159.117 281.782 158.974 282.315 158.974C282.703 158.974 283.045 159.069 283.341 159.261C283.637 159.448 283.885 159.726 284.086 160.095C284.286 160.459 284.437 160.91 284.537 161.448C284.642 161.981 284.694 162.597 284.694 163.294ZM282.309 159.951C281.889 159.951 281.573 160.143 281.358 160.525C281.144 160.904 281.037 161.478 281.037 162.248C281.037 162.964 281.14 163.513 281.345 163.896C281.55 164.274 281.86 164.463 282.274 164.463C282.575 164.463 282.824 164.374 283.02 164.196C283.215 164.014 283.361 163.779 283.457 163.492C283.553 163.205 283.601 162.897 283.601 162.569C283.601 162.328 283.582 162.059 283.546 161.763C283.509 161.462 283.446 161.175 283.354 160.901C283.263 160.623 283.133 160.396 282.965 160.218C282.796 160.04 282.577 159.951 282.309 159.951ZM290.676 169.111H285.863V168.312L287.839 165.399C288.226 164.83 288.532 164.338 288.755 163.923C288.983 163.508 289.145 163.116 289.24 162.747C289.34 162.373 289.391 161.968 289.391 161.53C289.391 161.043 289.272 160.658 289.035 160.375C288.803 160.092 288.468 159.951 288.03 159.951C287.739 159.951 287.472 160.004 287.23 160.108C286.993 160.213 286.75 160.386 286.499 160.628L285.945 159.876C286.173 159.662 286.399 159.489 286.622 159.356C286.845 159.224 287.078 159.129 287.319 159.069C287.565 159.006 287.832 158.974 288.119 158.974C288.611 158.974 289.033 159.078 289.384 159.288C289.739 159.498 290.01 159.792 290.197 160.17C290.384 160.548 290.478 160.988 290.478 161.489C290.478 162.022 290.416 162.512 290.293 162.959C290.17 163.406 289.983 163.85 289.732 164.292C289.486 164.729 289.174 165.208 288.796 165.728L287.135 168.086V168.134H290.676V169.111Z" fill="#27302B"/>
<path d="M452.881 162.774L452.594 165.194H453.817V166.049H452.498L452.108 169.111H451.288L451.671 166.049H450.235L449.873 169.111H449.073L449.436 166.049H448.267V165.194H449.538L449.825 162.774H448.588V161.94H449.935L450.27 159.117H451.09L450.741 161.94H452.17L452.525 159.117H453.318L452.97 161.94H454.139V162.774H452.881ZM450.345 165.194H451.773L452.074 162.774H450.639L450.345 165.194ZM458.418 169.111H457.338V162.248C457.338 162.048 457.34 161.847 457.345 161.646C457.349 161.441 457.356 161.234 457.365 161.024C457.374 160.815 457.383 160.605 457.393 160.396C457.333 160.482 457.254 160.58 457.153 160.689C457.053 160.799 456.928 160.926 456.777 161.072L455.889 161.934L455.273 161.264L457.488 159.117H458.418V169.111ZM465.705 164.114C465.705 164.916 465.66 165.634 465.568 166.268C465.482 166.901 465.343 167.439 465.151 167.881C464.96 168.323 464.712 168.66 464.406 168.893C464.105 169.125 463.743 169.241 463.319 169.241C462.813 169.241 462.383 169.086 462.027 168.776C461.672 168.462 461.398 167.933 461.207 167.19C461.02 166.443 460.927 165.418 460.927 164.114C460.927 162.975 461.013 162.025 461.187 161.264C461.364 160.503 461.629 159.931 461.979 159.548C462.335 159.165 462.782 158.974 463.319 158.974C463.866 158.974 464.315 159.167 464.666 159.555C465.017 159.938 465.277 160.509 465.445 161.271C465.618 162.032 465.705 162.979 465.705 164.114ZM462.027 164.114C462.027 165.03 462.071 165.796 462.157 166.411C462.244 167.022 462.383 167.482 462.574 167.792C462.766 168.102 463.014 168.257 463.319 168.257C463.625 168.257 463.873 168.102 464.064 167.792C464.256 167.478 464.395 167.013 464.481 166.397C464.573 165.782 464.618 165.021 464.618 164.114C464.618 163.207 464.573 162.446 464.481 161.831C464.39 161.216 464.249 160.751 464.058 160.437C463.871 160.122 463.625 159.965 463.319 159.965C463.014 159.965 462.766 160.12 462.574 160.43C462.383 160.74 462.244 161.202 462.157 161.817C462.071 162.428 462.027 163.194 462.027 164.114ZM471.666 164.114C471.666 164.916 471.62 165.634 471.529 166.268C471.443 166.901 471.304 167.439 471.112 167.881C470.921 168.323 470.673 168.66 470.367 168.893C470.066 169.125 469.704 169.241 469.28 169.241C468.774 169.241 468.344 169.086 467.988 168.776C467.633 168.462 467.359 167.933 467.168 167.19C466.981 166.443 466.888 165.418 466.888 164.114C466.888 162.975 466.974 162.025 467.147 161.264C467.325 160.503 467.59 159.931 467.94 159.548C468.296 159.165 468.743 158.974 469.28 158.974C469.827 158.974 470.276 159.167 470.627 159.555C470.978 159.938 471.238 160.509 471.406 161.271C471.579 162.032 471.666 162.979 471.666 164.114ZM467.988 164.114C467.988 165.03 468.032 165.796 468.118 166.411C468.205 167.022 468.344 167.482 468.535 167.792C468.727 168.102 468.975 168.257 469.28 168.257C469.586 168.257 469.834 168.102 470.025 167.792C470.217 167.478 470.356 167.013 470.442 166.397C470.534 165.782 470.579 165.021 470.579 164.114C470.579 163.207 470.534 162.446 470.442 161.831C470.351 161.216 470.21 160.751 470.019 160.437C469.832 160.122 469.586 159.965 469.28 159.965C468.975 159.965 468.727 160.12 468.535 160.43C468.344 160.74 468.205 161.202 468.118 161.817C468.032 162.428 467.988 163.194 467.988 164.114ZM473.115 168.373C473.115 168.1 473.174 167.89 473.293 167.744C473.411 167.598 473.589 167.525 473.826 167.525C474.049 167.525 474.223 167.594 474.346 167.73C474.473 167.863 474.537 168.077 474.537 168.373C474.537 168.665 474.471 168.881 474.339 169.022C474.211 169.159 474.04 169.228 473.826 169.228C473.589 169.228 473.411 169.155 473.293 169.009C473.174 168.863 473.115 168.651 473.115 168.373ZM473.115 162.419C473.115 162.136 473.174 161.924 473.293 161.783C473.411 161.637 473.589 161.564 473.826 161.564C474.059 161.564 474.234 161.635 474.353 161.776C474.476 161.918 474.537 162.13 474.537 162.412C474.537 162.704 474.471 162.923 474.339 163.068C474.207 163.21 474.036 163.28 473.826 163.28C473.594 163.28 473.416 163.207 473.293 163.062C473.174 162.911 473.115 162.697 473.115 162.419ZM479.418 169.111H478.338V162.248C478.338 162.048 478.34 161.847 478.345 161.646C478.349 161.441 478.356 161.234 478.365 161.024C478.374 160.815 478.383 160.605 478.393 160.396C478.333 160.482 478.254 160.58 478.153 160.689C478.053 160.799 477.928 160.926 477.777 161.072L476.889 161.934L476.273 161.264L478.488 159.117H479.418V169.111ZM482.658 169.111L485.68 160.108H481.797V159.117H486.773V159.924L483.793 169.111H482.658ZM490.301 158.974C490.775 158.974 491.18 159.069 491.518 159.261C491.855 159.452 492.112 159.721 492.29 160.067C492.472 160.414 492.563 160.824 492.563 161.298C492.563 161.672 492.504 162.016 492.386 162.33C492.272 162.64 492.099 162.925 491.866 163.185C491.634 163.44 491.342 163.672 490.991 163.882C491.347 164.119 491.659 164.367 491.928 164.627C492.197 164.887 492.406 165.176 492.557 165.495C492.712 165.814 492.789 166.179 492.789 166.589C492.789 167.113 492.689 167.576 492.488 167.977C492.288 168.373 492.003 168.685 491.634 168.913C491.269 169.136 490.839 169.248 490.342 169.248C489.804 169.248 489.344 169.141 488.961 168.927C488.578 168.713 488.286 168.412 488.086 168.024C487.885 167.632 487.785 167.177 487.785 166.657C487.785 166.256 487.847 165.892 487.97 165.563C488.093 165.231 488.277 164.928 488.523 164.654C488.774 164.381 489.084 164.126 489.453 163.889C489.134 163.647 488.868 163.392 488.653 163.123C488.444 162.854 488.286 162.569 488.182 162.269C488.077 161.968 488.024 161.649 488.024 161.312C488.024 160.842 488.118 160.432 488.305 160.081C488.492 159.73 488.756 159.459 489.098 159.268C489.439 159.072 489.84 158.974 490.301 158.974ZM488.852 166.664C488.852 167.152 488.977 167.553 489.228 167.867C489.478 168.182 489.831 168.339 490.287 168.339C490.757 168.339 491.112 168.177 491.354 167.854C491.595 167.525 491.716 167.106 491.716 166.596C491.716 166.35 491.673 166.113 491.586 165.885C491.499 165.652 491.363 165.429 491.176 165.215C490.993 164.996 490.754 164.784 490.458 164.579L490.185 164.388C489.87 164.593 489.615 164.807 489.419 165.03C489.223 165.249 489.079 165.491 488.988 165.755C488.897 166.019 488.852 166.322 488.852 166.664ZM490.28 159.89C489.911 159.89 489.617 160.022 489.398 160.286C489.18 160.55 489.07 160.915 489.07 161.38C489.07 161.667 489.116 161.927 489.207 162.159C489.298 162.387 489.433 162.599 489.61 162.795C489.788 162.986 490.009 163.173 490.273 163.355C490.561 163.173 490.793 162.984 490.971 162.788C491.153 162.588 491.287 162.373 491.374 162.146C491.461 161.913 491.504 161.658 491.504 161.38C491.504 160.915 491.397 160.55 491.183 160.286C490.968 160.022 490.668 159.89 490.28 159.89ZM494.115 168.373C494.115 168.1 494.174 167.89 494.293 167.744C494.411 167.598 494.589 167.525 494.826 167.525C495.049 167.525 495.223 167.594 495.346 167.73C495.473 167.863 495.537 168.077 495.537 168.373C495.537 168.665 495.471 168.881 495.339 169.022C495.211 169.159 495.04 169.228 494.826 169.228C494.589 169.228 494.411 169.155 494.293 169.009C494.174 168.863 494.115 168.651 494.115 168.373ZM494.115 162.419C494.115 162.136 494.174 161.924 494.293 161.783C494.411 161.637 494.589 161.564 494.826 161.564C495.059 161.564 495.234 161.635 495.353 161.776C495.476 161.918 495.537 162.13 495.537 162.412C495.537 162.704 495.471 162.923 495.339 163.068C495.207 163.21 495.036 163.28 494.826 163.28C494.594 163.28 494.416 163.207 494.293 163.062C494.174 162.911 494.115 162.697 494.115 162.419ZM500.418 169.111H499.338V162.248C499.338 162.048 499.34 161.847 499.345 161.646C499.349 161.441 499.356 161.234 499.365 161.024C499.374 160.815 499.383 160.605 499.393 160.396C499.333 160.482 499.254 160.58 499.153 160.689C499.053 160.799 498.928 160.926 498.777 161.072L497.889 161.934L497.273 161.264L499.488 159.117H500.418V169.111ZM508.108 166.91H507.049V169.111H505.982V166.91H502.578V166.021L505.894 159.035H507.049V165.987H508.108V166.91ZM505.982 165.987V161.954C505.982 161.849 505.985 161.731 505.989 161.599C505.994 161.466 505.998 161.332 506.003 161.195C506.007 161.054 506.012 160.92 506.017 160.792C506.021 160.664 506.026 160.553 506.03 160.457H505.982C505.91 160.676 505.83 160.888 505.743 161.093C505.661 161.298 505.579 161.496 505.497 161.688L503.542 165.987H505.982ZM511.301 158.974C511.775 158.974 512.18 159.069 512.518 159.261C512.855 159.452 513.112 159.721 513.29 160.067C513.472 160.414 513.563 160.824 513.563 161.298C513.563 161.672 513.504 162.016 513.386 162.33C513.272 162.64 513.099 162.925 512.866 163.185C512.634 163.44 512.342 163.672 511.991 163.882C512.347 164.119 512.659 164.367 512.928 164.627C513.197 164.887 513.406 165.176 513.557 165.495C513.712 165.814 513.789 166.179 513.789 166.589C513.789 167.113 513.689 167.576 513.488 167.977C513.288 168.373 513.003 168.685 512.634 168.913C512.269 169.136 511.839 169.248 511.342 169.248C510.804 169.248 510.344 169.141 509.961 168.927C509.578 168.713 509.286 168.412 509.086 168.024C508.885 167.632 508.785 167.177 508.785 166.657C508.785 166.256 508.847 165.892 508.97 165.563C509.093 165.231 509.277 164.928 509.523 164.654C509.774 164.381 510.084 164.126 510.453 163.889C510.134 163.647 509.868 163.392 509.653 163.123C509.444 162.854 509.286 162.569 509.182 162.269C509.077 161.968 509.024 161.649 509.024 161.312C509.024 160.842 509.118 160.432 509.305 160.081C509.492 159.73 509.756 159.459 510.098 159.268C510.439 159.072 510.84 158.974 511.301 158.974ZM509.852 166.664C509.852 167.152 509.977 167.553 510.228 167.867C510.478 168.182 510.831 168.339 511.287 168.339C511.757 168.339 512.112 168.177 512.354 167.854C512.595 167.525 512.716 167.106 512.716 166.596C512.716 166.35 512.673 166.113 512.586 165.885C512.499 165.652 512.363 165.429 512.176 165.215C511.993 164.996 511.754 164.784 511.458 164.579L511.185 164.388C510.87 164.593 510.615 164.807 510.419 165.03C510.223 165.249 510.079 165.491 509.988 165.755C509.897 166.019 509.852 166.322 509.852 166.664ZM511.28 159.89C510.911 159.89 510.617 160.022 510.398 160.286C510.18 160.55 510.07 160.915 510.07 161.38C510.07 161.667 510.116 161.927 510.207 162.159C510.298 162.387 510.433 162.599 510.61 162.795C510.788 162.986 511.009 163.173 511.273 163.355C511.561 163.173 511.793 162.984 511.971 162.788C512.153 162.588 512.287 162.373 512.374 162.146C512.461 161.913 512.504 161.658 512.504 161.38C512.504 160.915 512.397 160.55 512.183 160.286C511.968 160.022 511.668 159.89 511.28 159.89Z" fill="#27302B"/>
<path d="M452.881 81.7744L452.594 84.1943H453.817V85.0488H452.498L452.108 88.1113H451.288L451.671 85.0488H450.235L449.873 88.1113H449.073L449.436 85.0488H448.267V84.1943H449.538L449.825 81.7744H448.588V80.9404H449.935L450.27 78.1172H451.09L450.741 80.9404H452.17L452.525 78.1172H453.318L452.97 80.9404H454.139V81.7744H452.881ZM450.345 84.1943H451.773L452.074 81.7744H450.639L450.345 84.1943ZM459.676 88.1113H454.863V87.3115L456.839 84.3994C457.226 83.8298 457.532 83.3376 457.755 82.9229C457.983 82.5081 458.145 82.1162 458.24 81.7471C458.34 81.3734 458.391 80.9678 458.391 80.5303C458.391 80.0426 458.272 79.6576 458.035 79.375C457.803 79.0924 457.468 78.9512 457.03 78.9512C456.739 78.9512 456.472 79.0036 456.23 79.1084C455.993 79.2132 455.75 79.3864 455.499 79.6279L454.945 78.876C455.173 78.6618 455.399 78.4886 455.622 78.3564C455.845 78.2243 456.078 78.1286 456.319 78.0693C456.565 78.0055 456.832 77.9736 457.119 77.9736C457.611 77.9736 458.033 78.0785 458.384 78.2881C458.739 78.4977 459.01 78.7917 459.197 79.1699C459.384 79.5482 459.478 79.988 459.478 80.4893C459.478 81.0225 459.416 81.5124 459.293 81.959C459.17 82.4056 458.983 82.8499 458.732 83.292C458.486 83.7295 458.174 84.208 457.796 84.7275L456.135 87.0859V87.1338H459.676V88.1113ZM463.258 81.9863C463.768 81.9863 464.203 82.1094 464.563 82.3555C464.924 82.6016 465.199 82.9434 465.391 83.3809C465.582 83.8184 465.678 84.3265 465.678 84.9053C465.678 85.5661 465.568 86.1471 465.35 86.6484C465.135 87.1497 464.819 87.5417 464.399 87.8242C463.98 88.1068 463.461 88.248 462.841 88.248C462.463 88.248 462.123 88.2116 461.822 88.1387C461.521 88.0703 461.257 87.9678 461.029 87.8311V86.751C461.285 86.9196 461.56 87.054 461.856 87.1543C462.157 87.2546 462.458 87.3047 462.759 87.3047C463.174 87.3047 463.513 87.1976 463.777 86.9834C464.046 86.7646 464.247 86.4775 464.379 86.1221C464.511 85.762 464.577 85.3678 464.577 84.9395C464.577 84.2786 464.431 83.7751 464.14 83.4287C463.853 83.0824 463.438 82.9092 462.896 82.9092C462.668 82.9092 462.442 82.932 462.219 82.9775C461.995 83.0186 461.772 83.0732 461.549 83.1416L461.118 82.7246L461.419 78.1172H465.145V79.1016H462.321L462.116 82.123C462.308 82.0775 462.499 82.0433 462.69 82.0205C462.886 81.9977 463.076 81.9863 463.258 81.9863ZM469.219 81.9863C469.729 81.9863 470.164 82.1094 470.524 82.3555C470.884 82.6016 471.16 82.9434 471.352 83.3809C471.543 83.8184 471.639 84.3265 471.639 84.9053C471.639 85.5661 471.529 86.1471 471.311 86.6484C471.096 87.1497 470.78 87.5417 470.36 87.8242C469.941 88.1068 469.422 88.248 468.802 88.248C468.424 88.248 468.084 88.2116 467.783 88.1387C467.482 88.0703 467.218 87.9678 466.99 87.8311V86.751C467.245 86.9196 467.521 87.054 467.817 87.1543C468.118 87.2546 468.419 87.3047 468.72 87.3047C469.134 87.3047 469.474 87.1976 469.738 86.9834C470.007 86.7646 470.208 86.4775 470.34 86.1221C470.472 85.762 470.538 85.3678 470.538 84.9395C470.538 84.2786 470.392 83.7751 470.101 83.4287C469.813 83.0824 469.399 82.9092 468.856 82.9092C468.629 82.9092 468.403 82.932 468.18 82.9775C467.956 83.0186 467.733 83.0732 467.51 83.1416L467.079 82.7246L467.38 78.1172H471.105V79.1016H468.282L468.077 82.123C468.269 82.0775 468.46 82.0433 468.651 82.0205C468.847 81.9977 469.036 81.9863 469.219 81.9863ZM473.115 87.373C473.115 87.0996 473.174 86.89 473.293 86.7441C473.411 86.5983 473.589 86.5254 473.826 86.5254C474.049 86.5254 474.223 86.5938 474.346 86.7305C474.473 86.8626 474.537 87.0768 474.537 87.373C474.537 87.6647 474.471 87.8812 474.339 88.0225C474.211 88.1592 474.04 88.2275 473.826 88.2275C473.589 88.2275 473.411 88.1546 473.293 88.0088C473.174 87.863 473.115 87.651 473.115 87.373ZM473.115 81.4189C473.115 81.1364 473.174 80.9245 473.293 80.7832C473.411 80.6374 473.589 80.5645 473.826 80.5645C474.059 80.5645 474.234 80.6351 474.353 80.7764C474.476 80.9176 474.537 81.1296 474.537 81.4121C474.537 81.7038 474.471 81.9225 474.339 82.0684C474.207 82.2096 474.036 82.2803 473.826 82.2803C473.594 82.2803 473.416 82.2074 473.293 82.0615C473.174 81.9111 473.115 81.6969 473.115 81.4189ZM480.676 88.1113H475.863V87.3115L477.839 84.3994C478.226 83.8298 478.532 83.3376 478.755 82.9229C478.983 82.5081 479.145 82.1162 479.24 81.7471C479.34 81.3734 479.391 80.9678 479.391 80.5303C479.391 80.0426 479.272 79.6576 479.035 79.375C478.803 79.0924 478.468 78.9512 478.03 78.9512C477.739 78.9512 477.472 79.0036 477.23 79.1084C476.993 79.2132 476.75 79.3864 476.499 79.6279L475.945 78.876C476.173 78.6618 476.399 78.4886 476.622 78.3564C476.845 78.2243 477.078 78.1286 477.319 78.0693C477.565 78.0055 477.832 77.9736 478.119 77.9736C478.611 77.9736 479.033 78.0785 479.384 78.2881C479.739 78.4977 480.01 78.7917 480.197 79.1699C480.384 79.5482 480.478 79.988 480.478 80.4893C480.478 81.0225 480.416 81.5124 480.293 81.959C480.17 82.4056 479.983 82.8499 479.732 83.292C479.486 83.7295 479.174 84.208 478.796 84.7275L477.135 87.0859V87.1338H480.676V88.1113ZM484.258 81.9863C484.768 81.9863 485.203 82.1094 485.563 82.3555C485.924 82.6016 486.199 82.9434 486.391 83.3809C486.582 83.8184 486.678 84.3265 486.678 84.9053C486.678 85.5661 486.568 86.1471 486.35 86.6484C486.135 87.1497 485.819 87.5417 485.399 87.8242C484.98 88.1068 484.461 88.248 483.841 88.248C483.463 88.248 483.123 88.2116 482.822 88.1387C482.521 88.0703 482.257 87.9678 482.029 87.8311V86.751C482.285 86.9196 482.56 87.054 482.856 87.1543C483.157 87.2546 483.458 87.3047 483.759 87.3047C484.174 87.3047 484.513 87.1976 484.777 86.9834C485.046 86.7646 485.247 86.4775 485.379 86.1221C485.511 85.762 485.577 85.3678 485.577 84.9395C485.577 84.2786 485.431 83.7751 485.14 83.4287C484.853 83.0824 484.438 82.9092 483.896 82.9092C483.668 82.9092 483.442 82.932 483.219 82.9775C482.995 83.0186 482.772 83.0732 482.549 83.1416L482.118 82.7246L482.419 78.1172H486.145V79.1016H483.321L483.116 82.123C483.308 82.0775 483.499 82.0433 483.69 82.0205C483.886 81.9977 484.076 81.9863 484.258 81.9863ZM490.219 81.9863C490.729 81.9863 491.164 82.1094 491.524 82.3555C491.884 82.6016 492.16 82.9434 492.352 83.3809C492.543 83.8184 492.639 84.3265 492.639 84.9053C492.639 85.5661 492.529 86.1471 492.311 86.6484C492.096 87.1497 491.78 87.5417 491.36 87.8242C490.941 88.1068 490.422 88.248 489.802 88.248C489.424 88.248 489.084 88.2116 488.783 88.1387C488.482 88.0703 488.218 87.9678 487.99 87.8311V86.751C488.245 86.9196 488.521 87.054 488.817 87.1543C489.118 87.2546 489.419 87.3047 489.72 87.3047C490.134 87.3047 490.474 87.1976 490.738 86.9834C491.007 86.7646 491.208 86.4775 491.34 86.1221C491.472 85.762 491.538 85.3678 491.538 84.9395C491.538 84.2786 491.392 83.7751 491.101 83.4287C490.813 83.0824 490.399 82.9092 489.856 82.9092C489.629 82.9092 489.403 82.932 489.18 82.9775C488.956 83.0186 488.733 83.0732 488.51 83.1416L488.079 82.7246L488.38 78.1172H492.105V79.1016H489.282L489.077 82.123C489.269 82.0775 489.46 82.0433 489.651 82.0205C489.847 81.9977 490.036 81.9863 490.219 81.9863ZM494.115 87.373C494.115 87.0996 494.174 86.89 494.293 86.7441C494.411 86.5983 494.589 86.5254 494.826 86.5254C495.049 86.5254 495.223 86.5938 495.346 86.7305C495.473 86.8626 495.537 87.0768 495.537 87.373C495.537 87.6647 495.471 87.8812 495.339 88.0225C495.211 88.1592 495.04 88.2275 494.826 88.2275C494.589 88.2275 494.411 88.1546 494.293 88.0088C494.174 87.863 494.115 87.651 494.115 87.373ZM494.115 81.4189C494.115 81.1364 494.174 80.9245 494.293 80.7832C494.411 80.6374 494.589 80.5645 494.826 80.5645C495.059 80.5645 495.234 80.6351 495.353 80.7764C495.476 80.9176 495.537 81.1296 495.537 81.4121C495.537 81.7038 495.471 81.9225 495.339 82.0684C495.207 82.2096 495.036 82.2803 494.826 82.2803C494.594 82.2803 494.416 82.2074 494.293 82.0615C494.174 81.9111 494.115 81.6969 494.115 81.4189ZM501.676 88.1113H496.863V87.3115L498.839 84.3994C499.226 83.8298 499.532 83.3376 499.755 82.9229C499.983 82.5081 500.145 82.1162 500.24 81.7471C500.34 81.3734 500.391 80.9678 500.391 80.5303C500.391 80.0426 500.272 79.6576 500.035 79.375C499.803 79.0924 499.468 78.9512 499.03 78.9512C498.739 78.9512 498.472 79.0036 498.23 79.1084C497.993 79.2132 497.75 79.3864 497.499 79.6279L496.945 78.876C497.173 78.6618 497.399 78.4886 497.622 78.3564C497.845 78.2243 498.078 78.1286 498.319 78.0693C498.565 78.0055 498.832 77.9736 499.119 77.9736C499.611 77.9736 500.033 78.0785 500.384 78.2881C500.739 78.4977 501.01 78.7917 501.197 79.1699C501.384 79.5482 501.478 79.988 501.478 80.4893C501.478 81.0225 501.416 81.5124 501.293 81.959C501.17 82.4056 500.983 82.8499 500.732 83.292C500.486 83.7295 500.174 84.208 499.796 84.7275L498.135 87.0859V87.1338H501.676V88.1113ZM505.258 81.9863C505.768 81.9863 506.203 82.1094 506.563 82.3555C506.924 82.6016 507.199 82.9434 507.391 83.3809C507.582 83.8184 507.678 84.3265 507.678 84.9053C507.678 85.5661 507.568 86.1471 507.35 86.6484C507.135 87.1497 506.819 87.5417 506.399 87.8242C505.98 88.1068 505.461 88.248 504.841 88.248C504.463 88.248 504.123 88.2116 503.822 88.1387C503.521 88.0703 503.257 87.9678 503.029 87.8311V86.751C503.285 86.9196 503.56 87.054 503.856 87.1543C504.157 87.2546 504.458 87.3047 504.759 87.3047C505.174 87.3047 505.513 87.1976 505.777 86.9834C506.046 86.7646 506.247 86.4775 506.379 86.1221C506.511 85.762 506.577 85.3678 506.577 84.9395C506.577 84.2786 506.431 83.7751 506.14 83.4287C505.853 83.0824 505.438 82.9092 504.896 82.9092C504.668 82.9092 504.442 82.932 504.219 82.9775C503.995 83.0186 503.772 83.0732 503.549 83.1416L503.118 82.7246L503.419 78.1172H507.145V79.1016H504.321L504.116 82.123C504.308 82.0775 504.499 82.0433 504.69 82.0205C504.886 81.9977 505.076 81.9863 505.258 81.9863ZM511.219 81.9863C511.729 81.9863 512.164 82.1094 512.524 82.3555C512.884 82.6016 513.16 82.9434 513.352 83.3809C513.543 83.8184 513.639 84.3265 513.639 84.9053C513.639 85.5661 513.529 86.1471 513.311 86.6484C513.096 87.1497 512.78 87.5417 512.36 87.8242C511.941 88.1068 511.422 88.248 510.802 88.248C510.424 88.248 510.084 88.2116 509.783 88.1387C509.482 88.0703 509.218 87.9678 508.99 87.8311V86.751C509.245 86.9196 509.521 87.054 509.817 87.1543C510.118 87.2546 510.419 87.3047 510.72 87.3047C511.134 87.3047 511.474 87.1976 511.738 86.9834C512.007 86.7646 512.208 86.4775 512.34 86.1221C512.472 85.762 512.538 85.3678 512.538 84.9395C512.538 84.2786 512.392 83.7751 512.101 83.4287C511.813 83.0824 511.399 82.9092 510.856 82.9092C510.629 82.9092 510.403 82.932 510.18 82.9775C509.956 83.0186 509.733 83.0732 509.51 83.1416L509.079 82.7246L509.38 78.1172H513.105V79.1016H510.282L510.077 82.123C510.269 82.0775 510.46 82.0433 510.651 82.0205C510.847 81.9977 511.036 81.9863 511.219 81.9863Z" fill="#1D2621"/>
<rect x="27" y="21.1113" width="98" height="30" fill="#0B3B28"/>
<rect x="237" y="21.1113" width="99" height="30" fill="#D3CEC4"/>
<rect x="27" y="102.111" width="98" height="30" fill="#27302B"/>
<rect x="448" y="21.1113" width="98" height="30" fill="white"/>
<rect x="237" y="102.111" width="99" height="30" fill="#33775C"/>
<rect x="448" y="102.111" width="98" height="30" fill="#64B394"/>
</svg>
