<svg width="617" height="142" viewBox="0 0 617 142" fill="none" xmlns="http://www.w3.org/2000/svg">
<rect width="617" height="142" fill="#F2F2F2"/>
<line x1="49.5" y1="37.5" x2="71.5" y2="37.5" stroke="black" stroke-width="3" stroke-linecap="round"/>
<line x1="49.5" y1="43.5" x2="71.5" y2="43.5" stroke="black" stroke-width="3" stroke-linecap="round"/>
<line x1="49.5" y1="49.5" x2="71.5" y2="49.5" stroke="black" stroke-width="3" stroke-linecap="round"/>
<line x1="123.992" y1="36.0662" x2="140.043" y2="51.1119" stroke="black" stroke-width="3" stroke-linecap="round"/>
<line x1="124.05" y1="51.1322" x2="139.971" y2="35.9494" stroke="black" stroke-width="3" stroke-linecap="round"/>
<path d="M206.73 43.3031L206.73 43.3031L206.723 43.3135C205.667 44.9579 204.396 46.3877 203.078 47.653L203.062 47.6686L203.046 47.6848C202.444 48.3171 201.457 49.2711 200.534 50.0714C200.072 50.4724 199.642 50.8207 199.294 51.0677C199.177 51.151 199.076 51.2173 198.993 51.268C198.902 51.2091 198.782 51.1211 198.631 50.9931C198.485 50.8696 198.34 50.7355 198.185 50.5922L198.173 50.581C198.032 50.4506 197.875 50.3044 197.725 50.1804C194.82 47.6882 191.836 44.7711 190.338 41.6596C189.098 38.6749 189.189 35.1983 190.905 33.1454C193.144 30.8983 196.465 31.334 198.177 33.7131L199.01 34.8702L199.814 33.6931C200.278 33.0149 200.835 32.4917 201.487 32.1086C204.178 30.9243 206.962 32.1075 208.145 34.9269C208.983 37.9129 208.267 40.9741 206.73 43.3031Z" stroke="black" stroke-width="2"/>
<path d="M350.987 52.0751L349.03 40.2885C348.855 38.7604 347.458 37.5176 345.915 37.5176H344.256V35.5224C344.256 32.4771 342.077 30 339.023 30C335.969 30 333.743 32.477 333.743 35.5223V37.5176H331.944C330.4 37.5176 329.003 38.7604 328.833 40.2563L327.019 52.0519C326.949 52.6733 327.071 53.1633 327.381 53.5092C327.673 53.8345 328.097 54 328.642 54H349.146C349.918 54 350.361 53.6908 350.597 53.431C350.814 53.1922 351.058 52.7725 350.987 52.0751ZM335.246 35.522C335.246 33.3029 336.798 31.4971 339.023 31.4971C341.249 31.4971 342.754 33.3029 342.754 35.522V37.5172H335.246V35.522ZM349.214 52.4917L328.735 52.5023C328.606 52.5023 328.477 52.4334 328.507 52.2522L330.32 40.4581C330.41 39.6757 331.154 39.015 331.943 39.015H333.743V40.7212C333.296 40.9803 332.991 41.4579 332.991 42.0112C332.991 42.8382 333.664 43.5086 334.493 43.5086C335.323 43.5086 335.995 42.8382 335.995 42.0112C335.995 41.4587 335.692 40.9818 335.246 40.7224V39.0146H342.754V40.7224C342.308 40.9818 342.004 41.4591 342.004 42.0112C342.004 42.8382 342.677 43.5086 343.506 43.5086C344.336 43.5086 345.008 42.8382 345.008 42.0112C345.008 41.4579 344.704 40.9803 344.256 40.7209V39.0146H345.915C346.705 39.0146 347.448 39.6757 347.544 40.4989L349.5 52.2739C349.509 52.3697 349.434 52.4917 349.214 52.4917L349.214 52.4917Z" fill="black"/>
<path d="M337.833 46.7705V47.9668C337.833 48.5137 337.777 48.9808 337.667 49.3682C337.556 49.7555 337.396 50.0729 337.188 50.3203C336.98 50.5645 336.731 50.7451 336.441 50.8623C336.151 50.9762 335.829 51.0332 335.474 51.0332C335.191 51.0332 334.927 50.9974 334.683 50.9258C334.439 50.8509 334.219 50.737 334.024 50.584C333.832 50.4277 333.666 50.2292 333.526 49.9883C333.389 49.7474 333.283 49.4593 333.208 49.124C333.137 48.7887 333.101 48.403 333.101 47.9668V46.7705C333.101 46.2236 333.156 45.7581 333.267 45.374C333.381 44.9899 333.542 44.6758 333.75 44.4316C333.959 44.1875 334.208 44.0101 334.498 43.8994C334.787 43.7855 335.11 43.7285 335.464 43.7285C335.751 43.7285 336.014 43.7643 336.255 43.8359C336.5 43.9076 336.718 44.0199 336.91 44.1729C337.105 44.3226 337.271 44.5179 337.408 44.7588C337.544 44.9964 337.649 45.2829 337.72 45.6182C337.795 45.9502 337.833 46.3343 337.833 46.7705ZM336.543 48.1426V46.5898C336.543 46.3164 336.527 46.0788 336.495 45.877C336.465 45.6719 336.421 45.4977 336.363 45.3545C336.304 45.2113 336.231 45.0957 336.143 45.0078C336.055 44.9167 335.954 44.8499 335.84 44.8076C335.726 44.7653 335.601 44.7441 335.464 44.7441C335.295 44.7441 335.144 44.7783 335.01 44.8467C334.877 44.9118 334.764 45.016 334.673 45.1592C334.582 45.3024 334.512 45.4928 334.463 45.7305C334.418 45.9648 334.395 46.2513 334.395 46.5898V48.1426C334.395 48.416 334.41 48.6553 334.439 48.8604C334.472 49.0654 334.517 49.2412 334.576 49.3877C334.638 49.5342 334.711 49.6546 334.795 49.749C334.883 49.8402 334.984 49.9085 335.098 49.9541C335.212 49.9964 335.337 50.0176 335.474 50.0176C335.647 50.0176 335.798 49.9834 335.928 49.915C336.062 49.8467 336.174 49.7393 336.265 49.5928C336.356 49.443 336.425 49.2493 336.47 49.0117C336.519 48.7708 336.543 48.4811 336.543 48.1426ZM343.545 46.7705V47.9668C343.545 48.5137 343.49 48.9808 343.379 49.3682C343.269 49.7555 343.109 50.0729 342.901 50.3203C342.693 50.5645 342.444 50.7451 342.154 50.8623C341.864 50.9762 341.542 51.0332 341.187 51.0332C340.904 51.0332 340.64 50.9974 340.396 50.9258C340.152 50.8509 339.932 50.737 339.737 50.584C339.545 50.4277 339.379 50.2292 339.239 49.9883C339.102 49.7474 338.996 49.4593 338.921 49.124C338.85 48.7887 338.814 48.403 338.814 47.9668V46.7705C338.814 46.2236 338.869 45.7581 338.98 45.374C339.094 44.9899 339.255 44.6758 339.463 44.4316C339.672 44.1875 339.921 44.0101 340.21 43.8994C340.5 43.7855 340.822 43.7285 341.177 43.7285C341.464 43.7285 341.727 43.7643 341.968 43.8359C342.212 43.9076 342.431 44.0199 342.623 44.1729C342.818 44.3226 342.984 44.5179 343.121 44.7588C343.257 44.9964 343.361 45.2829 343.433 45.6182C343.508 45.9502 343.545 46.3343 343.545 46.7705ZM342.256 48.1426V46.5898C342.256 46.3164 342.24 46.0788 342.208 45.877C342.178 45.6719 342.134 45.4977 342.076 45.3545C342.017 45.2113 341.944 45.0957 341.856 45.0078C341.768 44.9167 341.667 44.8499 341.553 44.8076C341.439 44.7653 341.314 44.7441 341.177 44.7441C341.008 44.7441 340.857 44.7783 340.723 44.8467C340.59 44.9118 340.477 45.016 340.386 45.1592C340.295 45.3024 340.225 45.4928 340.176 45.7305C340.131 45.9648 340.108 46.2513 340.108 46.5898V48.1426C340.108 48.416 340.123 48.6553 340.152 48.8604C340.184 49.0654 340.23 49.2412 340.289 49.3877C340.35 49.5342 340.424 49.6546 340.508 49.749C340.596 49.8402 340.697 49.9085 340.811 49.9541C340.925 49.9964 341.05 50.0176 341.187 50.0176C341.36 50.0176 341.511 49.9834 341.641 49.915C341.775 49.8467 341.887 49.7393 341.978 49.5928C342.069 49.443 342.138 49.2493 342.183 49.0117C342.232 48.7708 342.256 48.4811 342.256 48.1426Z" fill="black"/>
<path d="M269 30C270.625 30 272.179 30.317 273.661 30.9509C275.143 31.5848 276.42 32.4375 277.491 33.5089C278.562 34.5804 279.415 35.8571 280.049 37.3393C280.683 38.8214 281 40.375 281 42C281 43.6161 280.685 45.1652 280.056 46.6473C279.426 48.1295 278.576 49.4062 277.504 50.4777C276.433 51.5491 275.156 52.404 273.674 53.0424C272.192 53.6808 270.634 54 269 54C267.366 54 265.808 53.683 264.326 53.0491C262.844 52.4152 261.569 51.5603 260.502 50.4844C259.435 49.4085 258.585 48.1317 257.951 46.654C257.317 45.1763 257 43.625 257 42C257 40.375 257.317 38.8214 257.951 37.3393C258.585 35.8571 259.437 34.5804 260.509 33.5089C261.58 32.4375 262.857 31.5848 264.339 30.9509C265.821 30.317 267.375 30 269 30ZM277.29 48.0938C278.621 46.2634 279.286 44.2321 279.286 42C279.286 40.6071 279.013 39.2768 278.469 38.0089C277.924 36.7411 277.192 35.6473 276.272 34.7277C275.353 33.808 274.259 33.0759 272.991 32.5313C271.723 31.9866 270.393 31.7143 269 31.7143C267.607 31.7143 266.277 31.9866 265.009 32.5313C263.741 33.0759 262.647 33.808 261.728 34.7277C260.808 35.6473 260.076 36.7411 259.531 38.0089C258.987 39.2768 258.714 40.6071 258.714 42C258.714 44.2321 259.379 46.2634 260.71 48.0938C261.299 45.1741 262.665 43.7143 264.808 43.7143C265.978 44.8571 267.375 45.4286 269 45.4286C270.625 45.4286 272.022 44.8571 273.192 43.7143C275.335 43.7143 276.701 45.1741 277.29 48.0938ZM274.143 39.4286C274.143 38.0089 273.641 36.7969 272.636 35.7924C271.632 34.7879 270.42 34.2857 269 34.2857C267.58 34.2857 266.368 34.7879 265.364 35.7924C264.359 36.7969 263.857 38.0089 263.857 39.4286C263.857 40.8482 264.359 42.0603 265.364 43.0647C266.368 44.0692 267.58 44.5714 269 44.5714C270.42 44.5714 271.632 44.0692 272.636 43.0647C273.641 42.0603 274.143 40.8482 274.143 39.4286Z" fill="black"/>
<path d="M546.5 33.5625V33.875H551.5V33.5625C551.5 32.8995 551.237 32.2636 550.768 31.7947C550.299 31.3259 549.663 31.0625 549 31.0625C548.337 31.0625 547.701 31.3259 547.232 31.7947C546.763 32.2636 546.5 32.8995 546.5 33.5625V33.5625ZM544.937 33.875V33.5625C544.937 32.4851 545.366 31.4517 546.127 30.6899C546.889 29.928 547.923 29.5 549 29.5C550.077 29.5 551.111 29.928 551.873 30.6899C552.634 31.4517 553.062 32.4851 553.062 33.5625V33.875H560.094C560.301 33.875 560.5 33.9573 560.646 34.1038C560.793 34.2503 560.875 34.4491 560.875 34.6563C560.875 34.8635 560.793 35.0622 560.646 35.2087C560.5 35.3552 560.301 35.4375 560.094 35.4375H558.271L557.021 50.3475C556.926 51.4798 556.409 52.535 555.572 53.3041C554.736 54.0732 553.641 54.5001 552.505 54.5H545.495C544.359 54.4999 543.264 54.073 542.428 53.3039C541.592 52.5348 541.075 51.4797 540.98 50.3475L539.73 35.4375H537.906C537.699 35.4375 537.5 35.3552 537.354 35.2087C537.207 35.0622 537.125 34.8635 537.125 34.6563C537.125 34.4491 537.207 34.2503 537.354 34.1038C537.5 33.9573 537.699 33.875 537.906 33.875H544.937ZM542.537 50.2169C542.599 50.9586 542.938 51.65 543.486 52.1539C544.033 52.6578 544.751 52.9374 545.495 52.9375H552.505C553.249 52.9376 553.967 52.658 554.515 52.1541C555.063 51.6502 555.402 50.9587 555.464 50.2169L556.702 35.4375H541.297L542.537 50.2169V50.2169ZM547.437 39.6563C547.437 39.5537 547.417 39.4521 547.378 39.3573C547.339 39.2625 547.281 39.1764 547.209 39.1038C547.136 39.0313 547.05 38.9737 546.955 38.9345C546.86 38.8952 546.759 38.875 546.656 38.875C546.554 38.875 546.452 38.8952 546.357 38.9345C546.262 38.9737 546.176 39.0313 546.104 39.1038C546.031 39.1764 545.974 39.2625 545.934 39.3573C545.895 39.4521 545.875 39.5537 545.875 39.6563V48.7188C545.875 48.8213 545.895 48.9229 545.934 49.0177C545.974 49.1125 546.031 49.1986 546.104 49.2712C546.176 49.3437 546.262 49.4013 546.357 49.4405C546.452 49.4798 546.554 49.5 546.656 49.5C546.759 49.5 546.86 49.4798 546.955 49.4405C547.05 49.4013 547.136 49.3437 547.209 49.2712C547.281 49.1986 547.339 49.1125 547.378 49.0177C547.417 48.9229 547.437 48.8213 547.437 48.7188V39.6563ZM551.344 38.875C551.775 38.875 552.125 39.225 552.125 39.6563V48.7188C552.125 48.926 552.043 49.1247 551.896 49.2712C551.75 49.4177 551.551 49.5 551.344 49.5C551.137 49.5 550.938 49.4177 550.791 49.2712C550.645 49.1247 550.562 48.926 550.562 48.7188V39.6563C550.562 39.225 550.912 38.875 551.344 38.875Z" fill="black"/>
<path d="M57.8537 86.3761L48.1375 96.3436C47.9668 96.5187 47.8713 96.7535 47.8713 96.998C47.8713 97.2425 47.9668 97.4773 48.1375 97.6524L57.8537 107.624C57.9332 107.705 58.0283 107.77 58.1333 107.814C58.2382 107.859 58.351 107.882 58.465 107.882C58.5789 107.882 58.6917 107.859 58.7967 107.814C58.9017 107.77 58.9968 107.705 59.0762 107.624C59.2398 107.456 59.3313 107.231 59.3313 106.997C59.3313 106.763 59.2398 106.539 59.0762 106.371L49.9394 96.998L59.0762 87.6268C59.2392 87.4594 59.3304 87.2351 59.3304 87.0015C59.3304 86.7679 59.2392 86.5435 59.0762 86.3761C58.9968 86.2945 58.9017 86.2296 58.7967 86.1853C58.6917 86.141 58.5789 86.1182 58.465 86.1182C58.351 86.1182 58.2382 86.141 58.1333 86.1853C58.0283 86.2296 57.9332 86.2945 57.8537 86.3761V86.3761Z" fill="black"/>
<path d="M122.146 107.624L131.863 97.6564C132.033 97.4813 132.129 97.2465 132.129 97.002C132.129 96.7575 132.033 96.5227 131.863 96.3476L122.146 86.3764C122.067 86.2947 121.972 86.2298 121.867 86.1855C121.762 86.1412 121.649 86.1184 121.535 86.1184C121.421 86.1184 121.308 86.1412 121.203 86.1855C121.098 86.2298 121.003 86.2947 120.924 86.3764C120.76 86.5438 120.669 86.7686 120.669 87.0026C120.669 87.2367 120.76 87.4614 120.924 87.6289L130.061 97.002L120.924 106.373C120.761 106.541 120.67 106.765 120.67 106.999C120.67 107.232 120.761 107.457 120.924 107.624C121.003 107.705 121.098 107.77 121.203 107.815C121.308 107.859 121.421 107.882 121.535 107.882C121.649 107.882 121.762 107.859 121.867 107.815C121.972 107.77 122.067 107.705 122.146 107.624V107.624Z" fill="black"/>
<path d="M420.648 52.0342L413.04 44.4258C414.221 42.8994 414.859 41.0332 414.859 39.0703C414.859 36.7207 413.942 34.5176 412.284 32.8564C410.626 31.1953 408.417 30.2812 406.07 30.2812C403.724 30.2812 401.515 31.1982 399.856 32.8564C398.195 34.5146 397.281 36.7207 397.281 39.0703C397.281 41.417 398.198 43.626 399.856 45.2842C401.515 46.9453 403.721 47.8594 406.07 47.8594C408.033 47.8594 409.896 47.2207 411.423 46.043L419.031 53.6484C419.054 53.6708 419.08 53.6885 419.109 53.7005C419.138 53.7126 419.17 53.7188 419.201 53.7188C419.233 53.7188 419.264 53.7126 419.293 53.7005C419.322 53.6885 419.349 53.6708 419.371 53.6484L420.648 52.374C420.671 52.3517 420.688 52.3252 420.701 52.2961C420.713 52.2669 420.719 52.2357 420.719 52.2041C420.719 52.1725 420.713 52.1413 420.701 52.1121C420.688 52.083 420.671 52.0565 420.648 52.0342V52.0342ZM410.711 43.7109C409.469 44.9502 407.822 45.6328 406.07 45.6328C404.318 45.6328 402.672 44.9502 401.43 43.7109C400.19 42.4687 399.508 40.8223 399.508 39.0703C399.508 37.3184 400.19 35.6689 401.43 34.4297C402.672 33.1904 404.318 32.5078 406.07 32.5078C407.822 32.5078 409.472 33.1875 410.711 34.4297C411.95 35.6719 412.633 37.3184 412.633 39.0703C412.633 40.8223 411.95 42.4717 410.711 43.7109Z" fill="black"/>
<path d="M490.429 42.7139H486.143M473.286 32.7139C473.665 32.7139 474.028 32.8644 474.296 33.1323C474.564 33.4002 474.714 33.7636 474.714 34.1424V36.9996C474.714 37.3785 474.564 37.7418 474.296 38.0097C474.028 38.2776 473.665 38.4282 473.286 38.4282C472.907 38.4282 472.544 38.2776 472.276 38.0097C472.008 37.7418 471.857 37.3785 471.857 36.9996V34.1424C471.857 33.7636 472.008 33.4002 472.276 33.1323C472.544 32.8644 472.907 32.7139 473.286 32.7139V32.7139ZM490.429 35.571H474.714H490.429ZM471.857 35.571H467.572H471.857ZM473.286 46.9996C473.665 46.9996 474.028 47.1501 474.296 47.418C474.564 47.6859 474.714 48.0493 474.714 48.4281V51.2853C474.714 51.6642 474.564 52.0275 474.296 52.2954C474.028 52.5634 473.665 52.7139 473.286 52.7139C472.907 52.7139 472.544 52.5634 472.276 52.2954C472.008 52.0275 471.857 51.6642 471.857 51.2853V48.4281C471.857 48.0493 472.008 47.6859 472.276 47.418C472.544 47.1501 472.907 46.9996 473.286 46.9996ZM490.429 49.8567H474.714H490.429ZM471.857 49.8567H467.572H471.857ZM484.714 39.8567C485.093 39.8567 485.457 40.0072 485.725 40.2751C485.992 40.543 486.143 40.9064 486.143 41.2853V44.1424C486.143 44.5213 485.992 44.8847 485.725 45.1526C485.457 45.4205 485.093 45.571 484.714 45.571C484.336 45.571 483.972 45.4205 483.704 45.1526C483.436 44.8847 483.286 44.5213 483.286 44.1424V41.2853C483.286 40.9064 483.436 40.543 483.704 40.2751C483.972 40.0072 484.336 39.8567 484.714 39.8567V39.8567ZM483.286 42.7139H467.572H483.286Z" stroke="black" stroke-linecap="round" stroke-linejoin="round"/>
<path d="M261.25 97C260.261 97 259.294 97.2933 258.472 97.8427C257.65 98.3921 257.009 99.173 256.631 100.087C256.252 101 256.153 102.006 256.346 102.975C256.539 103.945 257.015 104.836 257.714 105.536C258.414 106.235 259.305 106.711 260.275 106.904C261.244 107.097 262.25 106.998 263.163 106.619C264.077 106.241 264.858 105.6 265.407 104.778C265.957 103.956 266.25 102.989 266.25 102V87C266.25 88.6576 266.908 90.2473 268.081 91.4194C269.253 92.5915 270.842 93.25 272.5 93.25" stroke="black" stroke-width="3.33333" stroke-linecap="round" stroke-linejoin="round"/>
<rect x="250.5" y="82.5" width="29" height="29" rx="14.5" stroke="black"/>
<path d="M201.25 86.3746C201.25 86.2088 201.184 86.0498 201.067 85.9326C200.95 85.8154 200.791 85.7496 200.625 85.7496H197.5C195.926 85.6712 194.386 86.2188 193.215 87.2728C192.044 88.3268 191.337 89.8014 191.25 91.3746V94.7496H188.125C187.959 94.7496 187.8 94.8154 187.683 94.9326C187.566 95.0498 187.5 95.2088 187.5 95.3746V98.6246C187.5 98.7903 187.566 98.9493 187.683 99.0665C187.8 99.1837 187.959 99.2496 188.125 99.2496H191.25V107.625C191.25 107.79 191.316 107.949 191.433 108.067C191.55 108.184 191.709 108.25 191.875 108.25H195.625C195.791 108.25 195.95 108.184 196.067 108.067C196.184 107.949 196.25 107.79 196.25 107.625V99.2496H199.525C199.664 99.2516 199.8 99.2072 199.911 99.1234C200.022 99.0397 200.101 98.9213 200.137 98.7871L201.037 95.5371C201.062 95.4447 201.066 95.3479 201.047 95.2541C201.029 95.1602 200.989 95.0719 200.931 94.9958C200.873 94.9197 200.799 94.858 200.713 94.8153C200.627 94.7726 200.533 94.7501 200.437 94.7496H196.25V91.3746C196.281 91.0652 196.426 90.7785 196.658 90.5704C196.889 90.3624 197.189 90.248 197.5 90.2496H200.625C200.791 90.2496 200.95 90.1837 201.067 90.0665C201.184 89.9493 201.25 89.7903 201.25 89.6246V86.3746Z" fill="black"/>
<rect x="180.5" y="82.5" width="29" height="29" rx="14.5" stroke="black"/>
<path d="M346.184 92.3816C346.171 91.4348 345.994 90.4975 345.66 89.6116C345.371 88.8643 344.928 88.1856 344.362 87.6189C343.795 87.0521 343.116 86.6099 342.369 86.3203C341.494 85.992 340.57 85.8145 339.636 85.7953C338.434 85.7416 338.053 85.7266 335 85.7266C331.948 85.7266 331.556 85.7266 330.363 85.7953C329.429 85.8146 328.506 85.9921 327.631 86.3203C326.884 86.6097 326.205 87.0519 325.638 87.6186C325.072 88.1853 324.629 88.8641 324.34 89.6116C324.011 90.4855 323.834 91.4092 323.816 92.3428C323.763 93.5466 323.746 93.9278 323.746 96.9803C323.746 100.033 323.746 100.423 323.816 101.618C323.835 102.553 324.011 103.475 324.34 104.352C324.63 105.099 325.072 105.777 325.639 106.344C326.206 106.91 326.885 107.352 327.633 107.642C328.504 107.983 329.428 108.173 330.364 108.204C331.568 108.258 331.949 108.274 335.001 108.274C338.054 108.274 338.445 108.274 339.639 108.204C340.573 108.186 341.497 108.009 342.371 107.68C343.118 107.39 343.797 106.948 344.364 106.381C344.93 105.815 345.373 105.136 345.663 104.389C345.991 103.514 346.168 102.592 346.186 101.655C346.24 100.453 346.256 100.072 346.256 97.0178C346.254 93.9653 346.254 93.5778 346.184 92.3816V92.3816ZM334.993 102.753C331.8 102.753 329.214 100.167 329.214 96.9741C329.214 93.7816 331.8 91.1953 334.993 91.1953C336.525 91.1953 337.995 91.8041 339.079 92.8879C340.163 93.9716 340.771 95.4414 340.771 96.9741C340.771 98.5067 340.163 99.9765 339.079 101.06C337.995 102.144 336.525 102.753 334.993 102.753V102.753ZM341.001 92.3291C340.824 92.3292 340.649 92.2945 340.485 92.2268C340.322 92.1592 340.173 92.0599 340.048 91.9348C339.923 91.8096 339.824 91.661 339.756 91.4974C339.688 91.3339 339.654 91.1586 339.654 90.9816C339.654 90.8047 339.689 90.6295 339.756 90.4661C339.824 90.3027 339.923 90.1542 340.048 90.0292C340.173 89.9041 340.322 89.8049 340.485 89.7372C340.649 89.6695 340.824 89.6347 341.001 89.6347C341.178 89.6347 341.353 89.6695 341.516 89.7372C341.68 89.8049 341.828 89.9041 341.953 90.0292C342.078 90.1542 342.177 90.3027 342.245 90.4661C342.313 90.6295 342.348 90.8047 342.348 90.9816C342.348 91.7266 341.745 92.3291 341.001 92.3291Z" fill="black"/>
<path d="M334.993 100.727C337.066 100.727 338.746 99.0466 338.746 96.9735C338.746 94.9003 337.066 93.2197 334.993 93.2197C332.919 93.2197 331.239 94.9003 331.239 96.9735C331.239 99.0466 332.919 100.727 334.993 100.727Z" fill="black"/>
<rect x="320.5" y="82.5" width="29" height="29" rx="14.5" stroke="black"/>
<path d="M415.619 100.828L414.597 99.1905L412.399 100.278L413.42 101.912C413.48 102.007 413.523 102.105 413.551 102.207C413.597 102.392 413.591 102.584 413.533 102.766C413.503 102.859 413.459 102.947 413.403 103.029C413.296 103.191 413.146 103.326 412.966 103.423C412.771 103.526 412.548 103.579 412.321 103.576H406.537V101.339L401.508 104.695L406.537 108.05V105.813H412.321C412.671 105.813 413.015 105.772 413.341 105.691C413.97 105.537 414.542 105.237 414.999 104.823C415.223 104.623 415.417 104.398 415.573 104.16C416.069 103.414 416.22 102.526 415.995 101.683C415.912 101.384 415.786 101.097 415.619 100.828V100.828ZM396.305 95.7904L393.401 100.958C393.25 101.225 393.14 101.509 393.073 101.802C392.95 102.351 392.983 102.918 393.17 103.453C393.357 103.987 393.691 104.471 394.142 104.861C394.366 105.056 394.615 105.226 394.891 105.368C395.465 105.66 396.114 105.813 396.775 105.813H398.993V103.576H396.775C396.555 103.577 396.339 103.527 396.147 103.431C395.963 103.337 395.81 103.202 395.703 103.04C395.592 102.882 395.528 102.703 395.515 102.517C395.509 102.425 395.517 102.333 395.538 102.243C395.561 102.146 395.598 102.049 395.65 101.957L398.486 96.91L400.497 97.9423L399.745 92.3913L393.964 94.588L396.305 95.7904ZM412.317 97.9434L413.069 92.3913L411.01 93.4483L407.436 87.725C407.186 87.318 406.843 86.9622 406.428 86.6811C406.014 86.3999 405.538 86.1996 405.03 86.0932C404.712 86.0276 404.386 85.9964 404.06 86.0003C403.395 86.0114 402.745 86.1785 402.176 86.4846C401.569 86.8125 401.08 87.2879 400.766 87.8548L399.845 89.4922L402.095 90.4933L403.015 88.8547C403.072 88.754 403.142 88.6634 403.224 88.584C403.374 88.4385 403.567 88.3338 403.781 88.282C403.998 88.2274 404.227 88.2232 404.447 88.2697C404.615 88.3048 404.772 88.3713 404.909 88.4648C405.046 88.5584 405.158 88.6768 405.239 88.8122L408.832 94.5679L406.537 95.7467L412.317 97.9434Z" fill="black"/>
<path d="M473.471 87.0726C474.628 87.0726 475.566 86.1537 475.566 85.0202C475.566 83.8867 474.628 82.9678 473.471 82.9678C472.314 82.9678 471.376 83.8867 471.376 85.0202C471.376 86.1537 472.314 87.0726 473.471 87.0726Z" fill="black"/>
<path d="M473.638 87.8164H472.039C470.537 87.8164 469.375 88.7137 469.375 90.2107V96.6899C469.375 97.7338 470.974 97.7338 470.974 96.6899V90.4263H471.506V107.129C471.506 107.773 471.916 108.173 472.572 108.173C473.23 108.173 473.638 107.773 473.638 107.129V87.8164ZM480.565 95.646L478.424 90.2399C478.238 89.0284 476.989 87.8164 475.564 87.8164H474.171V100.23C474.437 100.231 474.703 100.27 474.703 100.344V107.129C474.703 107.672 475.192 108.173 475.769 108.173C476.348 108.173 476.835 107.672 476.835 107.129V100.344H478.896C479.089 100.344 479.453 100.002 479.453 99.8217C479.453 99.78 479.468 99.3358 479.453 99.2998L476.304 90.8245L476.286 90.7374C476.286 90.6136 476.392 90.5134 476.524 90.5134C476.637 90.5134 476.731 90.587 476.756 90.6852L478.896 96.1679C479.039 96.4816 479.624 96.6899 480.008 96.6899C480.523 96.6899 480.576 95.7008 480.565 95.646Z" fill="black"/>
<path d="M555.256 86.8711C555.256 93.3301 533.871 90.1006 533.871 103.019C533.871 107.863 536.247 109.478 536.247 109.478H538.623C538.623 109.478 535.059 107.863 535.059 103.019C535.059 99.7891 545.751 96.5596 545.751 96.5596C545.751 96.5596 536.271 100.054 536.271 103.371C551.398 104.98 559.773 93.012 555.255 86.8711H555.256Z" fill="black"/>
</svg>
