<svg width="70" height="70" viewBox="0 0 70 70" fill="none" xmlns="http://www.w3.org/2000/svg">
<path d="M20.5977 13.6409L17.8567 11.1243V59.3992H20.5977V13.6409Z" fill="#8F8F8F"/>
<path d="M25.7753 7.9612L21.9496 3.39819L18.343 7.96654L21.9442 11.2793L25.7753 7.9612Z" fill="#C8C8C8"/>
<path d="M17.8567 67.3712H26.3095V62.0013H17.8567V67.3712Z" fill="#E2E2E2" fill-opacity="0.2"/>
<path d="M46.3408 2.63416V67.3765H52.1488V2.63416H46.3408Z" fill="#E2E2E2" fill-opacity="0.2"/>
<path d="M23.2266 59.3725H26.3095V10.9694L23.2426 13.6409V59.3779" fill="#8F8F8F"/>
<path d="M37.9094 9.41988H41.4145C41.7631 9.41988 42.0974 9.55836 42.3439 9.80486C42.5904 10.0514 42.7289 10.3857 42.7289 10.7343C42.7289 11.0829 42.5904 11.4172 42.3439 11.6637C42.0974 11.9102 41.7631 12.0487 41.4145 12.0487H37.9094V18.2894H41.4145C41.7627 18.2908 42.0961 18.4298 42.3423 18.676C42.5885 18.9222 42.7275 19.2557 42.7289 19.6038C42.7289 19.9524 42.5904 20.2868 42.3439 20.5333C42.0974 20.7798 41.7631 20.9183 41.4145 20.9183H37.9094V27.1643H41.4145C41.7631 27.1643 42.0974 27.3028 42.3439 27.5493C42.5904 27.7958 42.7289 28.1301 42.7289 28.4787C42.7275 28.8269 42.5885 29.1604 42.3423 29.4066C42.0961 29.6528 41.7627 29.7917 41.4145 29.7931H37.9094V36.0339H41.4145C41.7627 36.0353 42.0961 36.1742 42.3423 36.4204C42.5885 36.6666 42.7275 37.0001 42.7289 37.3483C42.7289 37.6969 42.5904 38.0312 42.3439 38.2777C42.0974 38.5242 41.7631 38.6627 41.4145 38.6627H37.9094V44.9088H41.4145C41.7631 44.9088 42.0974 45.0473 42.3439 45.2938C42.5904 45.5403 42.7289 45.8746 42.7289 46.2232C42.7275 46.5714 42.5885 46.9049 42.3423 47.1511C42.0961 47.3973 41.7627 47.5362 41.4145 47.5376H37.9094V53.7783H41.4145C41.7631 53.7783 42.0974 53.9168 42.3439 54.1633C42.5904 54.4098 42.7289 54.7441 42.7289 55.0927C42.7289 55.4413 42.5904 55.7757 42.3439 56.0222C42.0974 56.2687 41.7631 56.4072 41.4145 56.4072H37.9094V67.3658H43.7174V2.63416H37.9094V9.42524" fill="#E2E2E2" fill-opacity="0.2"/>
<path d="M26.3095 59.372H23.2426V13.6404L26.3095 10.9688V59.372ZM26.3095 67.3866H17.8567V62.0168H26.3095V67.3866ZM17.8567 11.1024L20.5977 13.619V59.3773H17.8567V11.1024ZM21.9442 3.39763L25.7699 7.96064L21.9389 11.2787L18.3376 7.96598L21.9442 3.39763ZM22.922 0.474944C22.7993 0.322275 22.6427 0.200297 22.4646 0.118682C22.2865 0.0370664 22.0919 -0.00192769 21.8961 0.0047648C21.7002 0.00750583 21.5073 0.0540169 21.3317 0.140919C21.156 0.227821 21.002 0.352903 20.8809 0.507006L15.5378 7.29809C15.3539 7.53083 15.2541 7.81894 15.2546 8.11558V68.6743C15.2546 69.0229 15.3931 69.3573 15.6396 69.6038C15.8861 69.8503 16.2205 69.9887 16.5691 69.9887H27.6346C27.9832 69.9887 28.3176 69.8503 28.5641 69.6038C28.8106 69.3573 28.949 69.0229 28.949 68.6743V8.11024C28.9478 7.80124 28.8381 7.50247 28.6391 7.26603L22.9434 0.474944" fill="#171A1C"/>
<path d="M46.3407 67.3712V2.63415H52.1487V67.3765L46.3407 67.3712ZM43.712 67.3712H37.9093V56.4125H41.4144C41.763 56.4125 42.0973 56.274 42.3438 56.0275C42.5903 55.781 42.7288 55.4467 42.7288 55.0981C42.7288 54.7495 42.5903 54.4152 42.3438 54.1687C42.0973 53.9222 41.763 53.7837 41.4144 53.7837H37.9093V47.5429H41.4144C41.7626 47.5415 42.0961 47.4026 42.3423 47.1564C42.5885 46.9102 42.7274 46.5767 42.7288 46.2285C42.7288 45.8799 42.5903 45.5456 42.3438 45.2991C42.0973 45.0526 41.763 44.9141 41.4144 44.9141H37.9093V38.668H41.4144C41.763 38.668 42.0973 38.5296 42.3438 38.2831C42.5903 38.0366 42.7288 37.7022 42.7288 37.3536C42.7274 37.0055 42.5885 36.672 42.3423 36.4258C42.0961 36.1796 41.7626 36.0406 41.4144 36.0392H37.9093V29.7985H41.4144C41.7626 29.7971 42.0961 29.6581 42.3423 29.4119C42.5885 29.1658 42.7274 28.8322 42.7288 28.4841C42.7288 28.1355 42.5903 27.8011 42.3438 27.5546C42.0973 27.3082 41.763 27.1697 41.4144 27.1697H37.9093V20.9236H41.4144C41.763 20.9236 42.0973 20.7851 42.3438 20.5386C42.5903 20.2921 42.7288 19.9578 42.7288 19.6092C42.7274 19.261 42.5885 18.9275 42.3423 18.6813C42.0961 18.4351 41.7626 18.2962 41.4144 18.2948H37.9093V12.038H41.4144C41.763 12.038 42.0973 11.8995 42.3438 11.653C42.5903 11.4065 42.7288 11.0722 42.7288 10.7236C42.7288 10.551 42.6948 10.3801 42.6288 10.2206C42.5627 10.0611 42.4659 9.91623 42.3438 9.79418C42.2218 9.67212 42.0769 9.57531 41.9174 9.50925C41.7579 9.4432 41.587 9.40919 41.4144 9.40919H37.9093V2.63415H43.7173L43.712 67.3712ZM52.1487 0H37.9093C37.2126 0.0014119 36.5447 0.27882 36.052 0.771512C35.5593 1.2642 35.2819 1.93202 35.2805 2.62879V67.3712C35.2819 68.068 35.5593 68.7358 36.052 69.2285C36.5447 69.7212 37.2126 69.9986 37.9093 70H52.1487C52.8455 69.9986 53.5133 69.7212 54.006 69.2285C54.4987 68.7358 54.7761 68.068 54.7775 67.3712V2.63415C54.7761 1.93738 54.4987 1.26954 54.006 0.776852C53.5133 0.284161 52.8455 0.00675207 52.1487 0.00534017" fill="#171A1C"/>
</svg>
