<svg width="70" height="70" viewBox="0 0 70 70" fill="none" xmlns="http://www.w3.org/2000/svg">
<g clip-path="url(#clip0_404_452)">
<path fill-rule="evenodd" clip-rule="evenodd" d="M23.933 3.50004C23.6727 3.49744 23.4152 3.55292 23.1791 3.66244L1.0129 13.9601C0.710285 14.1007 0.454152 14.3248 0.274692 14.6061C0.0952309 14.8874 -7.74291e-05 15.2141 4.72006e-08 15.5477V64.75C-6.82407e-05 65.0441 0.0739617 65.3334 0.215253 65.5913C0.356544 65.8492 0.56054 66.0673 0.8084 66.2255C1.05626 66.3838 1.33999 66.477 1.63339 66.4966C1.9268 66.5162 2.2204 66.4615 2.4871 66.3376L23.9162 56.3829L45.3453 66.3369C45.5764 66.4444 45.8282 66.5001 46.0831 66.5001C46.338 66.5001 46.5898 66.4444 46.8209 66.3369L57.6289 61.3172L62.2223 69.2727C62.4669 69.6959 62.9545 69.9555 63.5781 69.9945C64.2016 70.0335 64.9099 69.8486 65.5473 69.4806C66.1846 69.1126 66.6987 68.5916 66.9766 68.0321C67.2545 67.4726 67.2734 66.9205 67.0292 66.4972L62.6822 58.968L68.9871 56.0399C69.2897 55.8994 69.5458 55.6753 69.7253 55.394C69.9048 55.1127 70.0001 54.786 70 54.4523V5.25004C70.0001 4.95599 69.926 4.66666 69.7847 4.40877C69.6435 4.15089 69.4395 3.93276 69.1916 3.77454C68.9437 3.61633 68.66 3.52312 68.3666 3.50352C68.0732 3.48393 67.7796 3.53858 67.5129 3.66244L46.0838 13.6171L24.6547 3.66314C24.4283 3.55786 24.182 3.50225 23.9323 3.50004H23.933ZM24.9522 7.66014L45.0254 16.9862L45.0212 17.6106C42.1752 17.6979 39.3952 18.4899 36.9306 19.9157C28.6601 24.6911 25.8118 35.3227 30.5865 43.5925C33.649 48.8971 39.1153 51.9533 44.8245 52.2046L44.7671 62.2097L24.6939 52.885L24.9529 7.66084L24.9522 7.66014ZM22.8522 7.67414L22.5932 53.1391L3.5 62.0067V16.6649L22.8522 7.67414ZM66.5 7.99264V53.3365L60.9259 55.9265L58.4801 51.6908C58.3467 51.4594 58.1392 51.2745 57.872 51.1488C57.6048 51.0231 57.2842 50.9596 56.9324 50.9628L55.7536 48.9237C62.8404 43.7864 65.0783 34.0011 60.6088 26.2598C58.2218 22.1242 54.369 19.3452 50.0801 18.1958C49.1106 17.9377 48.1206 17.7635 47.1212 17.675L47.1254 16.9925L66.5 7.99264ZM45.241 21.4389C46.5389 21.4042 47.8349 21.5575 49.0889 21.8939C50.8004 22.3518 52.4045 23.1435 53.809 24.2234C55.2135 25.3034 56.3906 26.6504 57.2726 28.1869C58.1617 29.719 58.7394 31.4116 58.9726 33.1676C59.2058 34.9236 59.0898 36.7083 58.6314 38.4193C58.173 40.1304 57.3812 41.734 56.3013 43.1382C55.2215 44.5424 53.875 45.7194 52.339 46.6018C50.8067 47.491 49.1139 48.0688 47.3577 48.302C45.6016 48.5353 43.8166 48.4193 42.1054 47.9608C40.3942 47.5023 38.7903 46.7104 37.386 45.6304C35.9817 44.5504 34.8045 43.2037 33.922 41.6675C33.033 40.1353 32.4555 38.4426 32.2224 36.6865C31.9894 34.9304 32.1055 33.1457 32.564 31.4346C33.0225 29.7235 33.8145 28.1198 34.8944 26.7156C35.9743 25.3114 37.321 24.1343 38.857 23.2519C40.8004 22.1245 42.9951 21.5012 45.241 21.4389ZM52.64 50.7213L53.8181 52.7625C53.6394 53.0654 53.5339 53.3746 53.5089 53.6688C53.4838 53.963 53.5399 54.2351 53.6732 54.4663L55.8712 58.2736L46.8657 62.4575L46.9245 52.1675C48.8985 52.0174 50.8319 51.5284 52.64 50.722V50.7213Z" fill="black"/>
</g>
<defs>
<clipPath id="clip0_404_452">
<rect width="70" height="70" fill="white"/>
</clipPath>
</defs>
</svg>
