<svg width="70" height="70" viewBox="0 0 70 70" fill="none" xmlns="http://www.w3.org/2000/svg">
<path d="M66.9694 0.00720215H2.88748C1.37227 0.00720215 0 1.37947 0 2.89468V52.8109C0 54.3261 1.21503 55.6983 2.88748 55.6983H32.1053V64.2178H22.2136C20.6983 64.2178 19.3261 65.4328 19.3261 67.1053C19.3261 68.6205 20.5411 69.9928 22.2136 69.9928H47.7863C49.3015 69.9928 50.6738 68.6205 50.6738 67.1053C50.6738 65.5901 49.4587 64.2178 47.7863 64.2178H37.8946V55.6983H67.1124C68.6276 55.6983 69.9999 54.4833 69.9999 52.8109V2.89468C70.0142 1.37947 68.6419 0.00720215 66.9694 0.00720215ZM64.082 49.9234H5.78925V5.79645H64.082V49.9234Z" fill="black"/>
<path d="M22.0706 37.6016C23.7002 39.6314 25.5728 38.6736 26.0302 38.3592L55.8627 18.7186C57.235 17.8038 57.5352 15.9741 56.6203 14.6161C55.7055 13.2438 53.8758 12.9437 52.5178 13.8585L25.2726 32.1268L18.2683 21.163C17.5107 19.7907 15.681 19.3333 14.3088 20.2481C12.9365 21.0057 12.4791 22.8354 13.3939 24.2077L22.0706 37.6016Z" fill="black"/>
</svg>
