<svg width="515" height="382" viewBox="0 0 515 382" fill="none" xmlns="http://www.w3.org/2000/svg">
<path d="M458.423 355.027H60.0992L9.22466 186.254C8.63105 183.085 8.75158 179.826 9.57803 176.709C10.4041 173.592 11.9159 170.694 14.0048 168.222L117.844 26.7669C119.786 24.4662 122.187 22.5857 124.895 21.2414C127.603 19.8975 130.562 19.1191 133.587 18.9542L385.174 30.7893C386.507 30.8544 387.84 30.8626 389.173 30.8788C393.357 30.9367 397.437 32.1674 400.942 34.4282C404.447 36.6885 407.232 39.8865 408.976 43.6503C410.095 46.122 411.366 48.5232 412.782 50.8401L500.038 223.599C501.178 227.338 501.289 231.311 500.351 235.105L458.423 355.027Z" fill="#F0F0F0"/>
<path d="M444.142 322.876H75.6214C75.4907 322.876 75.3655 322.825 75.2731 322.733C75.1807 322.644 75.1289 322.519 75.1289 322.389C75.1289 322.262 75.1807 322.137 75.2731 322.045C75.3655 321.953 75.4907 321.902 75.6214 321.902H444.142C444.274 321.902 444.4 321.953 444.49 322.045C444.583 322.137 444.635 322.262 444.635 322.389C444.635 322.519 444.583 322.644 444.49 322.733C444.4 322.825 444.274 322.876 444.142 322.876Z" fill="#B2B6BB"/>
<path d="M96.8936 298.52H424.112L416.731 321.902H105.066L96.8936 298.52Z" fill="#B2B6BB"/>
<path d="M207.371 262.921H202.43V297.588H207.371V262.921Z" fill="#61656D"/>
<path d="M193.26 260.078C193.26 260.078 193.544 270.516 202.714 276.106L202.624 272.987C202.624 272.987 196.54 267.021 197.21 261.944L193.26 260.078Z" fill="#61656D"/>
<path d="M217.105 260.078C217.105 260.078 216.4 270.902 207.23 276.482L206.75 272.891C206.75 272.891 214.742 267.581 213.509 261.196L217.105 260.078Z" fill="#61656D"/>
<path opacity="0.2" d="M207.371 263.418H205.112V297.588H207.371V263.418Z" fill="black"/>
<path opacity="0.2" d="M195.024 261.368C195.024 261.368 196.115 270.686 202.466 274.168L202.44 272.837C202.44 272.837 196.929 267.458 197.142 262.173C196.462 261.843 195.753 261.573 195.024 261.368Z" fill="black"/>
<path opacity="0.2" d="M215.113 261.307C215.113 261.307 215.905 268.342 207.388 274.4L207.333 272.49C207.333 272.49 214.092 267.833 213.577 261.915L215.113 261.307Z" fill="black"/>
<path d="M227.485 244.703C227.418 249.967 225.256 254.994 221.468 258.693C217.68 262.393 212.571 264.467 207.247 264.467C201.924 264.467 196.814 262.393 193.026 258.693C189.238 254.994 187.077 249.967 187.009 244.703C187.009 233.647 196.07 210.323 207.249 210.323C218.427 210.323 227.485 233.656 227.485 244.703Z" fill="#B2B6BB"/>
<path opacity="0.1" d="M220.163 220.821C220.192 221.426 220.208 222.034 220.208 222.646C220.208 240.303 209.296 254.613 195.842 254.613C193.487 254.607 191.154 254.167 188.963 253.314C190.94 257.41 194.266 260.721 198.395 262.703C202.524 264.685 207.212 265.221 211.689 264.221C216.166 263.222 220.167 260.748 223.036 257.204C225.904 253.66 227.47 249.258 227.476 244.719C227.485 238.508 224.64 228.461 220.163 220.821Z" fill="black"/>
<path opacity="0.05" d="M227.681 244.753C227.681 233.752 218.54 210.692 207.181 210.138V264.891C218.553 264.691 227.681 255.755 227.681 244.753Z" fill="black"/>
<path d="M230.121 255.567C230.021 258.781 228.643 261.827 226.286 264.042C223.929 266.258 220.783 267.463 217.532 267.398C214.281 267.333 211.188 266.001 208.924 263.693C206.659 261.385 205.408 258.286 205.44 255.071C205.578 248.332 211.398 234.21 218.212 234.35C225.026 234.49 230.26 248.828 230.121 255.567Z" fill="#B2B6BB"/>
<path opacity="0.1" d="M225.956 240.918C225.956 241.291 225.956 241.66 225.956 242.036C225.738 252.798 218.904 261.39 210.7 261.225C209.261 261.194 207.842 260.896 206.515 260.346C207.668 262.87 209.655 264.931 212.149 266.191C214.642 267.451 217.496 267.835 220.239 267.279C222.983 266.724 225.454 265.262 227.246 263.135C229.039 261.007 230.047 258.34 230.105 255.571C230.199 251.802 228.589 245.633 225.956 240.918Z" fill="black"/>
<path opacity="0.05" d="M230.24 255.603C230.375 248.895 225.09 234.717 218.176 234.246L217.487 267.636C224.414 267.648 230.102 262.307 230.24 255.603Z" fill="black"/>
<path d="M203.149 251.989C203.099 254.867 201.909 257.61 199.833 259.627C197.759 261.645 194.965 262.775 192.055 262.775C189.146 262.775 186.352 261.645 184.277 259.627C182.202 257.61 181.011 254.867 180.962 251.989C180.962 245.941 185.928 233.137 192.054 233.137C198.179 233.137 203.149 245.928 203.149 251.989Z" fill="#B2B6BB"/>
<path opacity="0.1" d="M199.138 238.897C199.154 239.215 199.164 239.565 199.164 239.903C199.164 249.577 193.183 257.411 185.809 257.411C184.519 257.408 183.241 257.167 182.04 256.701C183.123 258.947 184.947 260.762 187.212 261.849C189.476 262.935 192.046 263.227 194.5 262.678C196.955 262.129 199.148 260.772 200.719 258.828C202.291 256.884 203.147 254.469 203.149 251.98C203.149 248.593 201.588 243.086 199.138 238.897Z" fill="black"/>
<path opacity="0.05" d="M203.255 252.018C203.255 245.986 198.243 233.342 192.018 233.042V263.061C198.243 262.943 203.255 258.047 203.255 252.018Z" fill="black"/>
<path d="M379.326 198.43H302.823V298.431H379.326V198.43Z" fill="#4D61FC"/>
<path opacity="0.4" d="M379.326 198.43H302.823V298.431H379.326V198.43Z" fill="white"/>
<path opacity="0.2" d="M379.329 198.43H302.904V205.822H379.329V198.43Z" fill="black"/>
<path opacity="0.15" d="M379.326 276.157H302.823V298.431H379.326V276.157Z" fill="black"/>
<path d="M234.322 195.208V298.431H302.823V195.208L268.573 174.845L234.322 195.208Z" fill="#4D61FC"/>
<path opacity="0.6" d="M234.322 195.208V298.431H302.823V195.208L268.573 174.845L234.322 195.208Z" fill="white"/>
<path opacity="0.15" d="M302.823 276.157H234.322V298.431H302.823V276.157Z" fill="black"/>
<path opacity="0.2" d="M233.955 195.208V202.266L265.386 182.723L302.936 205.955V199.751L268.206 174.845L233.955 195.208Z" fill="black"/>
<path d="M223.359 198.43L264.939 171.62L306.515 198.43L303.898 203.762L264.939 178.642L225.979 203.762L223.359 198.43Z" fill="white"/>
<path d="M264.938 171.62H351.368L386.182 197.252H304.429L264.938 171.62Z" fill="#61656D"/>
<path d="M303.895 203.765H386.179V196.985H303.895V203.765Z" fill="white"/>
<path opacity="0.1" d="M303.895 203.765H386.179V196.985H303.895V203.765Z" fill="black"/>
<path d="M278.016 205.223H253.618V235.337H278.016V205.223Z" fill="white"/>
<path opacity="0.15" d="M277.962 205.169H277.283V235.283H277.962V205.169Z" fill="black"/>
<path d="M275.792 206.703H255.839V233.857H275.792V206.703Z" fill="#F0F0F0"/>
<path d="M266.258 206.999H264.475V233.809H266.258V206.999Z" fill="white"/>
<path opacity="0.6" d="M255.919 226.876L270.684 206.716H275.705V211.831L259.074 233.784L255.919 233.796V226.876Z" fill="white"/>
<path opacity="0.15" d="M255.833 206.643H255.238V233.81H255.833V206.643Z" fill="black"/>
<path opacity="0.15" d="M266.258 206.939H265.663V233.813H266.258V206.939Z" fill="black"/>
<path d="M275.793 225.921H255.238V226.882H275.793V225.921Z" fill="white"/>
<path opacity="0.6" d="M267.978 233.797L275.793 224.164V230.718L272.793 233.857L267.978 233.797Z" fill="white"/>
<path opacity="0.6" d="M255.919 213.697L260.896 206.716H266.023L255.919 219.608V213.697Z" fill="white"/>
<path d="M321.705 234.694H362.457V210.227H321.705V234.694Z" fill="white"/>
<path opacity="0.15" d="M321.753 234.643H322.364V210.176H321.753V234.643Z" fill="black"/>
<path d="M323.709 233.361H360.995V211.558H323.709V233.361Z" fill="#F0F0F0"/>
<path d="M344.094 211.475H342.488V233.319H344.094V211.475Z" fill="white"/>
<path opacity="0.6" d="M355.932 233.221L332.777 211.571L323.758 211.418V215.544L342.227 233.221H355.932Z" fill="white"/>
<path opacity="0.15" d="M360.732 233.316H361.269V211.504H360.732V233.316Z" fill="black"/>
<path opacity="0.15" d="M342.488 233.319H343.025V211.418H342.488V233.319Z" fill="black"/>
<path opacity="0.6" d="M334.183 233.221L323.758 225.715V229.391L329.12 233.221H334.183Z" fill="white"/>
<path opacity="0.6" d="M360.699 219.475L350.554 211.714H344.152L360.699 224.801V219.475Z" fill="white"/>
<path d="M312.621 298.431H345.002V254.291L312.621 243.031V298.431Z" fill="#4D61FC"/>
<path opacity="0.6" d="M312.621 298.431H345.002V254.291L312.621 243.031V298.431Z" fill="white"/>
<path opacity="0.15" d="M343.817 281.276H312.621V298.431H343.817V281.276Z" fill="black"/>
<path d="M398.832 254.291H343.843V298.431H398.832V254.291Z" fill="#4D61FC"/>
<path opacity="0.4" d="M398.832 254.291H343.843V298.431H398.832V254.291Z" fill="white"/>
<path opacity="0.2" d="M398.832 254.291H345.001V257.853H398.832V254.291Z" fill="black"/>
<path opacity="0.15" d="M398.823 281.276H343.817V298.431H398.823V281.276Z" fill="black"/>
<path opacity="0.2" d="M312.621 245.336L345.002 257.853V254.291L312.621 243.031V245.336Z" fill="black"/>
<path d="M310.075 239.113H369.313L402.07 253.645H345.868L310.075 239.113Z" fill="#61656D"/>
<path d="M345.104 256.742H401.98L402.109 253.527L345.294 253.256L345.104 256.742Z" fill="white"/>
<path opacity="0.1" d="M345.104 256.742H401.98L402.109 253.527L345.294 253.256L345.104 256.742Z" fill="black"/>
<path opacity="0.3" d="M319.896 244.082L310.075 239.113H369.313L378.242 244.082H319.896Z" fill="black"/>
<path d="M310.207 239.228L345.275 253.256L345.105 256.742L310.075 242.529L310.207 239.228Z" fill="white"/>
<path d="M349.286 298.46H392.788V265.277H349.286V298.46Z" fill="white"/>
<path d="M351.417 298.46H390.956V266.789H351.417V298.46Z" fill="#DADDDF"/>
<path opacity="0.15" d="M351.417 296.865H390.956V295.802H351.417V296.865Z" fill="black"/>
<path opacity="0.15" d="M351.417 294.529H390.956V293.465H351.417V294.529Z" fill="black"/>
<path opacity="0.15" d="M351.417 292.188H390.956V291.125H351.417V292.188Z" fill="black"/>
<path opacity="0.15" d="M351.417 289.852H390.956V288.788H351.417V289.852Z" fill="black"/>
<path opacity="0.15" d="M351.417 287.515H390.956V286.452H351.417V287.515Z" fill="black"/>
<path opacity="0.15" d="M351.417 285.176H390.956V284.113H351.417V285.176Z" fill="black"/>
<path opacity="0.15" d="M351.417 282.842H390.956V281.779H351.417V282.842Z" fill="black"/>
<path opacity="0.15" d="M351.417 280.506H390.956V279.443H351.417V280.506Z" fill="black"/>
<path opacity="0.15" d="M351.417 278.169H390.956V277.106H351.417V278.169Z" fill="black"/>
<path opacity="0.15" d="M351.417 275.829H390.956V274.767H351.417V275.829Z" fill="black"/>
<path opacity="0.15" d="M351.417 273.493H390.956V272.43H351.417V273.493Z" fill="black"/>
<path opacity="0.15" d="M351.417 271.157H390.956V270.093H351.417V271.157Z" fill="black"/>
<path opacity="0.15" d="M351.417 268.82H390.956V267.757H351.417V268.82Z" fill="black"/>
<path opacity="0.15" d="M349.218 265.398V298.581L349.743 298.549V265.398H349.218Z" fill="black"/>
<path opacity="0.15" d="M390.927 266.7V298.463L391.451 298.431V266.7H390.927Z" fill="black"/>
<path d="M374.019 296.865H367.762V297.454H374.019V296.865Z" fill="#868A91"/>
<path d="M335.674 258.83H319.458V278.847H335.674V258.83Z" fill="white"/>
<path opacity="0.15" d="M335.634 258.796H335.185V278.813H335.634V258.796Z" fill="black"/>
<path d="M334.196 259.814H320.935V277.864H334.196V259.814Z" fill="#F0F0F0"/>
<path d="M327.859 260.011H326.674V277.831H327.859V260.011Z" fill="white"/>
<path opacity="0.6" d="M320.987 273.222L330.801 259.823H334.139V263.223L323.082 277.812L320.987 277.822V273.222Z" fill="white"/>
<path opacity="0.15" d="M320.928 259.772H320.533V277.831H320.928V259.772Z" fill="black"/>
<path opacity="0.15" d="M327.858 259.97H327.463V277.832H327.858V259.97Z" fill="black"/>
<path d="M334.196 272.585H320.533V273.225H334.196V272.585Z" fill="white"/>
<path opacity="0.6" d="M329.001 277.822L334.197 271.417V275.775L332.204 277.863L329.001 277.822Z" fill="white"/>
<path opacity="0.6" d="M320.987 264.461L324.296 259.823H327.704L320.987 268.393V264.461Z" fill="white"/>
<path d="M217.768 257.064H269.509L294.484 244.407H242.742L217.768 257.064Z" fill="#61656D"/>
<path d="M269.509 257.064L269.931 260.454L294.905 247.797L294.484 244.407L269.509 257.064Z" fill="white"/>
<path opacity="0.1" d="M269.509 257.064L269.931 260.454L294.905 247.797L294.484 244.407L269.509 257.064Z" fill="black"/>
<path d="M269.806 257.063L269.931 260.454H218.19L217.768 257.063H269.806Z" fill="white"/>
<path d="M274.301 295.977V264.156H256.428V295.977H274.301Z" fill="white"/>
<path d="M272.811 296.085V265.296H257.915V296.085H272.811Z" fill="#3F4249"/>
<path d="M260.532 275.403H269.619V268.059H260.532V275.403Z" fill="#F0F0F0"/>
<path opacity="0.15" d="M274.302 264.159H273.707V295.98H274.302V264.159Z" fill="black"/>
<path opacity="0.15" d="M257.915 265.337H257.319V295.98H257.915V265.337Z" fill="black"/>
<path d="M270.578 280.658C270.989 280.658 271.322 280.329 271.322 279.923C271.322 279.517 270.989 279.188 270.578 279.188C270.168 279.188 269.834 279.517 269.834 279.923C269.834 280.329 270.168 280.658 270.578 280.658Z" fill="white"/>
<path opacity="0.15" d="M270.578 279.178C270.515 279.18 270.453 279.189 270.392 279.204C270.551 279.245 270.692 279.337 270.792 279.465C270.893 279.594 270.947 279.752 270.947 279.915C270.947 280.078 270.893 280.236 270.792 280.364C270.692 280.493 270.551 280.585 270.392 280.626C270.452 280.643 270.515 280.652 270.578 280.652C270.68 280.659 270.782 280.645 270.879 280.611C270.975 280.576 271.063 280.523 271.138 280.454C271.212 280.385 271.272 280.301 271.312 280.209C271.353 280.116 271.374 280.016 271.374 279.915C271.374 279.814 271.353 279.714 271.312 279.621C271.272 279.529 271.212 279.445 271.138 279.376C271.063 279.307 270.975 279.254 270.879 279.22C270.782 279.186 270.68 279.171 270.578 279.178Z" fill="black"/>
<path opacity="0.6" d="M260.529 271.672L263.249 268.059H266.358L260.529 275.355V271.672Z" fill="white"/>
<path opacity="0.15" d="M260.828 267.989H260.529V275.355H260.828V267.989Z" fill="black"/>
<path opacity="0.6" d="M264.06 275.403L269.616 268.486V271.481L266.358 275.403H264.06Z" fill="white"/>
<path d="M219.683 298.431H302.904V296.028H219.683V298.431Z" fill="#61656D"/>
<path opacity="0.3" d="M275.497 298.431H302.904V296.028H275.497V298.431Z" fill="black"/>
<path d="M290.75 249.847V295.98H292.153H293.554H294.957V247.488L290.75 249.847Z" fill="white"/>
<path d="M222.152 295.98H224.955V260.454H222.152V295.98Z" fill="white"/>
<path d="M223.552 295.98H226.355V260.454H223.552V295.98Z" fill="white"/>
<path d="M256.699 296.072H258.514V280.69H256.699V296.072Z" fill="white"/>
<path opacity="0.1" d="M257.619 296.072H258.526V280.69H257.619V296.072Z" fill="black"/>
<path d="M251.369 296.072H253.148V280.69H251.369V296.072Z" fill="white"/>
<path opacity="0.1" d="M252.257 296.072H253.226V280.69H252.257V296.072Z" fill="black"/>
<path d="M246.041 296.072H247.786V280.69H246.041V296.072Z" fill="white"/>
<path opacity="0.1" d="M246.833 296.072H247.789V280.69H246.833V296.072Z" fill="black"/>
<path d="M240.714 296.072H242.424V280.69H240.714V296.072Z" fill="white"/>
<path opacity="0.1" d="M241.532 296.072H242.427V280.69H241.532V296.072Z" fill="black"/>
<path d="M235.352 296.072H237.061V280.69H235.352V296.072Z" fill="white"/>
<path opacity="0.1" d="M236.166 296.072H237.061V280.69H236.166V296.072Z" fill="black"/>
<path d="M229.989 296.072H231.698V280.69H229.989V296.072Z" fill="white"/>
<path opacity="0.1" d="M230.804 296.072H231.699V280.69H230.804V296.072Z" fill="black"/>
<path d="M223.655 281.941H264.655V280.366H223.655V281.941Z" fill="white"/>
<path d="M261.852 295.98H264.655V260.454H261.852V295.98Z" fill="white"/>
<path d="M263.252 295.98H266.055V260.454H263.252V295.98Z" fill="white"/>
<path opacity="0.1" d="M293.07 295.98H294.956V247.364L293.07 248.542V295.98Z" fill="black"/>
<path opacity="0.1" d="M224.25 295.98H226.356V260.454H224.25V295.98Z" fill="black"/>
<path opacity="0.1" d="M264.176 295.98H266.059V260.454H264.176V295.98Z" fill="black"/>
<path d="M405.646 263.558H400.706V298.224H405.646V263.558Z" fill="#61656D"/>
<path d="M391.535 260.715C391.535 260.715 391.818 271.153 400.989 276.743L400.898 273.623C400.898 273.623 394.815 267.658 395.485 262.58L391.535 260.715Z" fill="#61656D"/>
<path d="M415.38 260.715C415.38 260.715 414.675 271.538 405.504 277.119L405.025 273.528C405.025 273.528 413.017 268.218 411.8 261.832L415.38 260.715Z" fill="#61656D"/>
<path opacity="0.2" d="M405.646 264.054H403.387V298.224H405.646V264.054Z" fill="black"/>
<path opacity="0.2" d="M393.299 262.005C393.299 262.005 394.39 271.322 400.741 274.805L400.715 273.474C400.715 273.474 395.205 268.094 395.417 262.81C394.738 262.48 394.027 262.21 393.299 262.005Z" fill="black"/>
<path opacity="0.2" d="M413.387 261.943C413.387 261.943 414.179 268.979 405.662 275.037L405.607 273.127C405.607 273.127 412.367 268.469 411.852 262.551L413.387 261.943Z" fill="black"/>
<path d="M425.76 245.339C425.692 250.604 423.533 255.63 419.744 259.33C415.956 263.029 410.844 265.104 405.524 265.104C400.2 265.104 395.088 263.029 391.3 259.33C387.512 255.63 385.352 250.604 385.284 245.339C385.284 234.283 394.345 210.959 405.524 210.959C416.702 210.959 425.76 234.293 425.76 245.339Z" fill="#B2B6BB"/>
<path opacity="0.1" d="M418.438 221.458C418.467 222.063 418.483 222.671 418.483 223.282C418.483 240.94 407.571 255.249 394.117 255.249C391.761 255.244 389.43 254.803 387.238 253.95C389.215 258.047 392.54 261.358 396.669 263.34C400.799 265.322 405.485 265.857 409.963 264.858C414.44 263.859 418.441 261.384 421.312 257.841C424.18 254.297 425.744 249.895 425.751 245.355C425.76 239.145 422.915 229.098 418.438 221.458Z" fill="black"/>
<path opacity="0.05" d="M425.957 245.39C425.957 234.389 416.816 211.328 405.457 210.775V265.528C416.828 265.327 425.957 256.392 425.957 245.39Z" fill="black"/>
<path d="M428.396 256.204C428.297 259.418 426.919 262.464 424.56 264.679C422.203 266.894 419.059 268.1 415.808 268.034C412.557 267.969 409.464 266.638 407.198 264.33C404.935 262.021 403.683 258.923 403.715 255.707C403.853 248.968 409.673 234.847 416.487 234.987C423.301 235.127 428.535 249.465 428.396 256.204Z" fill="#B2B6BB"/>
<path opacity="0.1" d="M424.231 241.555C424.231 241.927 424.231 242.297 424.231 242.672C424.012 253.435 417.179 262.027 408.974 261.861C407.536 261.831 406.116 261.533 404.79 260.983C405.942 263.506 407.928 265.568 410.423 266.828C412.917 268.088 415.769 268.471 418.515 267.916C421.257 267.361 423.729 265.899 425.522 263.772C427.315 261.644 428.322 258.977 428.38 256.208C428.474 252.439 426.864 246.269 424.231 241.555Z" fill="black"/>
<path opacity="0.05" d="M428.515 256.239C428.651 249.532 423.365 235.353 416.452 234.882L415.763 268.272C422.689 268.285 428.377 262.943 428.515 256.239Z" fill="black"/>
<path d="M401.423 252.626C401.375 255.503 400.184 258.246 398.108 260.264C396.032 262.282 393.241 263.412 390.331 263.412C387.422 263.412 384.628 262.282 382.552 260.264C380.476 258.246 379.285 255.503 379.236 252.626C379.236 246.577 384.203 233.774 390.328 233.774C396.453 233.774 401.423 246.565 401.423 252.626Z" fill="#B2B6BB"/>
<path opacity="0.1" d="M397.412 239.533C397.412 239.852 397.438 240.202 397.438 240.539C397.438 250.214 391.458 258.048 384.084 258.048C382.793 258.045 381.515 257.804 380.314 257.338C381.399 259.584 383.221 261.399 385.487 262.485C387.75 263.571 390.322 263.864 392.774 263.315C395.23 262.766 397.422 261.408 398.993 259.464C400.567 257.52 401.423 255.106 401.423 252.617C401.423 249.23 399.862 243.723 397.412 239.533Z" fill="black"/>
<path opacity="0.05" d="M401.53 252.655C401.53 246.622 396.518 233.978 390.293 233.679V263.698C396.518 263.58 401.53 258.684 401.53 252.655Z" fill="black"/>
<path d="M178.415 163.028C178.415 163.028 175.84 162.464 174.073 160.729C172.306 158.994 169.2 153.914 161.298 156.085C153.396 158.256 153.84 159.555 149.887 159.122C145.935 158.689 141.988 151.418 135.847 153.045C129.706 154.671 122.364 163.025 122.364 163.025H178.415V163.028Z" fill="white"/>
<path d="M273.732 125.389C273.732 125.389 270.444 124.706 268.188 122.602C265.931 120.498 261.965 114.337 251.876 116.97C241.786 119.603 242.353 121.178 237.306 120.653C232.259 120.128 227.221 111.311 219.379 113.283C211.538 115.256 202.163 125.385 202.163 125.385H273.732V125.389Z" fill="white"/>
<path d="M309.885 103.519C309.885 103.519 306.563 102.796 304.284 100.568C302.004 98.3404 297.997 91.8169 287.804 94.6045C277.61 97.3921 278.183 99.0597 273.084 98.5039C267.985 97.948 262.895 88.6124 254.972 90.701C247.05 92.7897 237.579 103.515 237.579 103.515H309.885V103.519Z" fill="white"/>
<path d="M237.948 100.603C249.154 100.603 258.238 91.7906 258.238 80.9199C258.238 70.0491 249.154 61.2366 237.948 61.2366C226.742 61.2366 217.658 70.0491 217.658 80.9199C217.658 91.7906 226.742 100.603 237.948 100.603Z" fill="#4D61FC"/>
<path opacity="0.6" d="M172.168 321.902L257.32 298.58H273.707L222.667 321.74L172.168 321.902Z" fill="white"/>
<path d="M247.309 301.322H267.665L266.358 301.914H245.143L247.309 301.322Z" fill="#B2B6BB"/>
<path d="M235.4 304.505L258.974 305.142L257.667 305.734L233.233 305.097L235.4 304.505Z" fill="#B2B6BB"/>
<path d="M222.203 308.325L250.605 308.962L249.298 309.554L220.037 308.917L222.203 308.325Z" fill="#B2B6BB"/>
<path d="M204.178 313.1L238.052 314.692L236.745 315.284L202.012 313.692L204.178 313.1Z" fill="#B2B6BB"/>
<path d="M228.013 187.673C227.529 187.709 227.044 187.615 226.61 187.4C226.366 187.276 226.142 187.118 225.944 186.932L225.773 186.776" stroke="#3F4249" stroke-width="0.73" stroke-miterlimit="10" stroke-linecap="round"/>
<path d="M229.668 187.695C229.691 187.695 231.651 189.424 231.651 189.424V189.698H231.329V191.337H228.11V189.583H227.688V189.265L229.668 187.695Z" fill="#4D61FC"/>
<path d="M227.385 189.867V193.05L228.109 193.455L228.451 193.206V192.926L228.171 192.767L228.444 192.57V192.092L227.984 191.828L228.431 191.51V190.953L227.974 190.688L228.418 190.37V189.924C228.789 189.828 229.112 189.604 229.33 189.294C229.549 188.983 229.648 188.605 229.611 188.229C229.573 187.852 229.401 187.501 229.126 187.239C228.85 186.976 228.489 186.819 228.107 186.796C227.725 186.773 227.348 186.886 227.042 187.113C226.736 187.341 226.522 187.669 226.439 188.038C226.355 188.407 226.408 188.794 226.586 189.129C226.765 189.463 227.059 189.724 227.414 189.864L227.385 189.867ZM228.431 187.658C228.433 187.749 228.408 187.838 228.359 187.914C228.309 187.99 228.238 188.051 228.154 188.087C228.07 188.124 227.977 188.134 227.887 188.118C227.797 188.103 227.713 188.061 227.647 187.998C227.581 187.935 227.535 187.855 227.515 187.766C227.496 187.678 227.503 187.585 227.536 187.501C227.569 187.416 227.627 187.343 227.703 187.291C227.778 187.24 227.866 187.211 227.958 187.209C228.019 187.207 228.08 187.218 228.137 187.239C228.194 187.261 228.246 187.294 228.29 187.335C228.334 187.377 228.369 187.427 228.393 187.482C228.417 187.538 228.431 187.597 228.431 187.658Z" fill="#868A91"/>
<path opacity="0.3" d="M227.385 189.867V193.05L228.109 193.455L228.451 193.206V192.926L228.171 192.767L228.444 192.57V192.092L227.984 191.828L228.431 191.51V190.953L227.974 190.688L228.418 190.37V189.924C228.789 189.828 229.112 189.604 229.33 189.294C229.549 188.983 229.648 188.605 229.611 188.229C229.573 187.852 229.401 187.501 229.126 187.239C228.85 186.976 228.489 186.819 228.107 186.796C227.725 186.773 227.348 186.886 227.042 187.113C226.736 187.341 226.522 187.669 226.439 188.038C226.355 188.407 226.408 188.794 226.586 189.129C226.765 189.463 227.059 189.724 227.414 189.864L227.385 189.867ZM228.431 187.658C228.433 187.749 228.408 187.838 228.359 187.914C228.309 187.99 228.238 188.051 228.154 188.087C228.07 188.124 227.977 188.134 227.887 188.118C227.797 188.103 227.713 188.061 227.647 187.998C227.581 187.935 227.535 187.855 227.515 187.766C227.496 187.678 227.503 187.585 227.536 187.501C227.569 187.416 227.627 187.343 227.703 187.291C227.778 187.24 227.866 187.211 227.958 187.209C228.019 187.207 228.08 187.218 228.137 187.239C228.194 187.261 228.246 187.294 228.29 187.335C228.334 187.377 228.369 187.427 228.393 187.482C228.417 187.538 228.431 187.597 228.431 187.658Z" fill="black"/>
<path d="M227.565 189.867V193.181L228.229 193.585L228.57 193.216V192.935L228.351 192.776L228.563 192.579V192.101L228.164 191.837L228.55 191.519V190.962L228.154 190.698L228.541 190.379L228.592 189.934C228.962 189.837 229.286 189.614 229.504 189.303C229.723 188.993 229.822 188.615 229.785 188.238C229.747 187.862 229.575 187.51 229.3 187.248C229.024 186.986 228.663 186.829 228.281 186.806C227.899 186.782 227.521 186.895 227.216 187.122C226.91 187.35 226.696 187.678 226.612 188.047C226.529 188.417 226.581 188.803 226.76 189.138C226.939 189.473 227.233 189.733 227.588 189.873L227.565 189.867ZM228.612 187.658C228.605 187.773 228.554 187.882 228.469 187.963C228.385 188.043 228.273 188.089 228.155 188.091C228.038 188.094 227.924 188.053 227.836 187.976C227.749 187.899 227.693 187.792 227.681 187.677C227.688 187.561 227.739 187.452 227.824 187.372C227.908 187.291 228.02 187.245 228.138 187.243C228.255 187.24 228.369 187.282 228.457 187.359C228.545 187.435 228.6 187.542 228.612 187.658Z" fill="#868A91"/>
<path opacity="0.3" d="M226.79 188.367C226.791 188.101 226.871 187.84 227.021 187.618C227.172 187.397 227.385 187.224 227.635 187.123C227.884 187.021 228.158 186.995 228.423 187.047C228.687 187.099 228.93 187.228 229.121 187.417C229.311 187.606 229.441 187.847 229.493 188.108C229.546 188.37 229.519 188.641 229.415 188.888C229.312 189.134 229.137 189.345 228.912 189.493C228.688 189.641 228.425 189.72 228.155 189.72C227.792 189.719 227.445 189.576 227.189 189.323C226.934 189.069 226.79 188.726 226.79 188.367ZM226.835 188.367C226.834 188.626 226.911 188.878 227.056 189.094C227.2 189.308 227.406 189.476 227.648 189.575C227.889 189.675 228.154 189.701 228.41 189.651C228.667 189.601 228.902 189.477 229.087 189.295C229.272 189.112 229.398 188.88 229.449 188.627C229.5 188.373 229.474 188.11 229.374 187.872C229.275 187.633 229.105 187.429 228.888 187.286C228.671 187.142 228.416 187.065 228.155 187.065C227.805 187.065 227.47 187.203 227.223 187.446C226.975 187.691 226.836 188.022 226.835 188.367Z" fill="black"/>
<path opacity="0.3" d="M227.723 193.05C227.726 193.05 227.729 193.049 227.732 193.048C227.734 193.047 227.737 193.046 227.739 193.043C227.741 193.041 227.743 193.039 227.744 193.036C227.745 193.034 227.746 193.031 227.746 193.028V190.045C227.746 190.039 227.743 190.033 227.739 190.029C227.735 190.025 227.729 190.023 227.723 190.023C227.717 190.023 227.712 190.025 227.707 190.029C227.703 190.033 227.701 190.039 227.701 190.045V193.041C227.703 193.044 227.706 193.047 227.711 193.048C227.715 193.05 227.719 193.051 227.723 193.05Z" fill="black"/>
<path d="M220.485 187.425C219.39 185.932 218.357 186.25 221.087 182.755C221.705 182.093 221.978 182.555 223.24 181.966C224.083 181.647 226.082 180.619 226.362 181.17C228.293 184.99 229.581 184.99 226.134 186.534C226.134 186.534 223.333 188.371 222.178 188.281C221.535 188.183 220.941 187.883 220.485 187.425Z" fill="#FC9D9D"/>
<path d="M228.062 187.622C228.133 187.622 228.203 187.622 228.274 187.597C229.916 187.32 230.968 185.458 230.621 183.433C230.273 181.409 228.661 179.989 227.016 180.25C226.61 180.328 226.227 180.496 225.896 180.74C225.565 180.985 225.294 181.301 225.104 181.663C224.974 181.898 224.895 182.157 224.872 182.424" stroke="#3F4249" stroke-width="0.75" stroke-miterlimit="10" stroke-linecap="round"/>
<path opacity="0.15" d="M224.746 185.19L224.63 185.031C224.583 184.967 224.552 184.894 224.537 184.817C224.522 184.739 224.525 184.659 224.546 184.583C224.566 184.507 224.603 184.437 224.655 184.376C224.706 184.316 224.77 184.268 224.842 184.235L227.224 183.092C227.376 183.017 227.55 182.997 227.715 183.035C227.881 183.073 228.027 183.168 228.129 183.303C228.181 183.378 228.216 183.463 228.232 183.552C228.248 183.642 228.245 183.733 228.222 183.822C228.199 183.91 228.157 183.992 228.1 184.063C228.042 184.134 227.97 184.191 227.887 184.232L225.506 185.375C225.377 185.436 225.231 185.45 225.093 185.416C224.954 185.383 224.832 185.303 224.746 185.19Z" fill="black"/>
<path d="M224.907 185.076L224.797 184.913C224.752 184.848 224.721 184.773 224.707 184.695C224.693 184.617 224.696 184.537 224.716 184.459C224.735 184.382 224.772 184.31 224.822 184.248C224.872 184.186 224.935 184.135 225.006 184.099L227.317 182.914C227.463 182.836 227.633 182.815 227.794 182.853C227.956 182.892 228.096 182.989 228.19 183.124C228.243 183.201 228.279 183.288 228.296 183.379C228.313 183.47 228.31 183.564 228.289 183.654C228.266 183.744 228.225 183.829 228.168 183.902C228.11 183.975 228.037 184.036 227.955 184.079L225.634 185.27C225.509 185.33 225.367 185.344 225.234 185.308C225.1 185.272 224.984 185.19 224.907 185.076Z" fill="#FC9D9D"/>
<path opacity="0.15" d="M225.374 186.342L225.258 186.171C225.211 186.1 225.18 186.021 225.166 185.938C225.152 185.855 225.155 185.77 225.176 185.689C225.196 185.607 225.233 185.531 225.285 185.464C225.337 185.398 225.402 185.342 225.477 185.302L227.543 184.375C227.694 184.292 227.872 184.269 228.04 184.31C228.207 184.352 228.353 184.454 228.448 184.598C228.502 184.68 228.538 184.772 228.555 184.868C228.572 184.964 228.569 185.062 228.545 185.157C228.522 185.252 228.48 185.342 228.42 185.419C228.361 185.497 228.286 185.562 228.2 185.61L226.133 186.543C226.004 186.61 225.855 186.627 225.714 186.59C225.573 186.553 225.452 186.464 225.374 186.342Z" fill="black"/>
<path d="M225.55 186.241L225.441 186.079C225.395 186.013 225.365 185.939 225.351 185.86C225.336 185.782 225.339 185.702 225.359 185.625C225.379 185.547 225.415 185.475 225.466 185.413C225.515 185.351 225.579 185.3 225.65 185.264L227.639 184.398C227.785 184.32 227.955 184.298 228.116 184.337C228.277 184.376 228.418 184.472 228.511 184.608C228.565 184.684 228.601 184.771 228.618 184.862C228.635 184.954 228.632 185.047 228.61 185.138C228.588 185.228 228.547 185.312 228.489 185.386C228.432 185.459 228.359 185.519 228.276 185.563L226.278 186.426C226.154 186.487 226.013 186.502 225.879 186.468C225.746 186.434 225.629 186.353 225.55 186.241Z" fill="#FC9D9D"/>
<path opacity="0.15" d="M224.415 184.028L224.299 183.863C224.252 183.796 224.221 183.72 224.206 183.639C224.192 183.56 224.195 183.477 224.216 183.399C224.236 183.32 224.273 183.247 224.325 183.183C224.376 183.12 224.441 183.068 224.514 183.032L226.578 181.822C226.729 181.743 226.905 181.722 227.071 181.762C227.238 181.802 227.384 181.9 227.482 182.039C227.537 182.117 227.574 182.205 227.592 182.298C227.609 182.392 227.606 182.487 227.584 182.579C227.561 182.672 227.519 182.758 227.459 182.833C227.4 182.907 227.326 182.969 227.241 183.013L225.178 184.219C225.048 184.284 224.9 184.301 224.759 184.266C224.619 184.231 224.496 184.146 224.415 184.028Z" fill="black"/>
<path d="M224.585 183.908L224.472 183.745C224.428 183.68 224.397 183.605 224.383 183.527C224.37 183.449 224.373 183.37 224.392 183.293C224.412 183.216 224.448 183.144 224.498 183.082C224.548 183.021 224.61 182.97 224.682 182.933L226.674 181.749C226.82 181.671 226.99 181.65 227.151 181.688C227.312 181.727 227.453 181.824 227.546 181.959C227.6 182.036 227.636 182.122 227.653 182.214C227.67 182.305 227.667 182.399 227.645 182.489C227.623 182.579 227.582 182.663 227.524 182.737C227.467 182.81 227.394 182.871 227.311 182.914L225.312 184.092C225.189 184.155 225.047 184.171 224.913 184.137C224.779 184.103 224.662 184.021 224.585 183.908Z" fill="#FC9D9D"/>
<path opacity="0.15" d="M223.642 182.879C223.59 182.808 223.554 182.726 223.538 182.639C223.522 182.553 223.527 182.464 223.55 182.379C223.573 182.294 223.616 182.215 223.674 182.149C223.732 182.082 223.805 182.029 223.886 181.994L225.695 181.183C225.836 181.113 225.996 181.094 226.15 181.129C226.302 181.165 226.438 181.252 226.532 181.377C226.582 181.445 226.617 181.524 226.633 181.607C226.649 181.69 226.646 181.776 226.625 181.858C226.604 181.94 226.565 182.017 226.51 182.082C226.456 182.147 226.387 182.2 226.31 182.236L224.418 183.083C224.284 183.141 224.135 183.152 223.994 183.115C223.853 183.078 223.729 182.995 223.642 182.879Z" fill="black"/>
<path d="M223.912 182.723C223.864 182.656 223.832 182.579 223.818 182.499C223.803 182.418 223.807 182.335 223.828 182.256C223.85 182.176 223.889 182.103 223.942 182.04C223.996 181.977 224.062 181.927 224.138 181.892L225.789 181.125C225.917 181.059 226.065 181.041 226.206 181.075C226.347 181.108 226.471 181.19 226.555 181.306C226.6 181.371 226.631 181.445 226.645 181.523C226.66 181.601 226.657 181.68 226.637 181.757C226.618 181.834 226.582 181.905 226.533 181.967C226.483 182.029 226.42 182.079 226.349 182.115L224.617 182.911C224.496 182.966 224.359 182.978 224.23 182.943C224.102 182.909 223.989 182.831 223.912 182.723Z" fill="#FC9D9D"/>
<path d="M171.826 160.313C170.352 160.701 173.114 164.037 173.703 164.957C179.709 172.444 191.342 169.732 194.148 162.687C194.174 162.631 194.187 162.569 194.185 162.507C194.184 162.445 194.168 162.384 194.139 162.329C194.11 162.274 194.069 162.226 194.019 162.189C193.969 162.152 193.911 162.126 193.849 162.114C192.043 161.965 191.403 158.259 191.57 156.435C192.011 154.414 191.345 153.252 190.823 151.234C188.532 142.419 176.12 144.504 175.245 152.523C175.264 153.065 175.253 153.607 175.212 154.147L175.183 154.131C174.997 156.257 174.35 159.647 171.826 160.313Z" fill="black"/>
<path d="M176.78 168.513L177.968 168.051L178.151 169.264L177.006 169.579L176.78 168.513Z" fill="#4D61FC"/>
<path opacity="0.3" d="M177.102 168.78L178.415 168.118L178.151 169.343L177.005 169.579L177.102 168.78Z" fill="black"/>
<path d="M164.127 177.255L169.155 182.765C169.155 182.765 171.73 193.318 170.719 202.183C170.5 204.125 169.683 207.398 169.235 209.107C169.2 209.24 169.196 209.38 169.223 209.515C169.251 209.651 169.309 209.778 169.394 209.887C169.479 209.997 169.588 210.086 169.712 210.148C169.837 210.209 169.975 210.242 170.114 210.244L193.823 210.562C193.956 210.564 194.087 210.538 194.208 210.485C194.329 210.432 194.437 210.354 194.525 210.256C194.613 210.158 194.678 210.043 194.716 209.917C194.755 209.792 194.765 209.66 194.747 209.53C194.248 205.846 194.077 202.125 194.235 198.411C194.235 196.966 194.164 192.274 194.164 192.274C194.399 190.981 194.708 190.701 195.301 190.02C197.174 187.865 198.101 186.314 197.39 183.653L196.179 179.515L196.607 177.309C196.653 174.285 195.793 172.413 192.874 171.496L189.169 169.618L176.458 169.478L168.662 171.038C165.881 171.671 163.985 174.367 164.127 177.255Z" fill="white"/>
<path opacity="0.2" d="M222.612 182.115C222.612 182.115 223.359 183.844 222.934 185.346C222.509 186.849 221.949 187.123 221.949 187.123L222.213 182.348L222.612 182.115Z" fill="black"/>
<path d="M172.02 307.997H167.835C167.558 308.627 167.359 309.289 167.243 309.967L165.582 317.212C165.387 318.224 165.42 319.266 165.679 320.262C165.781 320.683 166.023 321.058 166.367 321.326C166.711 321.593 167.136 321.74 167.575 321.74H169.541C169.886 321.746 170.227 321.66 170.527 321.491C170.828 321.326 171.078 321.081 171.25 320.785L171.392 320.549C171.979 319.524 172.31 318.375 172.358 317.197L172.335 310.442C172.379 309.623 172.27 308.804 172.013 308.025L172.02 307.997Z" fill="#21252B"/>
<path d="M188.393 168.755L186.761 168.513L186.726 169.468L188.341 169.732L188.393 168.755Z" fill="#4D61FC"/>
<path opacity="0.3" d="M188.071 168.952L186.761 168.755L186.726 169.519L188.341 169.732L188.071 168.952Z" fill="black"/>
<path d="M196.946 253.177L184.785 252.843L196.537 304.572C196.967 305.909 197.175 307.307 197.152 308.71L201.754 316.916L206.924 319.463L208.253 317.697L202.611 307.192C202.204 306.444 201.924 305.635 201.78 304.797L196.946 253.177Z" fill="#FC9D9D"/>
<path opacity="0.15" d="M208.253 317.697C205.034 317.06 203.695 314.879 203.695 314.879L199.128 308.112C198.775 307.59 198.517 307.012 198.365 306.402L190.109 268.915L188.297 268.466L196.537 304.572C196.967 305.909 197.175 307.307 197.152 308.71L201.754 316.917L206.045 319.04L208.253 317.697Z" fill="black"/>
<path d="M213.49 320.896C213.528 320.988 213.542 321.087 213.532 321.189C213.521 321.287 213.487 321.383 213.431 321.466C213.376 321.549 213.3 321.615 213.212 321.663C213.123 321.711 213.024 321.736 212.924 321.74H206.403C205.603 321.743 204.812 321.571 204.088 321.233C203.364 320.899 202.725 320.406 202.218 319.794L198.645 315.468C198.585 315.391 198.502 315.334 198.407 315.306C198.313 315.277 198.212 315.279 198.118 315.309C198.025 315.34 197.943 315.399 197.885 315.478C197.826 315.556 197.794 315.651 197.792 315.748L197.602 321.752H196.939L196.086 315.914C195.712 313.462 196.083 310.956 197.152 308.713L203.033 315.748C203.651 316.5 204.46 317.076 205.377 317.418C206.294 317.76 207.286 317.856 208.253 317.696L211.907 319.336C212.6 319.661 213.159 320.212 213.49 320.896Z" fill="#21252B"/>
<path d="M177.083 252.957L176.25 262.049L176.204 262.542L172.307 304.963C172.012 307.399 171.886 309.852 171.927 312.304L171.972 315.236C171.95 315.855 171.685 316.441 171.234 316.87C170.783 317.299 170.18 317.537 169.555 317.534H169.152C168.649 317.536 168.159 317.38 167.752 317.089C167.393 316.834 167.111 316.488 166.936 316.087C166.761 315.686 166.699 315.246 166.757 314.813L167.443 311.343C167.595 310.58 167.702 309.81 167.765 309.035C167.797 308.688 167.82 308.341 167.829 307.994C167.858 307.325 167.852 306.657 167.829 305.995L166.22 260.569L165.946 252.833L177.083 252.957Z" fill="#FC9D9D"/>
<path opacity="0.15" d="M167.374 264.853L168.707 303.082C168.825 306.501 168.621 309.924 168.099 313.307L167.906 314.548C167.795 315.276 167.739 316.011 167.738 316.748V317.085C167.38 316.83 167.097 316.484 166.922 316.083C166.747 315.683 166.685 315.242 166.744 314.809L167.429 311.339C167.581 310.577 167.689 309.806 167.751 309.031C168.015 308.465 168.073 308.06 167.815 307.99C167.844 307.322 167.838 306.653 167.815 305.991L166.206 260.565L176.255 262.036L178.048 262.3L176.21 262.529L168.504 263.484C168.179 263.536 167.885 263.704 167.676 263.957C167.468 264.209 167.361 264.528 167.374 264.853Z" fill="black"/>
<path opacity="0.2" d="M223.017 183.754C223.017 183.754 225.212 184.261 225.798 183.14C226.442 181.943 224.578 182.099 224.031 182.016C223.484 181.934 223.847 182.694 222.937 182.889L223.017 183.754Z" fill="black"/>
<path d="M169.49 209.909L169.313 210.641C166.342 222.321 164.308 234.64 164.459 246.696L165.65 270.863L199.212 270.545L194.297 210.25L169.49 209.909Z" fill="#21252B"/>
<path d="M223.973 182.087H223.957C222.309 181.431 220.738 182.364 220.304 184.07L220.201 184.487C219.86 186.021 220.491 187.014 221.118 187.247C221.575 187.419 222.2 187.32 222.563 185.875C222.784 185.128 222.837 184.343 222.721 183.573C223.645 183.71 225.048 183.79 225.544 183.137C226.436 181.972 224.45 182.287 223.973 182.087Z" fill="#FC9D9D"/>
<path opacity="0.3" d="M168.792 235.793C169.632 218.453 172.483 210.351 172.483 210.351L171.592 209.938L169.49 209.909L169.313 210.641C166.342 222.321 164.308 234.64 164.459 246.696L165.869 270.863H170.427L169.049 252.913C168.606 247.217 168.52 241.499 168.792 235.793Z" fill="black"/>
<path d="M203.885 189.472L220.163 183.997L222.416 188.25L202.707 197.504C202.302 197.69 201.862 197.791 201.414 197.8C200.967 197.809 200.524 197.726 200.111 197.556C199.698 197.386 199.325 197.133 199.017 196.812C198.709 196.492 198.472 196.111 198.32 195.695L196.592 190.478L203.885 189.472Z" fill="#4D61FC"/>
<path d="M197.238 192.433L189.14 169.58L193.91 170.742C196.118 171.302 198.223 171.859 199.089 174.005L203.885 189.472L197.238 192.433Z" fill="#4D61FC"/>
<path opacity="0.2" d="M198.883 191.78L199.726 194.517C199.726 194.517 200.476 197.335 203.611 197.083L202.697 197.503C202.292 197.69 201.852 197.791 201.405 197.8C200.958 197.809 200.513 197.726 200.101 197.556C199.688 197.386 199.316 197.132 199.007 196.812C198.699 196.492 198.462 196.111 198.31 195.695L197.238 192.432L198.883 191.78Z" fill="black"/>
<path opacity="0.2" d="M196.846 191.318L197.28 192.413L198.796 191.738L198.864 191.703C198.864 191.703 197.37 188.889 197.898 187.816C198.219 187.052 198.361 186.226 198.313 185.4C198.272 183.894 197.896 182.415 197.213 181.068C196.604 179.842 195.7 178.123 194.959 177.165L196.543 181.768C196.763 182.394 196.945 183.031 197.09 183.678C197.541 185.731 197.496 187.336 195.98 189.147L196.846 191.318Z" fill="black"/>
<path d="M174.411 170.073L178.595 173.132C179.017 173.473 179.551 173.648 180.095 173.623L185.705 173.565C186.003 173.552 186.295 173.478 186.564 173.35C186.832 173.221 187.071 173.04 187.266 172.817L189.899 169.803L187.865 169.58L176.245 169.707L174.411 170.073Z" fill="#3F4249"/>
<path d="M175.595 169.805L177.298 169.169C177.474 169.127 177.632 169.03 177.748 168.892C177.864 168.755 177.932 168.584 177.942 168.405L178.47 159.062L186.42 158.138L186.768 168.717C186.774 168.898 186.841 169.073 186.957 169.213C187.073 169.354 187.233 169.454 187.411 169.497L188.547 169.659L186.375 172.002C186.186 172.206 185.958 172.371 185.703 172.487C185.449 172.603 185.174 172.668 184.894 172.677L180.349 172.591C179.85 172.606 179.361 172.447 178.968 172.142L175.595 169.805Z" fill="#FC9D9D"/>
<path d="M189.768 160.758L190.013 153.72C190.025 153.411 189.975 153.103 189.866 152.814C189.757 152.524 189.592 152.259 189.379 152.033C189.165 151.807 188.909 151.626 188.625 151.498C188.341 151.371 188.033 151.3 187.721 151.291L180.572 151.056C180.332 151.047 180.093 151.084 179.868 151.168C179.643 151.251 179.437 151.377 179.262 151.539C179.087 151.701 178.945 151.896 178.847 152.112C178.748 152.329 178.693 152.563 178.686 152.8L178.422 160.38C178.372 161.813 178.899 163.207 179.887 164.256C180.876 165.306 182.245 165.924 183.695 165.976L184.123 165.995C184.841 166.018 185.557 165.9 186.23 165.65C186.902 165.399 187.518 165.02 188.042 164.533C188.567 164.047 188.989 163.463 189.285 162.815C189.581 162.168 189.746 161.469 189.768 160.758Z" fill="#FC9D9D"/>
<path d="M183.362 158.396C183.362 158.281 183.396 158.168 183.46 158.072C183.525 157.975 183.617 157.9 183.724 157.855C183.832 157.811 183.951 157.799 184.066 157.822C184.18 157.844 184.285 157.9 184.368 157.981C184.451 158.063 184.507 158.167 184.529 158.28C184.552 158.394 184.54 158.511 184.495 158.618C184.45 158.724 184.374 158.815 184.276 158.879C184.179 158.943 184.065 158.976 183.948 158.976C183.793 158.976 183.644 158.915 183.534 158.806C183.424 158.697 183.362 158.55 183.362 158.396Z" fill="black"/>
<path d="M184.051 158.657C184.049 158.64 184.049 158.622 184.054 158.605C184.059 158.589 184.067 158.573 184.079 158.56C184.09 158.546 184.104 158.535 184.121 158.528C184.137 158.521 184.154 158.517 184.172 158.517C184.19 158.517 184.207 158.521 184.223 158.528C184.239 158.535 184.254 158.546 184.265 158.56C184.276 158.573 184.285 158.589 184.29 158.605C184.294 158.622 184.295 158.64 184.292 158.657C184.288 158.686 184.273 158.711 184.251 158.73C184.229 158.749 184.201 158.759 184.172 158.759C184.143 158.759 184.115 158.749 184.093 158.73C184.071 158.711 184.056 158.686 184.051 158.657Z" fill="white"/>
<path d="M187.923 158.817C187.923 158.701 187.958 158.589 188.022 158.493C188.087 158.397 188.179 158.322 188.287 158.279C188.395 158.234 188.513 158.223 188.627 158.245C188.742 158.268 188.846 158.323 188.929 158.405C189.011 158.486 189.067 158.59 189.09 158.703C189.113 158.816 189.101 158.933 189.057 159.04C189.012 159.146 188.936 159.237 188.84 159.301C188.743 159.365 188.629 159.399 188.512 159.399C188.356 159.399 188.206 159.338 188.096 159.228C187.985 159.119 187.923 158.971 187.923 158.817Z" fill="black"/>
<path d="M188.654 159.058C188.654 159.034 188.66 159.011 188.673 158.99C188.686 158.97 188.705 158.954 188.727 158.944C188.749 158.935 188.774 158.932 188.798 158.936C188.822 158.94 188.844 158.952 188.861 158.968C188.879 158.985 188.891 159.007 188.896 159.03C188.901 159.054 188.899 159.078 188.889 159.101C188.88 159.123 188.865 159.142 188.845 159.156C188.824 159.169 188.801 159.176 188.776 159.176C188.744 159.176 188.714 159.164 188.691 159.142C188.668 159.12 188.655 159.09 188.654 159.058Z" fill="white"/>
<path d="M175.215 154.146L175.45 154.264C175.608 155.047 175.808 155.82 176.049 156.581C176.265 157.275 176.48 157.915 176.628 158.476C176.706 158.778 177.15 158.138 177.575 157.575C177.652 157.47 177.729 157.371 177.806 157.282C177.918 157.119 178.061 156.979 178.228 156.871C178.257 156.871 178.331 156.954 178.428 157.094V157.123C178.453 157.159 178.479 157.197 178.505 157.237C178.618 157.409 178.743 157.613 178.827 157.772C178.854 157.828 178.897 157.875 178.95 157.907C179.003 157.939 179.065 157.955 179.128 157.953C179.19 157.951 179.251 157.931 179.302 157.895C179.353 157.86 179.393 157.811 179.416 157.753C179.78 156.823 179.985 155.84 180.021 154.843L180.063 153.942C180.62 153.893 181.159 153.716 181.636 153.427C182.113 153.137 182.517 152.743 182.815 152.274C182.876 152.185 182.932 152.093 182.982 151.997L183.005 152.023C184.794 154.305 188.077 154.321 189.442 154.223C189.549 154.214 189.656 154.237 189.749 154.289C189.842 154.342 189.917 154.421 189.964 154.515C190.002 154.593 190.018 154.678 190.012 154.764L189.944 156.581V156.9L189.899 158.154C190.169 157.914 190.417 157.652 190.643 157.371C190.704 157.295 190.772 157.212 190.836 157.126C190.9 157.04 190.942 156.986 190.994 156.909L191.148 157.425L191.399 157.67C191.37 157.549 191.583 157.193 191.567 157.065C191.552 156.861 191.552 156.656 191.567 156.451C191.567 156.406 191.567 156.359 191.567 156.314C191.567 156.09 191.604 155.868 191.676 155.655L191.702 155.591C191.764 155.446 191.818 155.297 191.863 155.146C191.969 154.811 192.041 154.467 192.078 154.118C192.259 152.313 191.328 151.549 190.82 151.268C190.733 151.217 190.661 151.144 190.611 151.056C190.561 150.969 190.535 150.869 190.537 150.769C190.401 145.698 182.924 143.67 178.572 146.697C176.352 148.244 175.206 150.288 175.248 152.427C175.248 152.427 175.248 152.475 175.248 152.551C175.266 153.083 175.255 153.616 175.215 154.146Z" fill="black"/>
<path d="M187.374 213.328C187.374 213.412 187.407 213.493 187.468 213.553C187.528 213.612 187.61 213.646 187.695 213.646L194.455 213.735C194.587 213.737 194.718 213.711 194.84 213.658C194.961 213.605 195.069 213.527 195.157 213.429C195.244 213.331 195.309 213.216 195.348 213.091C195.386 212.965 195.397 212.833 195.379 212.704C195.115 210.845 194.007 203.494 194.223 198.401C194.223 196.956 194.474 192.263 194.474 192.263C194.709 190.971 194.696 190.691 195.289 190.01C197.162 187.855 198.089 186.304 197.377 183.643L196.167 179.505L196.595 177.299C196.64 174.274 197.735 171.887 194.819 170.983L190.341 169.579L189.984 169.468L188.375 168.755L187.351 188.335L187.374 213.328Z" fill="#4D61FC"/>
<path d="M179.082 160.72L178.718 157.912C178.251 155.347 175.049 155.85 175.615 158.396C176.182 160.943 178.799 160.72 178.799 160.72H179.082Z" fill="#FC9D9D"/>
<path opacity="0.2" d="M176.365 157.291C176.378 157.31 176.395 157.327 176.414 157.339C176.433 157.352 176.455 157.36 176.478 157.364C176.501 157.368 176.525 157.367 176.547 157.362C176.57 157.357 176.591 157.347 176.61 157.333C176.679 157.269 176.763 157.222 176.854 157.193C176.944 157.165 177.04 157.158 177.134 157.17C177.222 157.195 177.304 157.239 177.374 157.297C177.444 157.356 177.501 157.429 177.54 157.511C177.682 157.764 177.766 158.046 177.784 158.335L177.804 158.635C177.804 158.858 178.171 158.797 178.148 158.597L178.129 158.313C178.117 157.959 178.013 157.614 177.826 157.31C177.763 157.186 177.672 157.076 177.561 156.99C177.449 156.904 177.32 156.842 177.182 156.811C177.043 156.792 176.901 156.802 176.765 156.84C176.63 156.878 176.503 156.942 176.394 157.03C176.364 157.066 176.345 157.11 176.34 157.157C176.335 157.203 176.343 157.25 176.365 157.291Z" fill="black"/>
<path d="M176.78 168.513L175.1 169.442L174.91 169.509L168.662 171.037C165.888 171.674 163.992 174.367 164.133 177.254L169.161 182.764C169.161 182.764 170.77 193.317 169.76 202.183C169.541 204.125 168.723 210.58 168.276 212.29C168.241 212.424 168.237 212.563 168.264 212.698C168.292 212.834 168.35 212.961 168.435 213.07C168.52 213.18 168.628 213.269 168.753 213.33C168.878 213.392 169.015 213.425 169.155 213.426L180.324 213.534C180.409 213.534 180.491 213.501 180.551 213.442C180.612 213.382 180.646 213.301 180.646 213.216L180.967 188.332L176.78 168.513Z" fill="#4D61FC"/>
<path d="M192.111 206.57H181.341C181.205 206.57 181.074 206.521 180.973 206.431C180.873 206.341 180.81 206.216 180.797 206.083L179.368 191.484C179.361 191.409 179.369 191.333 179.393 191.262C179.418 191.19 179.456 191.125 179.508 191.069C179.559 191.013 179.621 190.969 179.691 190.938C179.76 190.908 179.836 190.892 179.912 190.892H193.54C193.616 190.891 193.692 190.907 193.762 190.937C193.831 190.968 193.894 191.012 193.945 191.068C193.997 191.124 194.035 191.19 194.059 191.261C194.083 191.333 194.091 191.409 194.084 191.484L192.655 206.083C192.642 206.216 192.579 206.341 192.478 206.431C192.378 206.521 192.246 206.57 192.111 206.57Z" fill="#3F4249"/>
<path d="M192.111 206.57H181.341C181.205 206.57 181.074 206.521 180.973 206.431C180.873 206.341 180.81 206.216 180.797 206.083L179.368 191.484C179.361 191.409 179.369 191.333 179.393 191.262C179.418 191.19 179.456 191.125 179.508 191.069C179.559 191.013 179.621 190.969 179.691 190.938C179.76 190.908 179.836 190.892 179.912 190.892H193.54C193.616 190.891 193.692 190.907 193.762 190.937C193.831 190.968 193.894 191.012 193.945 191.068C193.997 191.124 194.035 191.19 194.059 191.261C194.083 191.333 194.091 191.409 194.084 191.484L192.655 206.083C192.642 206.216 192.579 206.341 192.478 206.431C192.378 206.521 192.246 206.57 192.111 206.57Z" fill="black"/>
<path d="M192.111 207.076H181.341C181.207 207.076 181.077 207.028 180.976 206.94C180.876 206.852 180.812 206.73 180.797 206.598L179.368 191.999C179.361 191.924 179.369 191.849 179.393 191.777C179.418 191.706 179.456 191.64 179.508 191.584C179.559 191.529 179.621 191.484 179.691 191.454C179.76 191.423 179.836 191.407 179.912 191.407H193.54C193.616 191.407 193.692 191.422 193.762 191.453C193.831 191.483 193.894 191.527 193.945 191.584C193.997 191.639 194.035 191.705 194.059 191.777C194.083 191.848 194.091 191.924 194.084 191.999L192.655 206.598C192.64 206.73 192.576 206.852 192.475 206.94C192.375 207.028 192.245 207.076 192.111 207.076Z" fill="#3F4249"/>
<g opacity="0.5">
<path opacity="0.5" d="M192.223 193.699C192.223 193.831 192.184 193.959 192.111 194.067C192.037 194.176 191.932 194.261 191.81 194.311C191.688 194.361 191.553 194.375 191.423 194.349C191.293 194.323 191.174 194.26 191.08 194.168C190.987 194.075 190.923 193.957 190.897 193.829C190.871 193.7 190.885 193.567 190.935 193.446C190.986 193.325 191.072 193.222 191.182 193.149C191.292 193.076 191.421 193.037 191.554 193.037C191.731 193.037 191.902 193.107 192.027 193.232C192.153 193.356 192.223 193.524 192.223 193.699Z" fill="black"/>
</g>
<path d="M191.554 193.037C191.727 193.037 191.894 193.104 192.019 193.222C192.144 193.341 192.217 193.503 192.224 193.674V193.645C192.23 193.555 192.218 193.464 192.187 193.378C192.156 193.293 192.108 193.214 192.045 193.148C191.983 193.081 191.907 193.028 191.823 192.992C191.738 192.956 191.648 192.937 191.556 192.937C191.464 192.937 191.373 192.956 191.289 192.992C191.205 193.028 191.129 193.081 191.066 193.148C191.003 193.214 190.955 193.293 190.925 193.378C190.894 193.464 190.881 193.555 190.888 193.645V193.674C190.895 193.503 190.967 193.342 191.092 193.223C191.216 193.105 191.382 193.038 191.554 193.037Z" fill="black"/>
<path d="M191.97 193.699C191.97 193.781 191.945 193.86 191.9 193.927C191.854 193.995 191.789 194.048 191.713 194.079C191.637 194.11 191.554 194.118 191.473 194.102C191.393 194.086 191.319 194.047 191.261 193.99C191.203 193.932 191.163 193.859 191.147 193.779C191.131 193.7 191.139 193.617 191.171 193.542C191.202 193.467 191.255 193.403 191.324 193.358C191.392 193.313 191.472 193.289 191.554 193.289C191.609 193.288 191.663 193.299 191.714 193.319C191.764 193.339 191.81 193.37 191.849 193.408C191.887 193.446 191.918 193.492 191.939 193.542C191.96 193.592 191.97 193.645 191.97 193.699Z" fill="white"/>
<path opacity="0.2" d="M191.554 194.002C191.454 194.001 191.358 193.965 191.282 193.899C191.207 193.834 191.159 193.744 191.146 193.646C191.146 193.662 191.146 193.681 191.146 193.7C191.155 193.802 191.202 193.897 191.278 193.967C191.355 194.036 191.455 194.074 191.559 194.074C191.663 194.074 191.763 194.036 191.839 193.967C191.916 193.897 191.963 193.802 191.973 193.7C191.973 193.681 191.973 193.662 191.973 193.646C191.959 193.745 191.909 193.837 191.832 193.903C191.755 193.968 191.656 194.004 191.554 194.002Z" fill="black"/>
<path d="M181.374 158.276C181.374 158.423 181.389 158.57 181.419 158.715C181.529 159.289 181.852 159.801 182.324 160.152C182.797 160.503 183.384 160.667 183.972 160.612C184.56 160.557 185.106 160.287 185.504 159.855C185.901 159.423 186.122 158.86 186.121 158.276C186.121 158.237 186.121 158.206 186.121 158.171C186.114 157.938 186.066 157.709 185.98 157.493C186.371 157.394 186.784 157.421 187.158 157.572C186.93 157.941 186.81 158.365 186.813 158.798C186.814 159.184 186.91 159.564 187.095 159.905C187.28 160.245 187.547 160.535 187.872 160.749C188.197 160.963 188.571 161.094 188.96 161.131C189.349 161.167 189.741 161.109 190.101 160.96C190.461 160.811 190.779 160.576 191.026 160.276C191.272 159.977 191.44 159.621 191.514 159.242C191.589 158.863 191.567 158.471 191.452 158.102C191.337 157.733 191.131 157.398 190.853 157.126C190.604 156.882 190.302 156.696 189.971 156.582L189.916 156.566C189.68 156.491 189.434 156.452 189.185 156.452C188.83 156.45 188.479 156.528 188.159 156.681C187.838 156.834 187.558 157.057 187.338 157.333C186.88 157.127 186.363 157.091 185.88 157.232C185.643 156.755 185.249 156.373 184.764 156.146C184.278 155.919 183.73 155.861 183.207 155.982C182.685 156.104 182.219 156.396 181.886 156.813C181.553 157.229 181.372 157.745 181.374 158.276ZM189.182 156.751C189.429 156.751 189.673 156.795 189.903 156.881L189.958 156.9C190.221 157.009 190.458 157.169 190.656 157.372C190.906 157.623 191.086 157.934 191.178 158.274C191.27 158.615 191.271 158.973 191.182 159.314C191.092 159.655 190.915 159.967 190.667 160.22C190.42 160.473 190.11 160.659 189.768 160.759C189.483 160.843 189.183 160.866 188.889 160.825C188.594 160.784 188.312 160.681 188.061 160.523C187.81 160.365 187.597 160.155 187.436 159.907C187.274 159.66 187.169 159.382 187.126 159.091C187.084 158.799 187.105 158.503 187.189 158.22C187.273 157.938 187.417 157.677 187.612 157.455C187.808 157.233 188.049 157.055 188.32 156.934C188.591 156.812 188.885 156.75 189.182 156.751ZM181.721 158.68C181.693 158.547 181.679 158.412 181.679 158.276C181.67 157.734 181.879 157.21 182.26 156.82C182.64 156.43 183.163 156.206 183.71 156.197C184.259 156.188 184.788 156.394 185.182 156.771C185.576 157.147 185.803 157.664 185.812 158.206C185.814 158.229 185.814 158.252 185.812 158.276C185.815 158.784 185.626 159.276 185.282 159.654C184.938 160.032 184.463 160.27 183.951 160.32C183.439 160.371 182.927 160.231 182.514 159.927C182.101 159.624 181.817 159.179 181.718 158.68H181.721Z" fill="white"/>
<path opacity="0.2" d="M172.142 190.128C171.727 187.142 171.868 184.474 171.559 182.606C171.545 182.513 171.499 182.427 171.429 182.362C171.359 182.298 171.27 182.259 171.175 182.25C171.08 182.242 170.985 182.265 170.904 182.316C170.824 182.367 170.763 182.444 170.732 182.533L169.722 185.315L169.68 185.592C170.369 189.249 170.452 196.288 169.754 202.502C169.535 204.444 168.717 210.581 168.27 212.29C168.235 212.424 168.231 212.564 168.258 212.699C168.286 212.834 168.344 212.961 168.429 213.071C168.514 213.18 168.622 213.269 168.747 213.331C168.872 213.393 169.009 213.426 169.149 213.427H170.114C170.571 212.309 170.911 211.147 171.128 209.96C172.142 202.861 172.905 195.607 172.142 190.128Z" fill="black"/>
<path d="M165.576 195.256L175.232 171.795L171.077 170.522C166.435 171.333 165.833 171.664 163.825 176.032L158.179 193.037L165.576 195.256Z" fill="#4D61FC"/>
<path d="M158.179 193.037L156.853 197.048C156.704 197.498 156.657 197.974 156.715 198.443C156.772 198.913 156.934 199.364 157.187 199.765C157.44 200.166 157.779 200.507 158.18 200.764C158.581 201.021 159.035 201.189 159.508 201.254L180.083 204.399L179.97 200.232L165.576 195.272L158.179 193.037Z" fill="#4D61FC"/>
<path opacity="0.15" d="M178.271 162.446L179.143 160.72H178.412L178.271 162.446Z" fill="black"/>
<path opacity="0.2" d="M186.726 167.259C186.337 167.313 185.943 167.326 185.551 167.3C184.557 167.233 183.613 166.837 182.873 166.176C182.036 166.028 181.241 165.702 180.543 165.221C180.511 165.2 180.488 165.167 180.48 165.13C180.472 165.092 180.48 165.053 180.501 165.021C180.522 164.989 180.556 164.966 180.594 164.959C180.632 164.951 180.671 164.958 180.704 164.979C181.25 165.343 181.854 165.615 182.49 165.782C182.529 165.804 182.59 165.804 182.632 165.823C182.75 165.86 182.872 165.887 182.996 165.903H183.057C183.137 165.922 183.221 165.922 183.302 165.944C183.504 165.963 183.726 165.982 183.929 165.982C184.872 166.038 185.813 165.86 186.668 165.463L186.726 167.259Z" fill="black"/>
<path d="M191.706 155.557C191.768 155.411 191.821 155.263 191.866 155.111C191.804 155.256 191.75 155.405 191.706 155.557Z" fill="#21252B"/>
<path d="M191.579 157.053C191.565 156.848 191.565 156.643 191.579 156.439C191.579 156.394 191.579 156.346 191.579 156.302C191.579 156.404 191.579 156.505 191.579 156.62C191.57 156.764 191.57 156.909 191.579 157.053Z" fill="#21252B"/>
<path d="M174.891 156.05C175.067 155.427 175.175 154.786 175.212 154.14L175.183 154.124C175.128 154.772 175.03 155.415 174.891 156.05Z" fill="#21252B"/>
<path opacity="0.2" d="M187.074 160.542C187.071 160.356 186.995 160.178 186.862 160.047C186.73 159.915 186.55 159.841 186.362 159.838C186.314 159.838 186.267 159.857 186.233 159.891C186.198 159.925 186.179 159.971 186.179 160.019C186.18 160.068 186.199 160.113 186.234 160.147C186.268 160.181 186.314 160.2 186.362 160.201C186.459 160.201 186.551 160.239 186.619 160.306C186.688 160.374 186.726 160.465 186.726 160.561C186.726 160.656 186.688 160.748 186.619 160.815C186.551 160.882 186.459 160.92 186.362 160.92H185.551C185.503 160.921 185.457 160.941 185.422 160.974C185.388 161.009 185.369 161.054 185.368 161.102C185.368 161.15 185.387 161.196 185.421 161.23C185.456 161.264 185.503 161.283 185.551 161.283H186.365C186.462 161.282 186.557 161.262 186.645 161.224C186.733 161.186 186.813 161.13 186.879 161.061C186.945 160.992 186.996 160.91 187.03 160.821C187.063 160.732 187.078 160.637 187.074 160.542Z" fill="black"/>
<path opacity="0.2" d="M158.256 193.076L158.179 193.037L158.06 193.403C158.173 193.197 158.256 193.076 158.256 193.076Z" fill="black"/>
<path d="M226.651 184.35C226.644 184.358 226.637 184.367 226.632 184.376C226.631 184.366 226.631 184.354 226.632 184.344L226.651 184.35Z" fill="#FC9D9D"/>
<path opacity="0.2" d="M161.259 199.961C157.866 199.324 157.223 196.978 157.367 195.504L156.862 197.032C156.713 197.482 156.666 197.958 156.724 198.427C156.782 198.897 156.943 199.348 157.196 199.749C157.45 200.15 157.788 200.491 158.19 200.748C158.591 201.006 159.044 201.173 159.518 201.238L180.092 204.383L179.809 203.479L161.259 199.961Z" fill="black"/>
<path d="M179.558 197.436C179.265 198.287 179.124 199.181 179.14 200.079H178.818L178.196 201.482C178.045 201.824 178.005 202.204 178.083 202.569C178.161 202.934 178.353 203.265 178.631 203.517L178.998 203.835C179.717 204.485 180.651 204.854 181.624 204.873C182.269 204.869 182.914 204.897 183.556 204.959C184.157 205.067 184.767 205.109 185.377 205.083C185.754 205.041 189.787 205.433 190.27 205.43C190.753 205.427 191.007 204.793 190.592 204.586C190.344 204.472 186.378 204.004 185.088 203.809C184.817 203.768 185.088 203.491 185.088 203.491C185.088 203.491 189.369 203.491 189.835 203.37C190.302 203.249 190.354 202.514 189.497 202.332C188.809 202.186 184.071 202.278 183.852 201.718C183.633 201.158 186.079 200.617 186.61 200.33C187.141 200.044 187.721 199.91 187.392 199.26C187.186 198.853 183.569 199.881 182.941 199.945C182.313 200.009 181.393 199.385 180.923 198.856C180.672 198.57 180.601 197.876 180.601 197.3C180.601 196.841 180.421 196.138 180.054 195.816C180.032 195.796 180.005 195.782 179.976 195.774C179.947 195.767 179.916 195.767 179.887 195.774C179.858 195.781 179.831 195.796 179.809 195.816C179.787 195.836 179.771 195.861 179.761 195.889L179.558 197.436Z" fill="#FC9D9D"/>
<path opacity="0.15" d="M178.184 202.896C178.282 203.137 178.432 203.355 178.625 203.532L178.992 203.851C179.711 204.501 180.644 204.869 181.618 204.889C182.481 204.889 183.437 204.889 183.549 204.974C183.758 205.127 184.991 205.14 185.371 205.099C185.751 205.057 189.781 205.449 190.264 205.446C190.306 205.45 190.348 205.447 190.389 205.436C190.43 205.424 190.468 205.405 190.501 205.379C190.534 205.353 190.562 205.321 190.583 205.284C190.603 205.247 190.616 205.207 190.621 205.166C190.199 205.223 189.77 205.21 189.353 205.127L183.43 204.491C180.456 204.799 178.232 202.937 178.184 202.896Z" fill="black"/>
<path opacity="0.2" d="M190.46 169.822L191.22 175.023L189.063 175.119L191.378 176.742C191.378 176.742 190.09 182.619 187.592 187.247C187.592 187.247 189.359 182.109 190.892 176.994L188.638 175.039L190.814 174.832L190.171 169.637L190.46 169.822Z" fill="black"/>
<path opacity="0.2" d="M174.714 169.627L174.308 174.87L176.468 174.822L174.267 176.595C174.267 176.595 177.601 183.28 180.402 187.737C180.402 187.737 176.739 180.918 174.769 176.834L176.89 174.733L174.704 174.672L174.994 169.445L174.714 169.627Z" fill="black"/>
<path opacity="0.2" d="M203.885 189.472L202.678 190.01L203.612 188.587L203.885 189.472Z" fill="black"/>
<path opacity="0.2" d="M165.576 195.26L164.121 194.792L165.946 194.362L165.576 195.26Z" fill="black"/>
<path opacity="0.2" d="M172.451 197.628L179.139 200.079L179.149 199.563L172.451 197.157V197.628Z" fill="black"/>
<path d="M184.177 162.305C184.084 162.305 184.051 162.369 184.067 162.448C184.145 162.755 184.315 163.031 184.556 163.239C184.797 163.447 185.096 163.577 185.414 163.611C185.731 163.646 186.052 163.584 186.332 163.433C186.613 163.282 186.84 163.049 186.984 162.767C186.992 162.751 186.997 162.734 186.997 162.717C186.998 162.7 186.994 162.682 186.987 162.666C186.979 162.651 186.968 162.637 186.954 162.626C186.94 162.615 186.924 162.608 186.906 162.604L184.177 162.305Z" fill="white"/>
<path d="M177.533 161.306C177.612 161.3 177.689 161.279 177.759 161.244C177.829 161.209 177.892 161.16 177.943 161.101C177.994 161.042 178.033 160.973 178.057 160.899C178.081 160.825 178.09 160.747 178.084 160.669C178.089 160.535 178.049 160.403 177.971 160.293C177.894 160.183 177.781 160.102 177.652 160.061C177.633 160.054 177.612 160.052 177.592 160.054C177.571 160.055 177.552 160.062 177.534 160.071C177.516 160.081 177.5 160.094 177.487 160.111C177.475 160.126 177.466 160.145 177.461 160.165C177.456 160.184 177.456 160.205 177.459 160.225C177.463 160.245 177.47 160.264 177.481 160.281C177.493 160.297 177.507 160.312 177.525 160.323C177.542 160.334 177.561 160.341 177.581 160.344C177.646 160.368 177.702 160.412 177.739 160.469C177.777 160.527 177.795 160.594 177.791 160.663C177.796 160.74 177.773 160.816 177.726 160.878C177.678 160.939 177.61 160.981 177.533 160.997C177.395 160.997 177.279 160.844 177.279 160.663C177.277 160.637 177.277 160.612 177.279 160.586C177.283 160.568 177.283 160.548 177.28 160.529C177.276 160.511 177.269 160.493 177.258 160.477C177.247 160.461 177.233 160.448 177.217 160.438C177.2 160.427 177.182 160.421 177.163 160.417C177.144 160.414 177.125 160.414 177.106 160.418C177.087 160.422 177.069 160.429 177.054 160.44C177.038 160.45 177.024 160.464 177.014 160.48C177.003 160.496 176.996 160.514 176.992 160.532C176.988 160.576 176.988 160.619 176.992 160.663C176.984 160.74 176.992 160.819 177.015 160.893C177.038 160.967 177.076 161.037 177.126 161.096C177.177 161.156 177.239 161.206 177.308 161.242C177.378 161.278 177.455 161.299 177.533 161.306Z" fill="white"/>
<path d="M141.5 294.089C141.434 293.703 141.401 293.312 141.4 292.92C141.4 288.486 145.604 284.889 150.789 284.889C155.974 284.889 160.175 288.486 160.175 292.92C160.174 293.312 160.141 293.703 160.075 294.089H141.5Z" fill="#868A91"/>
<path opacity="0.1" d="M141.5 294.14C141.434 293.753 141.401 293.361 141.4 292.969C141.4 288.534 145.604 284.94 150.789 284.94C155.974 284.94 160.175 288.534 160.175 292.969C160.174 293.361 160.141 293.753 160.075 294.14H141.5Z" fill="black"/>
<path d="M130.878 292.119C130.811 291.571 130.777 291.019 130.778 290.467C130.778 284.212 134.979 279.14 140.164 279.14C145.35 279.14 149.55 284.212 149.55 290.467C149.55 291.019 149.518 291.57 149.454 292.119H130.878Z" fill="#868A91"/>
<path d="M134.312 299.055C134.379 298.669 134.413 298.278 134.412 297.886C134.412 293.452 130.208 289.855 125.026 289.855C119.844 289.855 115.637 293.452 115.637 297.886C115.637 298.278 115.671 298.669 115.736 299.055H134.312Z" fill="#868A91"/>
<path d="M149.35 299.055C149.433 298.509 149.475 297.958 149.476 297.406C149.476 291.151 144.149 286.08 137.567 286.08C130.984 286.08 125.657 291.151 125.657 297.406C125.657 297.958 125.698 298.509 125.783 299.055H149.35Z" fill="#868A91"/>
<path opacity="0.1" d="M149.35 299.049C149.433 298.503 149.475 297.952 149.476 297.4C149.476 291.144 144.149 286.073 137.567 286.073C130.984 286.073 125.657 291.144 125.657 297.4C125.657 297.952 125.698 298.503 125.783 299.049H149.35Z" fill="black"/>
<path d="M140.199 286.08C141.79 286.096 143.355 286.478 144.771 287.197C146.187 287.915 147.414 288.949 148.355 290.218C149.377 289.979 150.424 289.86 151.474 289.862C157.307 289.862 162.035 293.459 162.035 297.893C162.035 298.285 161.997 298.676 161.922 299.061H129.751C129.677 298.515 129.64 297.964 129.642 297.412C129.642 291.151 134.367 286.08 140.199 286.08Z" fill="#868A91"/>
<path d="M330.398 171.639C330.356 171.639 330.314 171.628 330.279 171.607C330.24 171.587 330.211 171.557 330.189 171.521C329.886 171.011 329.693 170.444 329.626 169.856C329.558 169.269 329.613 168.673 329.79 168.108C331.029 163.859 337.837 160.252 338.123 160.102C338.152 160.084 338.184 160.072 338.217 160.067C338.249 160.062 338.284 160.063 338.316 160.071C338.348 160.08 338.377 160.095 338.403 160.115C338.432 160.136 338.452 160.161 338.468 160.191C338.484 160.22 338.493 160.252 338.497 160.285C338.497 160.318 338.493 160.352 338.484 160.383C338.471 160.414 338.455 160.443 338.429 160.466C338.406 160.491 338.381 160.51 338.349 160.522C338.278 160.561 331.435 164.186 330.253 168.239C330.096 168.743 330.044 169.273 330.105 169.797C330.166 170.321 330.337 170.827 330.607 171.282C330.64 171.336 330.646 171.4 330.63 171.459C330.614 171.518 330.575 171.569 330.52 171.6C330.485 171.624 330.443 171.637 330.398 171.639Z" fill="#4D61FC"/>
<path d="M362.654 141.903L338.214 152.252C338.085 152.308 337.969 152.39 337.872 152.495C337.779 152.599 337.711 152.723 337.67 152.857L335.153 161.194C335.088 161.408 335.101 161.638 335.191 161.843C335.278 162.049 335.439 162.216 335.639 162.318L343.476 166.272C343.602 166.336 343.74 166.372 343.885 166.377C344.027 166.382 344.165 166.356 344.297 166.301L368.734 155.948C368.969 155.849 369.155 155.661 369.249 155.427C369.345 155.192 369.342 154.93 369.242 154.697L363.922 142.406C363.873 142.291 363.799 142.186 363.709 142.099C363.619 142.011 363.51 141.942 363.394 141.895C363.275 141.848 363.149 141.825 363.024 141.826C362.895 141.828 362.769 141.854 362.654 141.903ZM339.443 161.077C339.208 161.175 338.951 161.203 338.7 161.156C338.452 161.109 338.22 160.99 338.04 160.814C337.856 160.638 337.731 160.413 337.679 160.167C337.628 159.92 337.65 159.664 337.744 159.431C337.84 159.197 338.001 158.997 338.21 158.854C338.423 158.712 338.671 158.634 338.925 158.632C339.179 158.628 339.427 158.7 339.643 158.837C339.855 158.974 340.022 159.171 340.122 159.402C340.19 159.556 340.225 159.722 340.225 159.889C340.229 160.057 340.196 160.223 340.135 160.379C340.071 160.534 339.977 160.676 339.858 160.796C339.739 160.916 339.598 161.011 339.443 161.077Z" fill="#4D61FC"/>
<path opacity="0.2" d="M362.654 141.903L338.214 152.252C338.085 152.308 337.969 152.39 337.872 152.495C337.779 152.599 337.711 152.723 337.67 152.857L335.153 161.194C335.088 161.408 335.101 161.638 335.191 161.843C335.278 162.049 335.439 162.216 335.639 162.318L343.476 166.272C343.602 166.336 343.74 166.372 343.885 166.377C344.027 166.382 344.165 166.356 344.297 166.301L368.734 155.948C368.969 155.849 369.155 155.661 369.249 155.427C369.345 155.192 369.342 154.93 369.242 154.697L363.922 142.406C363.873 142.291 363.799 142.186 363.709 142.099C363.619 142.011 363.51 141.942 363.394 141.895C363.275 141.848 363.149 141.825 363.024 141.826C362.895 141.828 362.769 141.854 362.654 141.903ZM339.443 161.077C339.208 161.175 338.951 161.203 338.7 161.156C338.452 161.109 338.22 160.99 338.04 160.814C337.856 160.638 337.731 160.413 337.679 160.167C337.628 159.92 337.65 159.664 337.744 159.431C337.84 159.197 338.001 158.997 338.21 158.854C338.423 158.712 338.671 158.634 338.925 158.632C339.179 158.628 339.427 158.7 339.643 158.837C339.855 158.974 340.022 159.171 340.122 159.402C340.19 159.556 340.225 159.722 340.225 159.889C340.229 160.057 340.196 160.223 340.135 160.379C340.071 160.534 339.977 160.676 339.858 160.796C339.739 160.916 339.598 161.011 339.443 161.077Z" fill="black"/>
<path d="M361.765 142.295L337.325 152.628C337.196 152.684 337.08 152.766 336.984 152.871C336.89 152.975 336.823 153.099 336.781 153.233L334.264 161.57C334.199 161.784 334.212 162.014 334.302 162.219C334.389 162.424 334.55 162.592 334.75 162.694L342.588 166.648C342.713 166.712 342.851 166.747 342.996 166.753C343.138 166.757 343.28 166.731 343.408 166.676L367.848 156.327C368.083 156.227 368.27 156.039 368.363 155.803C368.46 155.568 368.453 155.306 368.354 155.073L363.033 142.782C362.93 142.552 362.737 142.371 362.502 142.28C362.264 142.189 362 142.194 361.765 142.295ZM338.558 161.475C338.323 161.574 338.065 161.602 337.814 161.556C337.566 161.51 337.335 161.391 337.151 161.215C336.971 161.039 336.845 160.814 336.791 160.568C336.739 160.322 336.762 160.066 336.855 159.832C336.952 159.598 337.112 159.397 337.322 159.255C337.531 159.112 337.779 159.034 338.033 159.031C338.287 159.027 338.538 159.099 338.751 159.236C338.966 159.373 339.134 159.569 339.234 159.8C339.366 160.109 339.366 160.456 339.24 160.767C339.115 161.077 338.87 161.326 338.558 161.459V161.475Z" fill="#4D61FC"/>
<path d="M347.117 159.978L347.487 160.828L346.998 161.035L346.631 160.185C345.951 160.457 345.201 160.501 344.493 160.313L344.522 159.606C345.124 159.781 345.765 159.759 346.354 159.542L345.594 157.795C344.67 157.947 343.663 158.056 343.228 157.031C342.906 156.286 343.164 155.407 344.303 154.802L343.93 153.943L344.406 153.755L344.777 154.608C345.33 154.389 345.932 154.322 346.521 154.414V155.121C346.025 155.042 345.517 155.086 345.044 155.248L345.803 157.005C346.75 156.856 347.77 156.715 348.217 157.75C348.565 158.482 348.269 159.37 347.117 159.978ZM345.285 157.078L344.58 155.449C343.936 155.821 343.788 156.286 343.962 156.684C344.162 157.152 344.674 157.168 345.285 157.078ZM347.513 158.097C347.303 157.616 346.766 157.62 346.135 157.709L346.837 159.329C347.516 158.96 347.69 158.505 347.513 158.097Z" fill="white"/>
<path d="M353.628 157.221L353.995 158.071L353.509 158.278L353.139 157.428C352.46 157.7 351.713 157.744 351.005 157.556L351.031 156.849C351.632 157.024 352.276 157.002 352.862 156.785L352.106 155.038C351.179 155.19 350.174 155.299 349.737 154.274C349.415 153.529 349.672 152.65 350.812 152.045L350.442 151.186L350.928 150.979L351.298 151.832C351.851 151.613 352.453 151.546 353.042 151.638V152.344C352.547 152.266 352.038 152.309 351.565 152.472L352.324 154.229C353.271 154.079 354.294 153.939 354.739 154.974C355.073 155.725 354.79 156.62 353.628 157.221ZM351.797 154.321L351.092 152.695C350.448 153.064 350.297 153.529 350.47 153.927C350.673 154.391 351.185 154.41 351.81 154.321H351.797ZM354.021 155.34C353.815 154.859 353.274 154.862 352.646 154.952L353.348 156.572C354.027 156.203 354.198 155.747 354.021 155.346V155.34Z" fill="white"/>
<path d="M360.136 154.465L360.507 155.315L360.017 155.521L359.65 154.671C358.971 154.943 358.221 154.988 357.513 154.799L357.542 154.092C358.144 154.268 358.784 154.245 359.374 154.028L358.614 152.281C357.687 152.434 356.683 152.542 356.245 151.517C355.923 150.772 356.184 149.893 357.323 149.288L356.95 148.429L357.439 148.222L357.806 149.075C358.36 148.856 358.965 148.789 359.554 148.881V149.588C359.058 149.509 358.55 149.553 358.073 149.715L358.836 151.472C359.779 151.323 360.803 151.183 361.25 152.217C361.582 152.968 361.298 153.857 360.136 154.465ZM358.305 151.565L357.603 149.935C356.959 150.304 356.811 150.769 356.982 151.167C357.182 151.638 357.693 151.654 358.305 151.565ZM360.532 152.583C360.323 152.103 359.785 152.106 359.155 152.195L359.856 153.815C360.535 153.436 360.709 152.991 360.532 152.583Z" fill="white"/>
<path d="M331.663 172.18H331.531C331.499 172.18 331.467 172.173 331.438 172.161C331.409 172.148 331.383 172.13 331.361 172.107C331.338 172.084 331.322 172.057 331.312 172.028C331.3 171.998 331.296 171.967 331.296 171.935C331.3 171.873 331.329 171.815 331.374 171.772C331.419 171.729 331.48 171.705 331.541 171.703C332.211 171.733 332.877 171.623 333.498 171.381C334.119 171.139 334.683 170.771 335.152 170.299C338.22 167.3 338.168 160.488 338.168 160.431C338.168 160.368 338.194 160.307 338.239 160.262C338.281 160.217 338.342 160.19 338.407 160.189C338.471 160.189 338.532 160.214 338.577 160.258C338.622 160.302 338.648 160.362 338.648 160.424C338.648 160.714 338.703 167.507 335.49 170.652C334.992 171.15 334.393 171.542 333.736 171.804C333.076 172.067 332.371 172.195 331.663 172.18Z" fill="#4D61FC"/>
<path d="M156.206 234.331H151.378V321.873H156.206V234.331Z" fill="#61656D"/>
<path opacity="0.2" d="M156.206 234.331H154.597V321.873H156.206V234.331Z" fill="black"/>
<path d="M151.378 234.331H105.672V238.47H151.378V234.331Z" fill="#61656D"/>
<path d="M105.672 245.791V268.393H149.447V245.791H105.672ZM114.523 249.293C114.301 249.293 114.083 249.228 113.897 249.105C113.712 248.983 113.568 248.809 113.482 248.605C113.397 248.402 113.375 248.177 113.418 247.961C113.462 247.745 113.569 247.547 113.727 247.391C113.884 247.235 114.085 247.129 114.304 247.086C114.522 247.043 114.749 247.065 114.954 247.15C115.16 247.234 115.336 247.377 115.46 247.56C115.584 247.743 115.65 247.958 115.65 248.179C115.65 248.325 115.621 248.47 115.565 248.606C115.509 248.741 115.426 248.864 115.321 248.968C115.216 249.071 115.092 249.153 114.955 249.209C114.818 249.265 114.672 249.293 114.523 249.293ZM139.308 249.293C139.085 249.293 138.867 249.228 138.682 249.105C138.497 248.983 138.352 248.809 138.267 248.605C138.182 248.402 138.159 248.177 138.203 247.961C138.246 247.745 138.353 247.547 138.511 247.391C138.669 247.235 138.869 247.129 139.088 247.086C139.307 247.043 139.533 247.065 139.739 247.15C139.945 247.234 140.121 247.377 140.244 247.56C140.368 247.743 140.434 247.958 140.434 248.179C140.435 248.325 140.406 248.47 140.349 248.606C140.293 248.741 140.21 248.864 140.105 248.968C140 249.071 139.876 249.153 139.739 249.209C139.603 249.265 139.456 249.293 139.308 249.293Z" fill="#4D61FC"/>
<path opacity="0.2" d="M105.672 245.791V268.393H148.159V245.791H105.672ZM114.523 249.293C114.301 249.293 114.083 249.228 113.897 249.105C113.712 248.983 113.568 248.809 113.482 248.605C113.397 248.402 113.375 248.177 113.418 247.961C113.462 247.745 113.569 247.547 113.727 247.391C113.884 247.235 114.085 247.129 114.304 247.086C114.522 247.043 114.749 247.065 114.954 247.15C115.16 247.234 115.336 247.377 115.46 247.56C115.584 247.743 115.65 247.958 115.65 248.179C115.65 248.325 115.621 248.47 115.565 248.606C115.509 248.741 115.426 248.864 115.321 248.968C115.216 249.071 115.092 249.153 114.955 249.209C114.818 249.265 114.671 249.293 114.523 249.293ZM139.308 249.293C139.085 249.293 138.867 249.228 138.682 249.105C138.497 248.983 138.352 248.809 138.267 248.605C138.182 248.402 138.159 248.177 138.203 247.961C138.246 247.745 138.353 247.547 138.511 247.391C138.669 247.235 138.869 247.129 139.088 247.086C139.307 247.043 139.533 247.065 139.739 247.15C139.945 247.234 140.121 247.377 140.244 247.56C140.368 247.743 140.434 247.958 140.434 248.179C140.435 248.325 140.406 248.47 140.349 248.606C140.293 248.741 140.21 248.864 140.105 248.968C140 249.071 139.876 249.153 139.739 249.209C139.603 249.265 139.456 249.293 139.308 249.293Z" fill="white"/>
<path d="M138.825 248.179C138.826 247.94 138.905 247.707 139.05 247.516C139.194 247.324 139.398 247.184 139.63 247.115C139.525 247.084 139.417 247.067 139.308 247.065C139.009 247.065 138.722 247.182 138.511 247.391C138.3 247.6 138.181 247.883 138.181 248.179C138.181 248.474 138.3 248.758 138.511 248.967C138.722 249.175 139.009 249.293 139.308 249.293C139.417 249.292 139.526 249.275 139.63 249.242C139.398 249.174 139.194 249.034 139.049 248.842C138.904 248.651 138.825 248.418 138.825 248.179Z" fill="#4D61FC"/>
<path d="M114.041 248.179C114.042 247.94 114.121 247.707 114.265 247.516C114.41 247.324 114.614 247.184 114.845 247.115C114.741 247.084 114.633 247.067 114.524 247.065C114.225 247.065 113.938 247.182 113.727 247.391C113.516 247.6 113.397 247.883 113.397 248.179C113.397 248.474 113.516 248.758 113.727 248.967C113.938 249.175 114.225 249.293 114.524 249.293C114.633 249.292 114.741 249.275 114.845 249.242C114.613 249.174 114.41 249.034 114.265 248.842C114.12 248.651 114.041 248.418 114.041 248.179Z" fill="#4D61FC"/>
<path d="M114.523 238.47V247.701" stroke="#61656D" stroke-width="3" stroke-miterlimit="10" stroke-linecap="round"/>
<path d="M139.308 238.629V247.86" stroke="#61656D" stroke-width="3" stroke-miterlimit="10" stroke-linecap="round"/>
<path d="M145.423 251.84H108.408V265.21H145.423V251.84Z" stroke="white" stroke-width="0.99" stroke-miterlimit="10"/>
<path d="M112.975 257.713H123.053L117.951 253.845L112.975 257.713Z" fill="white"/>
<path d="M121.589 256.914H114.311V263.31H116.941V260.512H118.962V263.31H121.589V256.914Z" fill="white"/>
<path d="M140.032 256.615H126.513V257.525H140.032V256.615Z" fill="white"/>
<path d="M137.94 259.524H128.605V260.435H137.94V259.524Z" fill="white"/>
<path d="M344.245 316.385C344.181 315.999 344.146 315.608 344.146 315.217C344.146 310.78 348.349 307.185 353.535 307.185C358.72 307.185 362.921 310.78 362.921 315.217C362.921 315.608 362.885 315.999 362.821 316.385H344.245Z" fill="#868A91"/>
<path opacity="0.1" d="M344.245 316.446C344.178 316.059 344.146 315.667 344.146 315.274C344.146 310.84 348.349 307.246 353.535 307.246C358.72 307.246 362.921 310.84 362.921 315.274C362.921 315.667 362.885 316.059 362.821 316.446H344.245Z" fill="black"/>
<path d="M333.623 314.411C333.556 313.864 333.523 313.314 333.523 312.762C333.523 306.507 337.708 301.436 342.909 301.436C348.111 301.436 352.295 306.507 352.295 312.762C352.295 313.314 352.263 313.864 352.199 314.411H333.623Z" fill="#868A91"/>
<path d="M337.058 321.351C337.126 320.966 337.158 320.574 337.158 320.183C337.158 315.745 332.973 312.151 327.772 312.151C322.57 312.151 318.383 315.745 318.383 320.183C318.384 320.574 318.417 320.966 318.483 321.351H337.058Z" fill="#868A91"/>
<path d="M352.083 321.351C352.167 320.807 352.208 320.253 352.208 319.702C352.208 313.447 346.881 308.376 340.299 308.376C333.717 308.376 328.39 313.447 328.39 319.702C328.39 320.253 328.431 320.807 328.515 321.351H352.083Z" fill="#868A91"/>
<path opacity="0.1" d="M352.083 321.345C352.167 320.797 352.208 320.247 352.208 319.696C352.208 313.44 346.881 308.369 340.299 308.369C333.717 308.369 328.39 313.44 328.39 319.696C328.39 320.247 328.431 320.8 328.515 321.345H352.083Z" fill="black"/>
<path d="M342.945 308.376C344.535 308.391 346.103 308.774 347.519 309.492C348.932 310.21 350.162 311.245 351.102 312.515C352.125 312.276 353.171 312.156 354.22 312.158C360.053 312.158 364.781 315.752 364.781 320.189C364.781 320.581 364.743 320.972 364.669 321.358H332.497C332.426 320.81 332.388 320.259 332.388 319.709C332.388 313.447 337.113 308.376 342.945 308.376Z" fill="#868A91"/>
<path d="M145.488 312.431C144.422 311.333 143.218 310.248 142.269 309.044C142.06 308.777 140.952 307.055 141.783 307.22C142.613 307.386 143.421 308.688 143.807 309.321C144.194 309.955 144.602 310.595 144.973 311.231C145.153 311.507 145.307 311.799 145.433 312.104C145.433 312.142 145.555 312.498 145.481 312.422C144.676 311.604 145.613 312.565 145.488 312.431Z" fill="#4D61FC"/>
<path d="M150.122 321.905C150.08 321.491 149.988 321.081 149.849 320.689C149.554 319.893 149.126 319.155 148.584 318.499C147.448 317.098 145.915 315.809 144.152 315.29C143.743 315.166 143.322 315.089 142.896 315.061C142.697 315.061 142.072 315 141.931 315.185C141.789 315.369 141.982 315.318 142.137 315.373C142.449 315.486 142.751 315.625 143.041 315.786C145.751 317.2 148.97 318.849 149.875 321.924L150.122 321.905Z" fill="#4D61FC"/>
<path opacity="0.2" d="M150.122 321.905C150.08 321.491 149.988 321.081 149.849 320.689C149.554 319.893 149.126 319.155 148.584 318.499C147.448 317.098 145.915 315.809 144.152 315.29C143.743 315.166 143.322 315.089 142.896 315.061C142.697 315.061 142.072 315 141.931 315.185C141.789 315.369 141.982 315.318 142.137 315.373C142.449 315.486 142.751 315.625 143.041 315.786C145.751 317.2 148.97 318.849 149.875 321.924L150.122 321.905Z" fill="black"/>
<path d="M150.692 321.867C150.37 319.476 149.498 317.213 148.551 315.007C148.123 314.001 147.698 312.982 147.187 312.015C146.565 310.846 145.825 309.72 145.101 308.609C144.757 308.083 144.406 307.568 144.029 307.068C143.858 306.839 143.681 306.616 143.495 306.399C143.424 306.317 143.086 306.046 143.076 305.944C143.06 305.788 143.218 305.906 143.308 305.944C143.532 306.067 143.748 306.205 143.952 306.358C144.447 306.73 144.904 307.149 145.317 307.609C146.21 308.574 146.962 309.658 147.55 310.831C148.097 311.998 148.582 313.192 149.002 314.409C149.539 315.807 149.984 317.238 150.335 318.693C150.489 319.346 150.608 320.005 150.692 320.667C150.727 320.95 150.75 321.23 150.766 321.513C150.766 321.58 150.817 321.775 150.782 321.832C150.782 321.835 150.711 322.01 150.692 321.867Z" fill="#4D61FC"/>
<path opacity="0.2" d="M150.692 321.867C150.37 319.476 149.498 317.213 148.551 315.007C148.123 314.001 147.698 312.982 147.187 312.015C146.565 310.846 145.825 309.72 145.101 308.609C144.757 308.083 144.406 307.568 144.029 307.068C143.858 306.839 143.681 306.616 143.495 306.399C143.424 306.317 143.086 306.046 143.076 305.944C143.06 305.788 143.218 305.906 143.308 305.944C143.532 306.067 143.748 306.205 143.952 306.358C144.447 306.73 144.904 307.149 145.317 307.609C146.21 308.574 146.962 309.658 147.55 310.831C148.097 311.998 148.582 313.192 149.002 314.409C149.539 315.807 149.984 317.238 150.335 318.693C150.489 319.346 150.608 320.005 150.692 320.667C150.727 320.95 150.75 321.23 150.766 321.513C150.766 321.58 150.817 321.775 150.782 321.832C150.782 321.835 150.711 322.01 150.692 321.867Z" fill="black"/>
<path d="M150.612 321.87H150.811C150.792 321.74 150.763 321.603 150.753 321.498C150.689 320.918 150.589 320.342 150.454 319.775C150.164 318.537 149.702 317.345 149.08 316.232C147.924 314.198 146.296 312.368 144.113 311.397C143.907 311.308 141.5 310.442 141.442 310.76C141.413 310.913 142.253 311.295 142.385 311.378C142.814 311.647 143.243 311.929 143.672 312.225C145.523 313.52 147.313 314.956 148.555 316.859C149.527 318.4 150.223 320.094 150.612 321.87Z" fill="#4D61FC"/>
<path d="M151.713 321.797H151.809C151.809 321.647 151.79 321.478 151.78 321.345C151.751 320.918 151.716 320.495 151.674 320.071C151.587 319.116 151.471 318.161 151.32 317.206C151.037 315.465 150.728 313.73 150 312.113C149.834 311.74 149.648 311.375 149.444 311.021C149.405 310.961 149.122 310.42 149.054 310.537C149.028 310.579 149.106 310.782 149.115 310.83C149.151 310.986 149.189 311.149 149.228 311.305C149.321 311.683 149.415 312.065 149.514 312.444C149.955 314.15 150.502 315.825 150.889 317.537C151.211 318.951 151.471 320.371 151.713 321.797Z" fill="#4D61FC"/>
<path opacity="0.2" d="M151.713 321.797H151.809C151.809 321.647 151.79 321.478 151.78 321.345C151.751 320.918 151.716 320.495 151.674 320.071C151.587 319.116 151.471 318.161 151.32 317.206C151.037 315.465 150.728 313.73 150 312.113C149.834 311.74 149.648 311.375 149.444 311.021C149.405 310.961 149.122 310.42 149.054 310.537C149.028 310.579 149.106 310.782 149.115 310.83C149.151 310.986 149.189 311.149 149.228 311.305C149.321 311.683 149.415 312.065 149.514 312.444C149.955 314.15 150.502 315.825 150.889 317.537C151.211 318.951 151.471 320.371 151.713 321.797Z" fill="white"/>
<path d="M154.822 316.742C154.633 315.751 154.602 314.737 154.729 313.737C154.777 313.145 154.885 312.56 155.051 311.989C155.232 311.453 155.475 310.939 155.775 310.458C155.887 310.26 156.003 310.066 156.116 309.866C156.148 309.808 156.316 309.385 156.37 309.375C156.583 309.34 156.402 310.33 156.37 310.47C156.232 311.009 156.033 311.531 155.778 312.027C155.525 312.557 155.341 313.116 155.231 313.692C155.098 314.291 154.999 314.897 154.935 315.507C154.909 315.777 154.893 316.051 154.893 316.325C154.905 316.431 154.905 316.537 154.893 316.643C154.906 316.608 154.864 316.914 154.822 316.742Z" fill="#4D61FC"/>
<path opacity="0.2" d="M154.822 316.742C154.633 315.751 154.602 314.737 154.729 313.737C154.777 313.145 154.885 312.56 155.051 311.989C155.232 311.453 155.475 310.939 155.775 310.458C155.887 310.26 156.003 310.066 156.116 309.866C156.148 309.808 156.316 309.385 156.37 309.375C156.583 309.34 156.402 310.33 156.37 310.47C156.232 311.009 156.033 311.531 155.778 312.027C155.525 312.557 155.341 313.116 155.231 313.692C155.098 314.291 154.999 314.897 154.935 315.507C154.909 315.777 154.893 316.051 154.893 316.325C154.905 316.431 154.905 316.537 154.893 316.643C154.906 316.608 154.864 316.914 154.822 316.742Z" fill="black"/>
<path d="M153.714 308.818C153.789 309.264 153.853 309.713 153.92 310.162C154.213 312.17 154.439 314.192 154.548 316.21C154.635 317.856 154.735 319.989 154.899 321.704H155.06C155.037 321.386 155.012 321.023 155.012 320.883C155.012 320.38 154.976 319.689 154.983 319.183C154.983 318.05 155.025 316.914 155.028 315.78C155.028 313.807 155.028 311.83 154.455 309.923C154.333 309.498 154.184 309.082 154.011 308.675C153.927 308.481 153.83 308.287 153.734 308.099C153.711 308.051 153.631 307.825 153.566 307.908C153.502 307.991 153.599 308.163 153.608 308.226C153.64 308.42 153.682 308.618 153.714 308.818Z" fill="#4D61FC"/>
<path d="M156.534 321.864C156.579 320.909 156.624 319.674 156.682 319.237C156.846 317.964 157.049 316.713 157.303 315.465C157.756 313.46 158.367 311.493 159.131 309.582C159.318 309.082 159.508 308.582 159.707 308.089C159.762 307.962 160.126 307.261 159.897 307.287C159.778 307.303 159.508 307.659 159.421 307.752C159.237 307.943 159.07 308.14 158.906 308.347C158.589 308.748 158.306 309.174 158.059 309.62C157.017 311.495 156.695 313.599 156.45 315.697C156.243 317.756 156.156 319.823 156.186 321.892L156.534 321.864Z" fill="#4D61FC"/>
<path d="M165.122 305.381C164.824 305.443 164.541 305.558 164.285 305.721C164.008 305.854 163.738 306.002 163.477 306.164C162.976 306.474 162.504 306.827 162.064 307.217C159.904 309.127 158.752 311.786 157.831 314.437C157.117 316.497 156.322 319.495 156.431 321.87L156.682 321.851C156.666 321.708 156.653 321.596 156.653 321.58C156.658 321.272 156.681 320.966 156.721 320.66C156.821 319.915 156.978 319.18 157.191 318.457C157.632 316.961 158.175 315.495 158.816 314.071C159.955 311.531 161.519 309.199 163.441 307.173C163.906 306.68 164.395 306.21 164.906 305.766C165.077 305.619 165.479 305.384 165.122 305.381Z" fill="#4D61FC"/>
<path opacity="0.2" d="M165.122 305.381C164.824 305.443 164.541 305.558 164.285 305.721C164.008 305.854 163.738 306.002 163.477 306.164C162.976 306.474 162.504 306.827 162.064 307.217C159.904 309.127 158.752 311.786 157.831 314.437C157.117 316.497 156.322 319.495 156.431 321.87L156.682 321.851C156.666 321.708 156.653 321.596 156.653 321.58C156.658 321.272 156.681 320.966 156.721 320.66C156.821 319.915 156.978 319.18 157.191 318.457C157.632 316.961 158.175 315.495 158.816 314.071C159.955 311.531 161.519 309.199 163.441 307.173C163.906 306.68 164.395 306.21 164.906 305.766C165.077 305.619 165.479 305.384 165.122 305.381Z" fill="white"/>
<path d="M165.66 312.352C165.495 312.164 164.607 312.323 164.401 312.352C164.025 312.419 163.657 312.526 163.303 312.67C161.337 313.434 159.937 315.111 158.768 316.789C157.703 318.331 156.946 320.059 156.538 321.883L156.843 321.864C156.895 321.574 156.95 321.303 156.982 321.208C157.172 320.692 157.406 320.196 157.68 319.721C158.239 318.754 158.892 317.843 159.631 317.002C160.943 315.522 162.475 314.246 164.172 313.217C164.53 312.997 164.903 312.804 165.289 312.638C165.402 312.568 165.788 312.501 165.66 312.352Z" fill="#4D61FC"/>
<path opacity="0.2" d="M165.66 312.352C165.495 312.164 164.607 312.323 164.401 312.352C164.025 312.419 163.657 312.526 163.303 312.67C161.337 313.434 159.937 315.111 158.768 316.789C157.703 318.331 156.946 320.059 156.538 321.883L156.843 321.864C156.895 321.574 156.95 321.303 156.982 321.208C157.172 320.692 157.406 320.196 157.68 319.721C158.239 318.754 158.892 317.843 159.631 317.002C160.943 315.522 162.475 314.246 164.172 313.217C164.53 312.997 164.903 312.804 165.289 312.638C165.402 312.568 165.788 312.501 165.66 312.352Z" fill="black"/>
</svg>
