<svg width="70" height="70" viewBox="0 0 70 70" fill="none" xmlns="http://www.w3.org/2000/svg">
<g clip-path="url(#clip0_404_456)">
<path d="M49.9768 13.0492C45.8793 9.00913 40.4521 6.82846 34.693 6.90953C22.945 7.07469 13.5137 16.7723 13.6691 28.5273C13.7415 33.9892 15.8758 39.1585 19.6792 43.0829C22.639 46.137 24.2691 50.0885 24.2691 54.2098V57.0888C24.2691 61.1346 26.8651 64.584 30.4781 65.8633V66.4356C30.4781 68.4012 32.0771 70.0002 34.0426 70.0002H35.9572C37.9228 70.0002 39.5217 68.4011 39.5217 66.4356V65.8632C43.1344 64.5838 45.7302 61.1345 45.7302 57.0888V54.2098C45.7302 50.0824 47.3546 46.1363 50.3048 43.0988C54.1914 39.0966 56.3319 33.8197 56.3319 28.2399C56.332 22.485 54.0751 17.09 49.9768 13.0492ZM37.0072 66.4356H37.0069C37.0069 67.0144 36.5361 67.4852 35.9573 67.4852H34.0427C33.464 67.4852 32.9931 67.0144 32.9931 66.4356V66.3753C33.186 66.3872 33.3799 66.3954 33.576 66.3954H36.424C36.62 66.3954 36.8142 66.3872 37.0072 66.3753V66.4356ZM36.4237 63.8803H33.5757C30.8163 63.8803 28.4375 62.2251 27.3759 59.8563H42.6235C41.5616 62.2251 39.1831 63.8803 36.4237 63.8803ZM43.2153 57.0887C43.2153 57.1733 43.2121 57.2574 43.2089 57.3413H26.7903C26.7872 57.2574 26.7839 57.1733 26.7839 57.0887V55.4672H43.2152V57.0887H43.2153ZM34.9999 27.1832C35.7636 27.1832 36.5097 27.0374 37.207 26.7596L37.9981 27.9398C36.0395 28.482 33.9596 28.482 32.0011 27.9398L32.7924 26.7596C33.4894 27.0377 34.2358 27.1832 34.9999 27.1832ZM34.2496 24.5862L34.9998 23.4674L35.7499 24.5862C35.5056 24.6402 35.2546 24.6682 35.0002 24.6682C34.7451 24.6682 34.4939 24.6402 34.2496 24.5862ZM38.6883 30.3571V52.9521H36.2572V30.8038C37.0771 30.7289 37.8908 30.5791 38.6883 30.3571ZM33.7422 30.8038V52.9521H31.3111V30.3571C32.1087 30.5791 32.9222 30.7287 33.7422 30.8038ZM48.5006 41.3463C45.3923 44.5472 43.5581 48.6285 43.2594 52.9521H41.2032V28.5866C41.2032 28.3372 41.1291 28.0935 40.9901 27.8863L36.044 20.509C35.8105 20.1607 35.4188 19.9518 34.9996 19.9518C34.5804 19.9518 34.1886 20.1607 33.9552 20.509L29.009 27.8863C28.8702 28.0935 28.7959 28.3372 28.7959 28.5866V52.9523H26.7395C26.4395 48.6339 24.601 44.5476 21.4849 41.3326C18.1301 37.8711 16.2475 33.3115 16.1838 28.494C16.1176 23.4957 18.0165 18.7528 21.5305 15.1386C25.045 11.5239 29.732 9.49461 34.7284 9.42448C34.8194 9.42311 34.9103 9.4227 35.0014 9.4227C39.9798 9.4227 44.6617 11.3405 48.2109 14.8403C51.8259 18.4049 53.8168 23.1636 53.8168 28.24C53.8171 33.1614 51.929 37.8161 48.5006 41.3463Z" fill="black"/>
<path d="M39.7055 11.7558C39.0379 11.5652 38.3417 11.9515 38.1508 12.6193C37.9599 13.2869 38.3465 13.9831 39.0142 14.174C45.262 15.9599 49.6255 21.7439 49.6255 28.2397C49.6255 28.9343 50.1885 29.4973 50.8831 29.4973C51.5776 29.4973 52.1406 28.9343 52.1406 28.2397C52.1405 20.6271 47.0271 13.8486 39.7055 11.7558Z" fill="black"/>
<path d="M35.9414 11.1245C35.5476 11.103 35.1487 11.0949 34.7521 11.1007C34.0576 11.1102 33.5025 11.6809 33.5121 12.3754C33.5217 13.0638 34.0829 13.6155 34.7692 13.6155C34.7751 13.6155 34.781 13.6155 34.787 13.6153C35.1263 13.6107 35.4677 13.6174 35.8043 13.6356C35.8277 13.6369 35.8508 13.6374 35.8739 13.6374C36.537 13.6374 37.0919 13.1184 37.1284 12.4483C37.1666 11.7551 36.6349 11.1625 35.9414 11.1245Z" fill="black"/>
<path d="M62.2538 27.2537H60.0578C59.3633 27.2537 58.8003 27.8167 58.8003 28.5112C58.8003 29.2057 59.3633 29.7687 60.0578 29.7687H62.2538C62.9483 29.7687 63.5114 29.2057 63.5114 28.5112C63.5112 27.8167 62.9482 27.2537 62.2538 27.2537Z" fill="black"/>
<path d="M9.94024 27.2537H7.74631C7.05178 27.2537 6.48877 27.8167 6.48877 28.5112C6.48877 29.2057 7.05178 29.7687 7.74631 29.7687H9.9401C10.6348 29.7687 11.1978 29.2057 11.1978 28.5112C11.1978 27.8167 10.6348 27.2537 9.94024 27.2537Z" fill="black"/>
<path d="M59.6911 14.2556C59.3439 13.6541 58.5748 13.4482 57.9734 13.7954L56.0718 14.8933C55.4703 15.2406 55.2643 16.0096 55.6116 16.611C55.8444 17.0145 56.2671 17.2399 56.7018 17.2399C56.9151 17.2399 57.1313 17.1857 57.3293 17.0712L59.2309 15.9734C59.8324 15.6261 60.0384 14.8571 59.6911 14.2556Z" fill="black"/>
<path d="M14.3865 40.4123C14.0392 39.8107 13.2702 39.6048 12.6688 39.9521L10.7688 41.049C10.1674 41.3962 9.96133 42.1653 10.3086 42.7667C10.5414 43.1702 10.9642 43.3956 11.3988 43.3956C11.6121 43.3956 11.8284 43.3413 12.0263 43.2269L13.9263 42.13C14.5276 41.7827 14.7338 41.0137 14.3865 40.4123Z" fill="black"/>
<path d="M49.2557 3.81995C48.6541 3.47268 47.8852 3.67872 47.5379 4.28015L46.4399 6.18177C46.0927 6.78306 46.2987 7.55211 46.9001 7.89951C47.0981 8.01381 47.3144 8.06822 47.5277 8.06822C47.9623 8.06822 48.3849 7.84277 48.6179 7.43931L49.7159 5.53769C50.0631 4.93626 49.8571 4.16722 49.2557 3.81995Z" fill="black"/>
<path d="M35 0C34.3054 0 33.7424 0.563009 33.7424 1.25754V3.45352C33.7424 4.14806 34.3054 4.71106 35 4.71106C35.6945 4.71106 36.2575 4.14806 36.2575 3.45352V1.25754C36.2575 0.563009 35.6944 0 35 0Z" fill="black"/>
<path d="M23.5599 6.18189L22.4619 4.28027C22.1146 3.67884 21.3452 3.47281 20.7441 3.82007C20.1427 4.16734 19.9367 4.93638 20.2839 5.53781L21.3819 7.43944C21.6148 7.84289 22.0375 8.06834 22.4721 8.06834C22.6854 8.06834 22.9018 8.01407 23.0997 7.89963C23.7011 7.55236 23.9071 6.78332 23.5599 6.18189Z" fill="black"/>
<path d="M13.928 14.8933L12.0264 13.7955C11.425 13.4481 10.6559 13.6542 10.3087 14.2557C9.96126 14.8571 10.1674 15.6261 10.7689 15.9734L12.6705 17.0713C12.8684 17.1856 13.0847 17.24 13.298 17.24C13.7326 17.24 14.1552 17.0145 14.3882 16.6111C14.7355 16.0096 14.5294 15.2405 13.928 14.8933Z" fill="black"/>
<path d="M59.231 41.0489L57.331 39.952C56.7296 39.6046 55.9604 39.8107 55.6133 40.4122C55.266 41.0136 55.4721 41.7826 56.0735 42.1299L57.9735 43.2268C58.1714 43.3411 58.3877 43.3955 58.601 43.3955C59.0356 43.3955 59.4582 43.1701 59.6912 42.7666C60.0386 42.1652 59.8326 41.396 59.231 41.0489Z" fill="black"/>
</g>
<defs>
<clipPath id="clip0_404_456">
<rect width="70" height="70" fill="white"/>
</clipPath>
</defs>
</svg>
