<svg width="70" height="70" viewBox="0 0 70 70" fill="none" xmlns="http://www.w3.org/2000/svg">
<path d="M15.1279 18.1121C14.9249 17.1565 14.3617 16.3372 13.5422 15.8051C12.7229 15.273 11.7452 15.0915 10.7898 15.2948C9.83415 15.498 9.01479 16.061 8.48268 16.8805C7.95058 17.6998 7.76942 18.6774 7.97245 19.6329C8.17548 20.5884 8.73862 21.4079 9.55811 21.94C10.1584 22.33 10.8434 22.5313 11.5429 22.5313C11.798 22.5313 12.0551 22.5044 12.3105 22.4501C13.2662 22.247 14.0855 21.6838 14.6177 20.8643C15.1498 20.0453 15.3309 19.0676 15.1279 18.1121ZM12.3354 19.2441C12.3172 19.2829 12.2959 19.3202 12.2722 19.3559C12.0117 19.7449 11.4716 19.8574 11.0771 19.6013C10.6728 19.339 10.5609 18.7797 10.8338 18.3815C11.1018 17.9905 11.6503 17.8877 12.0419 18.1566C12.3924 18.3974 12.5122 18.867 12.3354 19.2441Z" fill="black"/>
<path d="M38.248 13.5004C37.8045 12.6299 37.0484 11.9842 36.1194 11.6823C35.1902 11.3804 34.1991 11.4584 33.3286 11.9019C31.5317 12.8174 30.8148 15.0243 31.7302 16.8213C32.1737 17.6918 32.9298 18.3375 33.8589 18.6394C34.2308 18.7602 34.6127 18.8203 34.9929 18.8203C35.5622 18.8203 36.1276 18.6857 36.6495 18.4198C37.52 17.9763 38.1657 17.2202 38.4676 16.2912C38.7696 15.362 38.6914 14.3709 38.248 13.5004ZM35.8155 15.4292C35.7437 15.6499 35.5905 15.8295 35.3835 15.9348C34.9569 16.1522 34.4325 15.9821 34.2148 15.5551C33.9974 15.1284 34.1678 14.6041 34.5946 14.3867C34.8013 14.2815 35.037 14.2629 35.2574 14.3344C35.4781 14.4062 35.6577 14.5594 35.763 14.7664C35.8686 14.9731 35.8871 15.2086 35.8155 15.4292Z" fill="black"/>
<path d="M67.1457 15.001C67.6172 12.5729 66.5229 10.0547 64.2865 8.76336C62.05 7.47219 59.3221 7.7835 57.4551 9.40594C55.2916 8.20733 52.5583 8.46983 50.6394 10.1978C48.72 11.9258 48.1732 14.6166 49.1393 16.8936C47.3306 18.5808 46.7359 21.2613 47.7861 23.6206C48.6103 25.4721 50.26 26.703 52.1228 27.0429L44.6948 39.9081C44.8121 39.528 44.8842 39.2829 44.8957 39.2437C45.0387 38.7546 44.9036 38.2265 44.5435 37.8662C44.1832 37.506 43.6548 37.3709 43.1661 37.514C41.9435 37.8717 38.5116 38.922 36.3837 40.0238V25.4001C37.0211 25.6277 37.6916 25.7434 38.3653 25.7434C39.5764 25.7433 40.797 25.3701 41.8506 24.6047C43.9398 23.0868 44.7648 20.4678 44.0422 18.1023C46.0172 16.6135 46.889 14.0098 46.091 11.5537C45.2929 9.09764 43.0574 7.50364 40.5843 7.46003C39.7783 5.12146 37.5715 3.48767 34.9892 3.48767C32.4069 3.48767 30.1998 5.12146 29.3943 7.45989C26.9216 7.50364 24.6855 9.09764 23.8874 11.5535C23.0894 14.0097 23.9613 16.6133 25.9362 18.1022C25.2136 20.4677 26.0386 23.0865 28.1278 24.6045C29.7676 25.7959 31.8115 26.0367 33.5948 25.3995V40.0578C31.4727 38.9436 27.9816 37.8752 26.7464 37.5139C26.2575 37.3708 25.7294 37.506 25.369 37.8661C25.0089 38.2263 24.8737 38.7546 25.0168 39.2435C25.0246 39.2702 25.0602 39.3912 25.1189 39.5855L17.8753 27.0391C19.7385 26.6993 21.3897 25.472 22.2141 23.6203C23.2644 21.2612 22.6695 18.5806 20.8608 16.8933C21.827 14.6163 21.2802 11.9255 19.3608 10.1975C17.4418 8.46942 14.7087 8.20692 12.5451 9.40553C10.6779 7.78337 7.95011 7.47206 5.7134 8.76323C3.47682 10.0545 2.38252 12.5728 2.8542 15.0009C0.734244 16.2752 -0.404895 18.7735 0.131999 21.2995C0.668893 23.8256 2.72555 25.6447 5.1806 25.9464C5.73746 28.3562 7.76144 30.2118 10.3298 30.4816C10.5424 30.5039 10.7537 30.515 10.963 30.515C12.7373 30.515 14.3641 29.7261 15.4607 28.4347L21.4409 38.7929C19.8513 38.2064 18.2879 37.7318 17.5436 37.5142C17.0546 37.371 16.5266 37.5062 16.1662 37.8664C15.8061 38.2266 15.6709 38.7549 15.814 39.2438C15.8512 39.3711 16.5226 41.6556 17.3405 43.7844H15.3397C14.5696 43.7844 13.9454 44.4086 13.9454 45.1787C13.9454 56.942 23.5156 66.5123 35.2789 66.5123C47.0422 66.5123 56.6125 56.942 56.6125 45.1787C56.6125 44.4086 55.9882 43.7844 55.2181 43.7844H52.7115C53.5293 41.6556 54.2006 39.3709 54.2378 39.2438C54.3808 38.7547 54.2457 38.2266 53.8856 37.8664C53.5254 37.5061 52.9969 37.371 52.5082 37.5142C51.7535 37.735 50.1569 38.2199 48.5447 38.8176L54.5391 28.4348C55.6356 29.7263 57.2624 30.5151 59.0369 30.515C59.2461 30.515 59.4576 30.5039 59.67 30.4816C62.2383 30.2118 64.2623 28.3562 64.8193 25.9464C67.2742 25.6445 69.331 23.8256 69.8679 21.2996C70.4049 18.7736 69.2655 16.2754 67.1457 15.001ZM15.8215 24.186C15.4434 24.0601 15.0294 24.1022 14.6843 24.3017C14.3392 24.5009 14.0957 24.8383 14.0156 25.2288C13.6909 26.8117 12.2301 27.8784 10.6215 27.7083C9.01146 27.5392 7.8056 26.1929 7.81681 24.577C7.81954 24.1785 7.65165 23.7979 7.35552 23.5313C7.09808 23.2994 6.76531 23.1731 6.42255 23.1731C6.37101 23.1731 6.31892 23.176 6.26711 23.1817C4.66094 23.3619 3.19627 22.3033 2.85967 20.7198C2.52307 19.1362 3.43074 17.5736 4.97115 17.0849C5.35109 16.9644 5.66117 16.687 5.82332 16.3229C5.98533 15.9589 5.98396 15.5428 5.81921 15.1798C5.15176 13.7082 5.70574 11.988 7.10779 11.1785C8.51011 10.3693 10.2766 10.7495 11.2173 12.0633C11.4493 12.3874 11.8089 12.5967 12.2052 12.6384C12.6011 12.6799 12.9968 12.5501 13.2912 12.2813C14.4846 11.1918 16.2917 11.187 17.4947 12.2702C18.6977 13.3534 18.8821 15.1513 17.923 16.4519C17.6865 16.7727 17.5986 17.1793 17.6816 17.5691C17.7644 17.9589 18.0101 18.2947 18.3567 18.4916C19.7618 19.2899 20.3246 21.0071 19.6663 22.4861C19.0079 23.9652 17.3548 24.6961 15.8215 24.186ZM36.9202 42.9498C37.346 42.5241 39.2764 41.7289 41.4094 40.9984C41.1011 41.9043 40.7342 42.915 40.3631 43.7845H36.448C36.525 43.4741 36.6852 43.185 36.9202 42.9498ZM29.7671 22.3485C28.4573 21.397 28.0864 19.6282 28.904 18.2345C29.1057 17.8908 29.1505 17.4771 29.0275 17.0981C28.9043 16.7191 28.6248 16.4108 28.2596 16.2513C26.7788 15.6043 26.0396 13.9554 26.5399 12.4155C27.04 10.8758 28.6076 9.97592 30.1859 10.3232C30.5751 10.4089 30.9825 10.3237 31.3048 10.0895C31.6272 9.85533 31.8339 9.49412 31.8728 9.09764C32.0306 7.48942 33.3705 6.27659 34.9895 6.27659C36.6085 6.27659 37.9483 7.48942 38.1061 9.09764C38.1451 9.49426 38.3518 9.85533 38.6742 10.0895C38.9966 10.3236 39.4036 10.4089 39.7931 10.3232C41.3715 9.9766 42.9387 10.8758 43.4391 12.4155C43.9393 13.9551 43.2 15.6042 41.7193 16.2513C41.3541 16.411 41.0745 16.7191 40.9515 17.0981C40.8283 17.4771 40.8733 17.8908 41.075 18.2345C41.8927 19.6284 41.5216 21.3971 40.2117 22.3485C38.9019 23.3002 37.1052 23.1066 36.0322 21.8983C35.7677 21.6004 35.3881 21.4298 34.9895 21.4298C34.5908 21.4298 34.2114 21.6003 33.9467 21.8983C32.8736 23.1065 31.0769 23.3002 29.7671 22.3485ZM32.992 42.9498C33.2273 43.1851 33.3873 43.4743 33.4642 43.7845H29.5493C29.1784 42.9155 28.8114 41.9045 28.5031 40.9986C30.6362 41.7291 32.5665 42.5241 32.992 42.9498ZM23.7894 42.9498C23.8449 43.0052 23.8953 43.0641 23.9423 43.1252L24.1756 43.5294C24.2102 43.6125 24.24 43.6974 24.2616 43.7846H20.3466C19.9757 42.9155 19.6088 41.9046 19.3005 40.9986C21.4334 41.7291 23.3638 42.5241 23.7894 42.9498ZM53.7717 46.5731C53.0568 56.1505 45.0357 63.7236 35.2788 63.7236C27.8956 63.7236 21.5074 59.3865 18.5258 53.1266H37.6492C38.4193 53.1266 39.0436 52.5023 39.0436 51.7322C39.0436 50.9621 38.4193 50.3378 37.6492 50.3378H17.465C17.1144 49.1287 16.8826 47.8694 16.7858 46.5731H19.4492H25.5604H28.652H34.7632H35.1493H41.2605H44.4914H50.6026H53.7717ZM50.7515 40.9984C50.4432 41.9043 50.0764 42.915 49.7052 43.7845H45.7901C45.8671 43.4743 46.0272 43.185 46.2623 42.9498C46.6881 42.5241 48.6185 41.7289 50.7515 40.9984ZM67.1401 20.7198C66.8035 22.3034 65.3372 23.362 63.7326 23.1817C63.3368 23.1377 62.9405 23.2647 62.6442 23.5313C62.3481 23.798 62.1802 24.1786 62.1829 24.577C62.1943 26.1929 60.9884 27.5391 59.3783 27.7083C57.7692 27.8774 56.3091 26.8116 55.984 25.2286C55.9039 24.8382 55.6604 24.5008 55.3153 24.3016C55.1009 24.1778 54.8603 24.1147 54.6181 24.1147C54.4702 24.1147 54.3216 24.1382 54.1781 24.1859C52.6446 24.6959 50.9918 23.9652 50.3334 22.4862C49.6748 21.0072 50.2378 19.29 51.643 18.4917C51.9895 18.2948 52.2353 17.959 52.3181 17.5693C52.401 17.1793 52.3129 16.7729 52.0767 16.452C51.1177 15.1514 51.302 13.3535 52.5052 12.2703C53.7081 11.187 55.5153 11.1916 56.7087 12.2814C57.0031 12.5501 57.3985 12.6799 57.7947 12.6385C58.1909 12.5968 58.5506 12.3875 58.7826 12.0635C59.7232 10.7496 61.49 10.3691 62.8921 11.1786C64.2943 11.9881 64.8481 13.7083 64.1806 15.18C64.016 15.543 64.0145 15.959 64.1766 16.3231C64.3387 16.6872 64.6488 16.9644 65.0287 17.085C66.569 17.5735 67.4767 19.1361 67.1401 20.7198Z" fill="black"/>
<path d="M61.5174 16.8804C60.9853 16.0611 60.1658 15.4981 59.2102 15.2949C58.2544 15.0915 57.277 15.2729 56.4578 15.8051C55.6385 16.3373 55.0753 17.1566 54.8722 18.1121C54.669 19.0677 54.8503 20.0452 55.3824 20.8646C55.9145 21.6839 56.7339 22.247 57.6895 22.4502C57.9451 22.5046 58.2021 22.5314 58.4572 22.5314C59.1565 22.5314 59.8416 22.3299 60.4419 21.9401C61.2613 21.408 61.8244 20.5887 62.0276 19.633C62.2308 18.6773 62.0495 17.6998 61.5174 16.8804ZM59.2997 19.0532C59.2514 19.2801 59.1177 19.4748 58.923 19.6013C58.7283 19.7277 58.4963 19.7708 58.2692 19.7224C58.0423 19.6741 57.8476 19.5403 57.7211 19.3456C57.4603 18.9438 57.5748 18.4046 57.9765 18.1437C58.1191 18.0512 58.2819 18.0033 58.4479 18.0033C58.5086 18.0033 58.5696 18.0096 58.6303 18.0226C58.8572 18.0708 59.0519 18.2046 59.1784 18.3992C59.305 18.5939 59.3479 18.8262 59.2997 19.0532Z" fill="black"/>
<path d="M48.5253 50.3379H42.9479C42.1777 50.3379 41.5535 50.9621 41.5535 51.7323C41.5535 52.5024 42.1777 53.1267 42.9479 53.1267H48.5253C49.2954 53.1267 49.9197 52.5024 49.9197 51.7323C49.9197 50.9621 49.2953 50.3379 48.5253 50.3379Z" fill="black"/>
</svg>
